<?xml version="1.0" encoding="UTF-8"?>
<!DOCTYPE svg PUBLIC "-//W3C//DTD SVG 1.1//EN" "http://www.w3.org/Graphics/SVG/1.1/DTD/svg11.dtd">
<svg xmlns="http://www.w3.org/2000/svg" version="1.1" width="576px" height="575px" style="shape-rendering:geometricPrecision; text-rendering:geometricPrecision; image-rendering:optimizeQuality; fill-rule:evenodd; clip-rule:evenodd" xmlns:xlink="http://www.w3.org/1999/xlink">
<g><path style="opacity:1" fill="#fefefe" d="M -0.5,-0.5 C 74.8333,-0.5 150.167,-0.5 225.5,-0.5C 137.281,21.0836 71.4472,71.4169 28,150.5C 24.8865,158.729 21.2199,166.729 17,174.5C 14.7809,183.16 11.7809,191.494 8,199.5C 5.20924,211.643 2.3759,223.643 -0.5,235.5C -0.5,156.833 -0.5,78.1667 -0.5,-0.5 Z"/></g>
<g><path style="opacity:1" fill="#95169d" d="M 225.5,-0.5 C 266.167,-0.5 306.833,-0.5 347.5,-0.5C 447.448,24.2135 517.615,83.8801 558,178.5C 565.351,200.516 571.184,222.85 575.5,245.5C 575.5,271.167 575.5,296.833 575.5,322.5C 563.805,395.922 530.305,456.922 475,505.5C 476.701,509.259 478.534,513.093 480.5,517C 479.843,521.629 477.176,524.296 472.5,525C 460.983,533.255 449.316,541.255 437.5,549C 435.167,549.667 432.833,549.667 430.5,549C 428.343,545.844 425.843,543.011 423,540.5C 392.795,556.567 360.628,567.067 326.5,572C 316.302,572.285 306.302,573.118 296.5,574.5C 290.167,574.5 283.833,574.5 277.5,574.5C 230.26,572.68 185.927,560.347 144.5,537.5C 139.806,545.188 133.473,547.021 125.5,543C 117.691,537.252 110.024,531.252 102.5,525C 96.2024,522.367 91.5357,518.034 88.5,512C 88.8581,508.779 90.3581,506.279 93,504.5C 93.6667,503.167 93.6667,501.833 93,500.5C 43.4286,455.049 12.2619,399.049 -0.5,332.5C -0.5,300.167 -0.5,267.833 -0.5,235.5C 2.3759,223.643 5.20924,211.643 8,199.5C 11.7809,191.494 14.7809,183.16 17,174.5C 21.2199,166.729 24.8865,158.729 28,150.5C 71.4472,71.4169 137.281,21.0836 225.5,-0.5 Z"/></g>
<g><path style="opacity:1" fill="#fefefe" d="M 347.5,-0.5 C 423.5,-0.5 499.5,-0.5 575.5,-0.5C 575.5,81.5 575.5,163.5 575.5,245.5C 571.184,222.85 565.351,200.516 558,178.5C 517.615,83.8801 447.448,24.2135 347.5,-0.5 Z"/></g>
<g><path style="opacity:1" fill="#fefefe" d="M 140.5,457.5 C 138.537,454.482 138.037,451.149 139,447.5C 145,443.167 145,438.833 139,434.5C 138.333,422.833 138.333,411.167 139,399.5C 141.549,396.235 143.716,392.735 145.5,389C 143.966,386.101 142.299,383.267 140.5,380.5C 139.338,375.869 139.172,371.202 140,366.5C 144.687,359.976 149.187,353.309 153.5,346.5C 148.833,345.833 144.167,345.167 139.5,344.5C 136.222,337.498 134.055,330.164 133,322.5C 132.333,303.167 132.333,283.833 133,264.5C 135.492,248.02 139.825,232.02 146,216.5C 150.377,205.409 155.044,194.409 160,183.5C 164.633,165.769 166.3,147.769 165,129.5C 162.102,108.87 151.268,94.0366 132.5,85C 128.197,82.3469 123.531,81.1803 118.5,81.5C 116.438,80.2237 114.104,79.3903 111.5,79C 105.515,78.2015 99.5147,77.5348 93.5,77C 175.253,5.28937 268.919,-15.3773 374.5,15C 455.508,43.3563 513.342,96.523 548,174.5C 577.24,249.47 576.573,324.137 546,398.5C 527.818,437.664 502.485,471.331 470,499.5C 462.464,489.596 455.298,479.43 448.5,469C 473.929,464.566 486.762,449.399 487,423.5C 485.759,416.372 483.425,409.705 480,403.5C 474.794,398.513 469.294,394.013 463.5,390C 460.832,389.433 458.166,388.933 455.5,388.5C 455.177,384.774 455.511,381.107 456.5,377.5C 460.642,373.844 460.309,370.51 455.5,367.5C 452.819,356.595 454.653,346.595 461,337.5C 462.734,336.751 464.567,336.251 466.5,336C 458.743,325.811 455.577,314.311 457,301.5C 459.491,292.535 461.824,283.535 464,274.5C 471.988,255.212 479.988,235.879 488,216.5C 497.143,182.474 494.477,149.474 480,117.5C 470.182,99.5424 458.682,82.8757 445.5,67.5C 423.08,90.9927 407.913,118.659 400,150.5C 397.102,165.421 396.769,180.421 399,195.5C 400.667,203.5 402.333,211.5 404,219.5C 414.119,242.756 423.452,266.423 432,290.5C 433.492,298.119 434.159,305.786 434,313.5C 433.286,321.924 430.12,329.257 424.5,335.5C 427.833,336.167 431.167,336.833 434.5,337.5C 440.415,346.692 442.082,356.692 439.5,367.5C 434.399,370.574 434.233,373.907 439,377.5C 439.498,380.817 439.665,384.15 439.5,387.5C 429.197,388.901 420.697,393.568 414,401.5C 398.759,426.221 402.926,447.055 426.5,464C 383.617,495.573 335.284,511.739 281.5,512.5C 229.382,511.353 182.715,495.353 141.5,464.5C 141.564,462.136 141.231,459.803 140.5,457.5 Z"/></g>
<g><path style="opacity:1" fill="#920b9a" d="M 248.5,42.5 C 248.557,41.391 248.89,40.391 249.5,39.5C 252.112,38.6295 254.779,37.9628 257.5,37.5C 257.28,40.4005 257.946,43.0671 259.5,45.5C 260.72,45.1131 261.387,44.2798 261.5,43C 260.391,40.9534 259.724,38.7867 259.5,36.5C 263.182,36.3347 266.848,36.5014 270.5,37C 270.957,37.414 271.291,37.914 271.5,38.5C 270.696,39.9411 270.029,41.4411 269.5,43C 270.709,46.1013 272.375,46.268 274.5,43.5C 274.847,38.2343 277.68,35.901 283,36.5C 287.527,36.513 289.527,38.8463 289,43.5C 289.368,44.91 290.201,45.91 291.5,46.5C 292.484,43.5719 292.817,40.5719 292.5,37.5C 295.777,37.2161 298.943,37.5495 302,38.5C 302.003,41.0324 301.503,43.5324 300.5,46C 301.045,49.0125 302.211,49.1792 304,46.5C 304.182,43.7737 304.682,41.1071 305.5,38.5C 308.443,39.2435 311.443,39.7435 314.5,40C 315,40.5 315.5,41 316,41.5C 316.333,44.1667 316.667,46.8333 317,49.5C 318.319,47.7505 318.819,45.7505 318.5,43.5C 321.941,43.3011 325.274,43.8011 328.5,45C 329.729,47.619 329.396,50.119 327.5,52.5C 331.884,53.9795 334.384,52.3128 335,47.5C 337.889,50.7272 341.056,53.5605 344.5,56C 343.385,58.6156 342.051,61.1156 340.5,63.5C 340.808,64.3081 341.308,64.9747 342,65.5C 344.741,63.9326 345.908,61.5993 345.5,58.5C 348.833,60.1667 352.167,61.8333 355.5,63.5C 355.785,65.288 355.452,66.9547 354.5,68.5C 352.276,69.0807 351.443,70.4141 352,72.5C 352.718,73.4506 353.551,73.6172 354.5,73C 356.041,71.4207 357.208,69.5873 358,67.5C 359.684,69.3513 361.517,71.018 363.5,72.5C 365.13,75.8961 364.463,78.7294 361.5,81C 367.466,80.1337 371.133,82.6337 372.5,88.5C 370.336,90.6839 367.669,92.0172 364.5,92.5C 367.238,93.4928 369.905,93.1594 372.5,91.5C 374.145,95.3196 374.811,99.3196 374.5,103.5C 371.028,103.126 368.028,104.126 365.5,106.5C 365.808,107.308 366.308,107.975 367,108.5C 369.427,107.219 371.927,106.219 374.5,105.5C 374.833,109.5 375.167,113.5 375.5,117.5C 372.927,117.148 370.594,117.648 368.5,119C 369.43,119.991 370.596,120.491 372,120.5C 373.825,120.057 375.658,119.723 377.5,119.5C 377.5,123.167 377.5,126.833 377.5,130.5C 370.388,132.857 363.055,134.024 355.5,134C 352.203,136.295 349.203,138.962 346.5,142C 348.595,145.303 351.428,147.803 355,149.5C 355.167,151.167 355.333,152.833 355.5,154.5C 352.754,172.797 350.254,191.131 348,209.5C 345.943,211.269 344.11,213.269 342.5,215.5C 345.132,217.059 347.632,218.726 350,220.5C 352.319,244.22 351.985,267.886 349,291.5C 345.351,311.461 334.185,324.961 315.5,332C 293.844,337.95 272.178,337.95 250.5,332C 226.333,320.767 213.5,301.6 212,274.5C 211.5,255.836 211.333,237.17 211.5,218.5C 214.104,218.402 216.104,217.235 217.5,215C 216.076,211.908 214.243,209.074 212,206.5C 210.834,186.844 210.001,167.177 209.5,147.5C 216.985,146.407 218.318,142.907 213.5,137C 211.833,136 210.167,135 208.5,134C 201.457,133.411 194.457,132.578 187.5,131.5C 187.335,127.818 187.501,124.152 188,120.5C 190.758,120.511 193.591,120.177 196.5,119.5C 194.043,118.019 191.377,116.852 188.5,116C 190.227,113.096 190.893,109.93 190.5,106.5C 193.181,106.462 195.681,107.129 198,108.5C 201.088,107.746 201.254,106.58 198.5,105C 195.854,104.503 193.187,104.336 190.5,104.5C 190.203,100.233 190.536,96.0659 191.5,92C 194.561,92.8635 197.561,94.0302 200.5,95.5C 200.5,94.1667 200.5,92.8333 200.5,91.5C 197.07,92.2098 194.737,91.0431 193.5,88C 194.222,84.6706 195.222,81.5039 196.5,78.5C 199.766,78.5674 201.266,76.9008 201,73.5C 203.043,71.792 204.71,69.792 206,67.5C 207.62,69.2415 209.12,71.0748 210.5,73C 211.448,73.4828 212.448,73.6495 213.5,73.5C 213.649,72.448 213.483,71.448 213,70.5C 210.004,69.0283 209.171,66.8616 210.5,64C 212.677,62.4851 214.844,60.9851 217,59.5C 218.731,61.3173 220.565,63.1507 222.5,65C 223.965,65.6013 224.965,65.1013 225.5,63.5C 223.512,61.6905 222.178,59.5239 221.5,57C 221.833,56.1667 222.167,55.3333 222.5,54.5C 225.079,53.2939 227.579,51.9606 230,50.5C 231.142,52.6787 231.975,55.0121 232.5,57.5C 236.833,59.1667 238.167,57.8333 236.5,53.5C 230.116,49.5529 230.783,46.3862 238.5,44C 240.473,43.5045 242.473,43.3379 244.5,43.5C 243.907,46.5959 244.907,48.9292 247.5,50.5C 248.48,47.9135 248.813,45.2469 248.5,42.5 Z"/></g>
<g><path style="opacity:1" fill="#d095d4" d="M 249.5,39.5 C 248.89,40.391 248.557,41.391 248.5,42.5C 247.115,41.0527 247.448,40.0527 249.5,39.5 Z"/></g>
<g><path style="opacity:1" fill="#fefefe" d="M 115.5,150.5 C 117.781,151.608 119.948,152.942 122,154.5C 125.378,161.061 126.378,168.061 125,175.5C 116.419,194.882 112.085,215.215 112,236.5C 111.333,261.833 111.333,287.167 112,312.5C 112.206,323.934 114.372,334.934 118.5,345.5C 114.167,345.5 109.833,345.5 105.5,345.5C 105.351,346.552 105.517,347.552 106,348.5C 110.826,354.156 115.16,360.156 119,366.5C 120.515,373.321 119.182,379.321 115,384.5C 113.578,387.03 113.245,389.697 114,392.5C 116.237,394.647 118.237,396.98 120,399.5C 120.667,411.167 120.667,422.833 120,434.5C 118,436.569 116.167,438.735 114.5,441C 115.987,443.821 118.154,445.987 121,447.5C 121.573,451.686 121.406,455.853 120.5,460C 120.307,462.008 120.974,463.508 122.5,464.5C 122.918,465.222 123.584,465.722 124.5,466C 122.376,467.122 120.543,468.622 119,470.5C 112.631,479.188 105.964,487.522 99,495.5C 49.6802,450.891 19.0136,395.558 7,329.5C -4.15316,246.438 15.5135,172.104 66,106.5C 70.057,103.109 73.3903,99.1091 76,94.5C 81.6667,89.1667 87.3333,83.8333 93,78.5C 93.5,101.831 93.6666,125.164 93.5,148.5C 100.968,148.223 108.302,148.89 115.5,150.5 Z"/></g>
<g><path style="opacity:1" fill="#f9f1f9" d="M 200.5,78.5 C 202.868,79.0138 204.868,80.1805 206.5,82C 203.045,83.1111 201.045,81.9444 200.5,78.5 Z"/></g>
<g><path style="opacity:1" fill="#fefefe" d="M 117.5,82.5 C 130.598,86.285 141.931,92.9516 151.5,102.5C 157.5,110.166 161,118.832 162,128.5C 163.9,147.944 161.9,166.944 156,185.5C 147.214,205.072 139.547,225.072 133,245.5C 129.459,271.106 128.792,296.772 131,322.5C 131.813,329.684 133.313,336.684 135.5,343.5C 131.366,344.485 127.032,344.818 122.5,344.5C 117.505,334.527 114.672,323.86 114,312.5C 113.333,287.167 113.333,261.833 114,236.5C 115.073,219.471 118.073,202.804 123,186.5C 128.989,177.002 129.989,167.002 126,156.5C 124.692,154.359 123.192,152.359 121.5,150.5C 120.264,149.754 118.93,149.421 117.5,149.5C 110.638,146.263 103.305,144.93 95.5,145.5C 95.3334,123.497 95.5,101.497 96,79.5C 103.093,80.7939 110.259,81.7939 117.5,82.5 Z"/></g>
<g><path style="opacity:1" fill="#fefdfe" d="M 336.5,144.5 C 335.833,141.167 335.167,137.833 334.5,134.5C 334.585,133.005 333.919,132.005 332.5,131.5C 331.675,127.878 331.175,124.211 331,120.5C 329.289,118.044 327.956,115.377 327,112.5C 328.136,119.073 328.97,125.74 329.5,132.5C 295.833,132.5 262.167,132.5 228.5,132.5C 228.5,129.833 228.5,127.167 228.5,124.5C 229.084,126.743 230.25,128.743 232,130.5C 233.069,124.466 234.235,118.466 235.5,112.5C 234.141,113.007 233.141,114.007 232.5,115.5C 231.868,118.102 230.868,120.436 229.5,122.5C 231.063,110.416 236.397,100.249 245.5,92C 252.323,87.2551 259.656,83.5884 267.5,81C 291.986,74.4741 311.486,81.3075 326,101.5C 328.27,106.098 330.937,110.431 334,114.5C 334.973,116.392 335.64,118.392 336,120.5C 336.5,128.493 336.666,136.493 336.5,144.5 Z"/></g>
<g><path style="opacity:1" fill="#9f2da5" d="M 258.5,91.5 C 258.511,89.9826 259.177,88.8159 260.5,88C 262.955,86.6884 265.455,85.5218 268,84.5C 268.388,86.0758 267.888,87.4091 266.5,88.5C 263.965,89.9 261.298,90.9 258.5,91.5 Z"/></g>
<g><path style="opacity:1" fill="#c881cc" d="M 449.5,87.5 C 448.507,95.6499 448.174,103.983 448.5,112.5C 447.179,103.991 447.179,95.3245 448.5,86.5C 449.107,86.6236 449.44,86.9569 449.5,87.5 Z"/></g>
<g><path style="opacity:1" fill="#fdfafd" d="M 442.5,86.5 C 443.657,94.9901 443.824,103.657 443,112.5C 435.751,114.051 429.085,117.051 423,121.5C 423.712,118.053 425.045,114.719 427,111.5C 431.506,103.82 436.506,96.4866 442,89.5C 442.483,88.552 442.649,87.552 442.5,86.5 Z"/></g>
<g><path style="opacity:1" fill="#fdfafd" d="M 449.5,87.5 C 456.861,97.5541 463.194,108.221 468.5,119.5C 468.167,119.833 467.833,120.167 467.5,120.5C 461.992,115.914 455.658,113.247 448.5,112.5C 448.174,103.983 448.507,95.6499 449.5,87.5 Z"/></g>
<g><path style="opacity:1" fill="#b357b7" d="M 302.5,91.5 C 298.555,91.5222 295.222,90.1888 292.5,87.5C 293.333,87.1667 294.167,86.8333 295,86.5C 297.486,88.2617 299.986,89.9284 302.5,91.5 Z"/></g>
<g><path style="opacity:1" fill="#a83fae" d="M 258.5,91.5 C 256.163,93.3964 253.496,94.7297 250.5,95.5C 252.482,92.8633 255.148,91.53 258.5,91.5 Z"/></g>
<g><path style="opacity:1" fill="#a233a8" d="M 302.5,91.5 C 305.812,91.149 308.145,92.4823 309.5,95.5C 306.674,95.0023 304.34,93.6689 302.5,91.5 Z"/></g>
<g><path style="opacity:1" fill="#b457b9" d="M 309.5,95.5 C 313.131,96.6076 316.131,98.7742 318.5,102C 317.833,102.667 317.167,102.667 316.5,102C 314.218,99.5423 311.884,97.3756 309.5,95.5 Z"/></g>
<g><path style="opacity:1" fill="#ac48b2" d="M 320.5,103.5 C 322.099,105.604 323.932,107.604 326,109.5C 326.667,110.167 326.667,110.833 326,111.5C 323.097,109.454 321.264,106.787 320.5,103.5 Z"/></g>
<g><path style="opacity:1" fill="#a73fad" d="M 250.5,95.5 C 247.501,99.3316 244.001,102.665 240,105.5C 239.459,108.615 237.959,110.948 235.5,112.5C 236.008,109.148 237.342,106.148 239.5,103.5C 243.203,100.784 246.87,98.1172 250.5,95.5 Z"/></g>
<g><path style="opacity:1" fill="#ab49b0" d="M 235.5,112.5 C 234.235,118.466 233.069,124.466 232,130.5C 230.25,128.743 229.084,126.743 228.5,124.5C 228.328,123.508 228.662,122.842 229.5,122.5C 230.868,120.436 231.868,118.102 232.5,115.5C 233.141,114.007 234.141,113.007 235.5,112.5 Z"/></g>
<g><path style="opacity:1" fill="#fefdfe" d="M 438.5,116.5 C 440.167,116.5 441.833,116.5 443.5,116.5C 443.5,136.167 443.5,155.833 443.5,175.5C 440.101,174.984 436.768,174.15 433.5,173C 431.137,170.82 428.47,169.153 425.5,168C 414.581,154.8 413.748,140.967 423,126.5C 427.614,122.151 432.781,118.817 438.5,116.5 Z"/></g>
<g><path style="opacity:1" fill="#fefdfe" d="M 448.5,116.5 C 470.011,120.832 478.511,133.832 474,155.5C 472.525,158.921 470.859,162.254 469,165.5C 463.396,171.21 456.562,174.543 448.5,175.5C 448.5,155.833 448.5,136.167 448.5,116.5 Z"/></g>
<g><path style="opacity:1" fill="#fefcfe" d="M 272.5,145.5 C 271.833,150.167 271.167,154.833 270.5,159.5C 269.791,158.596 268.791,158.263 267.5,158.5C 267.337,160.857 267.503,163.19 268,165.5C 268.708,166.381 269.542,167.047 270.5,167.5C 271.167,166.5 271.833,165.5 272.5,164.5C 272.575,167.206 272.908,169.873 273.5,172.5C 274.822,172.67 275.989,172.337 277,171.5C 277.5,159.171 277.667,146.838 277.5,134.5C 295.833,134.5 314.167,134.5 332.5,134.5C 332.334,141.841 332.5,149.174 333,156.5C 334.999,158.346 335.832,160.679 335.5,163.5C 333.057,190.934 329.89,218.268 326,245.5C 321.125,261.378 311.959,274.212 298.5,284C 286.233,289.406 274.567,288.406 263.5,281C 258.261,275.269 253.261,269.436 248.5,263.5C 248.657,262.127 248.49,260.793 248,259.5C 240.486,249.143 236.486,237.477 236,224.5C 233.456,202.85 231.456,181.184 230,159.5C 231.299,158.91 232.132,157.91 232.5,156.5C 230.818,149.267 230.151,141.933 230.5,134.5C 244.5,134.5 258.5,134.5 272.5,134.5C 272.5,138.167 272.5,141.833 272.5,145.5 Z"/></g>
<g><path style="opacity:1" fill="#991fa0" d="M 290.5,135.5 C 291.822,135.33 292.989,135.663 294,136.5C 294.924,149.89 294.591,163.223 293,176.5C 291.784,174.038 291.118,171.371 291,168.5C 290.5,157.505 290.333,146.505 290.5,135.5 Z"/></g>
<g><path style="opacity:1" fill="#d9a7db" d="M 334.5,134.5 C 335.167,137.833 335.833,141.167 336.5,144.5C 336.702,146.989 336.202,149.323 335,151.5C 334.501,145.843 334.334,140.176 334.5,134.5 Z"/></g>
<g><path style="opacity:1" fill="#fdfbfd" d="M 478.5,151.5 C 481.801,170.273 480.635,188.94 475,207.5C 473.614,201.734 471.947,196.068 470,190.5C 465.756,185.585 460.923,181.419 455.5,178C 468.378,173.626 476.045,164.793 478.5,151.5 Z"/></g>
<g><path style="opacity:1" fill="#fdfbfd" d="M 412.5,153.5 C 416.944,165.111 424.944,173.278 436.5,178C 424.31,184.818 417.81,195.318 417,209.5C 412.391,191.08 410.891,172.414 412.5,153.5 Z"/></g>
<g><path style="opacity:1" fill="#94119c" d="M 270.5,159.5 C 270.5,162.167 270.5,164.833 270.5,167.5C 269.542,167.047 268.708,166.381 268,165.5C 267.503,163.19 267.337,160.857 267.5,158.5C 268.791,158.263 269.791,158.596 270.5,159.5 Z"/></g>
<g><path style="opacity:1" fill="#9b22a2" d="M 301.5,158.5 C 302.833,158.5 304.167,158.5 305.5,158.5C 305.5,160.833 305.5,163.167 305.5,165.5C 304.167,165.5 302.833,165.5 301.5,165.5C 301.5,163.167 301.5,160.833 301.5,158.5 Z"/></g>
<g><path style="opacity:1" fill="#9b25a2" d="M 306.5,158.5 C 307.552,158.351 308.552,158.517 309.5,159C 308.233,160.796 308.233,162.629 309.5,164.5C 309.192,165.308 308.692,165.975 308,166.5C 306.625,164.063 306.125,161.397 306.5,158.5 Z"/></g>
<g><path style="opacity:1" fill="#9c25a3" d="M 312.5,158.5 C 313.748,159.334 314.415,160.667 314.5,162.5C 314.167,163.833 313.833,165.167 313.5,166.5C 312.52,163.914 312.187,161.247 312.5,158.5 Z"/></g>
<g><path style="opacity:1" fill="#9c27a3" d="M 250.5,158.5 C 252.907,161.115 253.074,164.115 251,167.5C 250.502,164.518 250.335,161.518 250.5,158.5 Z"/></g>
<g><path style="opacity:1" fill="#a43caa" d="M 257.5,158.5 C 258.638,161.304 258.805,164.304 258,167.5C 256.337,164.544 256.171,161.544 257.5,158.5 Z"/></g>
<g><path style="opacity:1" fill="#ad4db2" d="M 263.5,158.5 C 265.857,161.333 266.024,164.333 264,167.5C 262.281,164.546 262.115,161.546 263.5,158.5 Z"/></g>
<g><path style="opacity:1" fill="#ddb2df" d="M 272.5,145.5 C 272.5,151.833 272.5,158.167 272.5,164.5C 271.833,165.5 271.167,166.5 270.5,167.5C 270.5,164.833 270.5,162.167 270.5,159.5C 271.167,154.833 271.833,150.167 272.5,145.5 Z"/></g>
<g><path style="opacity:1" fill="#ca85cd" d="M 451.5,180.5 C 450.5,180.5 449.5,180.5 448.5,180.5C 448.5,199.833 448.5,219.167 448.5,238.5C 447.503,219.007 447.17,199.34 447.5,179.5C 449.099,179.232 450.432,179.566 451.5,180.5 Z"/></g>
<g><path style="opacity:1" fill="#9d29a4" d="M 246.5,180.5 C 256.472,179.156 265.139,181.823 272.5,188.5C 272.167,188.833 271.833,189.167 271.5,189.5C 262.432,184.019 252.765,181.686 242.5,182.5C 243.949,181.828 245.282,181.161 246.5,180.5 Z"/></g>
<g><path style="opacity:1" fill="#9d28a4" d="M 306.5,180.5 C 312.272,180.31 317.939,180.977 323.5,182.5C 313.068,181.304 303.401,183.637 294.5,189.5C 294.167,189.167 293.833,188.833 293.5,188.5C 297.139,184.523 301.472,181.856 306.5,180.5 Z"/></g>
<g><path style="opacity:1" fill="#fefdfe" d="M 442.5,179.5 C 443.497,198.993 443.83,218.66 443.5,238.5C 434.029,237.207 427.196,232.207 423,223.5C 418.924,211.518 420.257,200.185 427,189.5C 429.643,188.024 431.81,186.024 433.5,183.5C 436.482,181.836 439.482,180.503 442.5,179.5 Z"/></g>
<g><path style="opacity:1" fill="#fefdfe" d="M 451.5,180.5 C 464.834,185.483 471.5,195.149 471.5,209.5C 471.828,217.016 469.661,223.682 465,229.5C 460.869,234.769 455.369,237.769 448.5,238.5C 448.5,219.167 448.5,199.833 448.5,180.5C 449.5,180.5 450.5,180.5 451.5,180.5 Z"/></g>
<g><path style="opacity:1" fill="#95169d" d="M 248.5,185.5 C 259.268,184.959 266.601,189.626 270.5,199.5C 269.809,202.353 268.476,204.853 266.5,207C 262.833,208.833 259.167,210.667 255.5,212.5C 254.304,212.154 254.304,211.654 255.5,211C 259.46,209.032 262.793,206.365 265.5,203C 262.145,204.491 258.479,205.325 254.5,205.5C 247.687,205.197 243.354,201.697 241.5,195C 242.594,190.763 244.928,187.596 248.5,185.5 Z"/></g>
<g><path style="opacity:1" fill="#95139c" d="M 310.5,185.5 C 314.41,185.263 318.077,186.096 321.5,188C 326.346,195.36 324.68,201.027 316.5,205C 313.167,205.667 309.833,205.667 306.5,205C 304.598,203.699 302.598,203.032 300.5,203C 304.382,207.214 309.048,210.214 314.5,212C 313.833,212.167 313.167,212.333 312.5,212.5C 290.727,205.074 290.061,196.074 310.5,185.5 Z"/></g>
<g><path style="opacity:1" fill="#3c003f" d="M 253.5,188.5 C 254.93,188.421 256.264,188.754 257.5,189.5C 260.044,197.13 257.877,199.13 251,195.5C 250.162,192.519 250.995,190.186 253.5,188.5 Z"/></g>
<g><path style="opacity:1" fill="#3c003f" d="M 309.5,188.5 C 315.195,188.632 316.862,191.298 314.5,196.5C 306.249,197.917 304.582,195.251 309.5,188.5 Z"/></g>
<g><path style="opacity:1" fill="#fdfcfd" d="M 443.5,242.5 C 443.831,263.34 443.497,284.007 442.5,304.5C 442.665,301.482 442.498,298.482 442,295.5C 436.123,273.226 429.789,251.226 423,229.5C 425.567,233.7 429.067,236.867 433.5,239C 436.605,240.868 439.938,242.035 443.5,242.5 Z"/></g>
<g><path style="opacity:1" fill="#fefcfe" d="M 467.5,230.5 C 468.097,230.735 468.43,231.235 468.5,232C 459.769,255.199 453.269,279.032 449,303.5C 448.5,283.169 448.333,262.836 448.5,242.5C 456.727,241.234 463.06,237.234 467.5,230.5 Z"/></g>
<g><path style="opacity:1" fill="#fdfafd" d="M 234.5,234.5 C 235.966,235.347 236.8,236.68 237,238.5C 238.043,241.757 238.543,245.09 238.5,248.5C 232.269,250.78 225.935,252.78 219.5,254.5C 219.608,252.217 220.441,250.217 222,248.5C 226.829,244.185 230.996,239.519 234.5,234.5 Z"/></g>
<g><path style="opacity:1" fill="#faf4fa" d="M 335.5,268.5 C 333.394,264.509 332.061,260.176 331.5,255.5C 330.178,255.33 329.011,255.663 328,256.5C 326.789,259.759 324.956,262.592 322.5,265C 323.328,266.992 324.661,268.492 326.5,269.5C 326.629,271.216 326.962,272.883 327.5,274.5C 325.08,270.9 322.414,267.4 319.5,264C 325.028,254.921 329.362,245.255 332.5,235C 333.167,234.333 333.833,234.333 334.5,235C 339.45,241.094 344.116,247.261 348.5,253.5C 348,253.833 347.5,254.167 347,254.5C 341.603,252.981 336.437,250.981 331.5,248.5C 331.167,248.833 330.833,249.167 330.5,249.5C 333.194,255.579 334.861,261.913 335.5,268.5 Z"/></g>
<g><path style="opacity:1" fill="#9e2da5" d="M 272.5,218.5 C 274.708,219.023 276.208,220.356 277,222.5C 277.667,225.5 277.667,228.5 277,231.5C 273.173,226.235 269.34,226.235 265.5,231.5C 265.977,232.478 266.643,233.311 267.5,234C 270.877,234.452 274.211,235.118 277.5,236C 279.681,237.84 282.181,239.007 285,239.5C 289.774,236.703 294.94,234.87 300.5,234C 302.602,229.692 301.269,227.192 296.5,226.5C 295.201,227.09 294.368,228.09 294,229.5C 292.022,225.806 292.188,222.14 294.5,218.5C 295.934,220.22 296.767,222.22 297,224.5C 299.462,225.65 301.796,226.983 304,228.5C 304.667,230.5 304.667,232.5 304,234.5C 297.075,236.304 290.575,238.97 284.5,242.5C 280.297,241.732 276.63,239.898 273.5,237C 270.899,236.08 268.232,235.413 265.5,235C 264.409,232.936 264.242,230.769 265,228.5C 267.774,227.313 270.441,225.98 273,224.5C 273.49,222.455 273.323,220.455 272.5,218.5 Z"/></g>
<g><path style="opacity:1" fill="#ab40b1" d="M 443.5,242.5 C 444.663,264.329 444.83,286.329 444,308.5C 442.812,307.437 442.312,306.103 442.5,304.5C 443.497,284.007 443.831,263.34 443.5,242.5 Z"/></g>
<g><path style="opacity:1" fill="#f8f0f9" d="M 248.5,263.5 C 248.662,265.527 248.495,267.527 248,269.5C 244.589,273.399 241.422,277.399 238.5,281.5C 238.351,280.448 238.517,279.448 239,278.5C 242.219,274.948 245.052,271.115 247.5,267C 246.271,265.471 244.771,264.304 243,263.5C 242.163,261.156 240.829,259.156 239,257.5C 236.12,267.062 232.953,276.395 229.5,285.5C 232.214,273.354 235.547,261.354 239.5,249.5C 242.524,254.231 245.524,258.898 248.5,263.5 Z"/></g>
<g><path style="opacity:1" fill="#96199e" d="M 268.5,253.5 C 273.804,253.33 278.971,253.996 284,255.5C 288.705,253.891 293.539,253.391 298.5,254C 308.672,255.074 310.505,259.241 304,266.5C 301.5,268.333 299,270.167 296.5,272C 289.582,273.551 282.582,273.884 275.5,273C 273.051,272.275 270.717,271.275 268.5,270C 265.455,266.493 262.455,262.993 259.5,259.5C 262.128,256.788 265.128,254.788 268.5,253.5 Z"/></g>
<g><path style="opacity:1" fill="#fbf7fb" d="M 267.5,260.5 C 269.857,260.337 272.19,260.503 274.5,261C 277.559,262.853 280.892,264.02 284.5,264.5C 288.624,263.021 292.791,261.687 297,260.5C 299.385,260.256 301.218,261.089 302.5,263C 295.867,270.655 287.533,273.321 277.5,271C 272.853,269.526 269.186,266.859 266.5,263C 266.743,262.098 267.077,261.265 267.5,260.5 Z"/></g>
<g><path style="opacity:1" fill="#a234a8" d="M 335.5,268.5 C 336.167,268.5 336.5,268.833 336.5,269.5C 335.861,270.097 335.528,270.93 335.5,272C 336.528,276.917 337.861,281.751 339.5,286.5C 339.167,287.167 338.833,287.833 338.5,288.5C 337.712,287.23 336.712,286.23 335.5,285.5C 334.277,282.726 332.777,280.059 331,277.5C 330.241,275.937 329.074,274.937 327.5,274.5C 326.962,272.883 326.629,271.216 326.5,269.5C 324.661,268.492 323.328,266.992 322.5,265C 324.956,262.592 326.789,259.759 328,256.5C 329.011,255.663 330.178,255.33 331.5,255.5C 332.061,260.176 333.394,264.509 335.5,268.5 Z"/></g>
<g><path style="opacity:1" fill="#fbf7fb" d="M 326.5,269.5 C 325.333,265.475 326.166,261.808 329,258.5C 332.404,265.12 334.404,272.12 335,279.5C 332.302,275.975 329.469,272.642 326.5,269.5 Z"/></g>
<g><path style="opacity:1" fill="#faf3fa" d="M 317.5,265.5 C 319.064,283.977 319.731,302.644 319.5,321.5C 317.61,321.703 316.11,321.037 315,319.5C 309.568,312.978 303.901,306.645 298,300.5C 295.864,296.371 293.031,292.871 289.5,290C 291.862,288.269 294.529,287.435 297.5,287.5C 297.351,288.552 297.517,289.552 298,290.5C 303.65,298.083 309.65,305.417 316,312.5C 316.008,301.327 315.508,290.16 314.5,279C 314.167,277.833 313.833,276.667 313.5,275.5C 312.084,277.139 310.417,277.973 308.5,278C 312.874,274.797 315.874,270.63 317.5,265.5 Z"/></g>
<g><path style="opacity:1" fill="#f9f1f9" d="M 249.5,268.5 C 252.449,271.788 255.449,275.121 258.5,278.5C 258.167,278.833 257.833,279.167 257.5,279.5C 256.5,278.833 255.5,278.167 254.5,277.5C 253.334,289.82 253.167,302.153 254,314.5C 261.273,306.24 268.107,297.74 274.5,289C 277.158,288.927 279.824,289.26 282.5,290C 272.602,300.467 262.935,311.134 253.5,322C 251.866,322.494 250.199,322.66 248.5,322.5C 248.591,304.494 248.924,286.494 249.5,268.5 Z"/></g>
<g><path style="opacity:1" fill="#f1dff2" d="M 336.5,269.5 C 338.662,277.15 340.662,284.817 342.5,292.5C 337.878,292.545 335.545,290.212 335.5,285.5C 336.712,286.23 337.712,287.23 338.5,288.5C 338.833,287.833 339.167,287.167 339.5,286.5C 337.861,281.751 336.528,276.917 335.5,272C 335.528,270.93 335.861,270.097 336.5,269.5 Z"/></g>
<g><path style="opacity:1" fill="#f8eef8" d="M 327.5,274.5 C 329.074,274.937 330.241,275.937 331,277.5C 332.777,280.059 334.277,282.726 335.5,285.5C 332.067,282.399 329.4,278.732 327.5,274.5 Z"/></g>
<g><path style="opacity:1" fill="#a132a7" d="M 238.5,281.5 C 235.458,284.536 232.624,287.869 230,291.5C 229.79,289.942 229.29,288.609 228.5,287.5C 228.328,286.508 228.662,285.842 229.5,285.5C 232.953,276.395 236.12,267.062 239,257.5C 240.829,259.156 242.163,261.156 243,263.5C 244.771,264.304 246.271,265.471 247.5,267C 245.052,271.115 242.219,274.948 239,278.5C 238.517,279.448 238.351,280.448 238.5,281.5 Z"/></g>
<g><path style="opacity:1" fill="#fbf6fb" d="M 238.5,261.5 C 240.812,263.146 242.812,265.146 244.5,267.5C 240.803,272.698 237.303,278.031 234,283.5C 235.794,276.311 237.294,268.978 238.5,261.5 Z"/></g>
<g><path style="opacity:1" fill="#f8eff8" d="M 238.5,281.5 C 236.692,286.979 233.359,291.312 228.5,294.5C 227.637,292.229 227.637,289.895 228.5,287.5C 229.29,288.609 229.79,289.942 230,291.5C 232.624,287.869 235.458,284.536 238.5,281.5 Z"/></g>
<g><path style="opacity:1" fill="#9a23a1" d="M 117.5,82.5 C 117.5,81.8333 117.833,81.5 118.5,81.5C 123.531,81.1803 128.197,82.3469 132.5,85C 151.268,94.0366 162.102,108.87 165,129.5C 166.3,147.769 164.633,165.769 160,183.5C 155.044,194.409 150.377,205.409 146,216.5C 139.825,232.02 135.492,248.02 133,264.5C 132.333,283.833 132.333,303.167 133,322.5C 134.055,330.164 136.222,337.498 139.5,344.5C 144.167,345.167 148.833,345.833 153.5,346.5C 149.187,353.309 144.687,359.976 140,366.5C 139.172,371.202 139.338,375.869 140.5,380.5C 142.299,383.267 143.966,386.101 145.5,389C 143.716,392.735 141.549,396.235 139,399.5C 138.333,411.167 138.333,422.833 139,434.5C 145,438.833 145,443.167 139,447.5C 138.037,451.149 138.537,454.482 140.5,457.5C 139.833,458.833 139.167,460.167 138.5,461.5C 138.5,460.167 138.5,458.833 138.5,457.5C 133.167,457.5 127.833,457.5 122.5,457.5C 122.5,459.5 122.5,461.5 122.5,463.5C 122.5,463.833 122.5,464.167 122.5,464.5C 120.974,463.508 120.307,462.008 120.5,460C 121.406,455.853 121.573,451.686 121,447.5C 118.154,445.987 115.987,443.821 114.5,441C 116.167,438.735 118,436.569 120,434.5C 120.667,422.833 120.667,411.167 120,399.5C 118.237,396.98 116.237,394.647 114,392.5C 113.245,389.697 113.578,387.03 115,384.5C 119.182,379.321 120.515,373.321 119,366.5C 115.16,360.156 110.826,354.156 106,348.5C 105.517,347.552 105.351,346.552 105.5,345.5C 109.833,345.5 114.167,345.5 118.5,345.5C 114.372,334.934 112.206,323.934 112,312.5C 111.333,287.167 111.333,261.833 112,236.5C 112.085,215.215 116.419,194.882 125,175.5C 126.378,168.061 125.378,161.061 122,154.5C 119.948,152.942 117.781,151.608 115.5,150.5C 115.842,149.662 116.508,149.328 117.5,149.5C 118.93,149.421 120.264,149.754 121.5,150.5C 123.192,152.359 124.692,154.359 126,156.5C 129.989,167.002 128.989,177.002 123,186.5C 118.073,202.804 115.073,219.471 114,236.5C 113.333,261.833 113.333,287.167 114,312.5C 114.672,323.86 117.505,334.527 122.5,344.5C 127.015,345.812 131.682,345.812 136.5,344.5C 136.376,343.893 136.043,343.56 135.5,343.5C 133.313,336.684 131.813,329.684 131,322.5C 128.792,296.772 129.459,271.106 133,245.5C 139.547,225.072 147.214,205.072 156,185.5C 161.9,166.944 163.9,147.944 162,128.5C 161,118.832 157.5,110.166 151.5,102.5C 141.931,92.9516 130.598,86.285 117.5,82.5 Z"/></g>
<g><path style="opacity:1" fill="#fefefe" d="M 575.5,322.5 C 575.5,406.5 575.5,490.5 575.5,574.5C 482.5,574.5 389.5,574.5 296.5,574.5C 306.302,573.118 316.302,572.285 326.5,572C 360.628,567.067 392.795,556.567 423,540.5C 425.843,543.011 428.343,545.844 430.5,549C 432.833,549.667 435.167,549.667 437.5,549C 449.316,541.255 460.983,533.255 472.5,525C 477.176,524.296 479.843,521.629 480.5,517C 478.534,513.093 476.701,509.259 475,505.5C 530.305,456.922 563.805,395.922 575.5,322.5 Z"/></g>
<g><path style="opacity:1" fill="#fefefe" d="M -0.5,332.5 C 12.2619,399.049 43.4286,455.049 93,500.5C 93.6667,501.833 93.6667,503.167 93,504.5C 90.3581,506.279 88.8581,508.779 88.5,512C 91.5357,518.034 96.2024,522.367 102.5,525C 110.024,531.252 117.691,537.252 125.5,543C 133.473,547.021 139.806,545.188 144.5,537.5C 185.927,560.347 230.26,572.68 277.5,574.5C 184.833,574.5 92.1667,574.5 -0.5,574.5C -0.5,493.833 -0.5,413.167 -0.5,332.5 Z"/></g>
<g><path style="opacity:1" fill="#fefcfe" d="M 436.5,337.5 C 443.677,336.181 451.01,336.181 458.5,337.5C 456.55,340.515 454.884,343.681 453.5,347C 449.459,347.827 445.459,347.66 441.5,346.5C 440.203,343.226 438.536,340.226 436.5,337.5 Z"/></g>
<g><path style="opacity:1" fill="#e1bce3" d="M 135.5,343.5 C 136.043,343.56 136.376,343.893 136.5,344.5C 131.682,345.812 127.015,345.812 122.5,344.5C 127.032,344.818 131.366,344.485 135.5,343.5 Z"/></g>
<g><path style="opacity:1" fill="#930e9b" d="M 203.5,465.5 C 200.167,465.5 196.833,465.5 193.5,465.5C 193.828,454.321 193.495,443.321 192.5,432.5C 182.908,434.725 178.408,431.059 179,421.5C 179.833,420.5 180.667,419.5 181.5,418.5C 185.094,417.574 188.76,417.241 192.5,417.5C 193.495,405.678 193.828,393.678 193.5,381.5C 190.167,381.5 186.833,381.5 183.5,381.5C 180.147,380.488 178.48,378.154 178.5,374.5C 178.904,370.638 180.904,368.305 184.5,367.5C 187.5,367.5 190.5,367.5 193.5,367.5C 193.5,362.167 193.5,356.833 193.5,351.5C 199.833,351.5 206.167,351.5 212.5,351.5C 212.269,348.215 213.603,345.715 216.5,344C 237.5,343.333 258.5,343.333 279.5,344C 281.305,344.972 282.972,346.139 284.5,347.5C 285.981,346.52 287.315,345.353 288.5,344C 309.5,343.333 330.5,343.333 351.5,344C 354.941,345.318 356.275,347.818 355.5,351.5C 363.5,351.5 371.5,351.5 379.5,351.5C 379.5,356.833 379.5,362.167 379.5,367.5C 383.637,367.146 387.637,367.646 391.5,369C 393.733,372.442 394.067,376.108 392.5,380C 388.27,381.29 383.936,381.79 379.5,381.5C 379.5,393.5 379.5,405.5 379.5,417.5C 383.605,417.234 387.605,417.734 391.5,419C 394.383,423.269 394.05,427.269 390.5,431C 386.974,432.337 383.308,432.837 379.5,432.5C 379.5,443.833 379.5,455.167 379.5,466.5C 352.526,464.635 325.526,463.468 298.5,463C 294.028,468.108 288.361,469.775 281.5,468C 278.638,467.07 276.305,465.403 274.5,463C 250.816,463.134 227.149,463.967 203.5,465.5 Z"/></g>
<g><path style="opacity:1" fill="#b85dbd" d="M 149.5,348.5 C 136.323,348.171 123.323,348.505 110.5,349.5C 109.957,349.44 109.624,349.107 109.5,348.5C 122.994,347.175 136.327,347.175 149.5,348.5 Z"/></g>
<g><path style="opacity:1" fill="#fcf7fc" d="M 218.5,346.5 C 238.169,346.333 257.836,346.5 277.5,347C 279.286,347.785 280.786,348.951 282,350.5C 282.833,381.839 282.667,413.172 281.5,444.5C 279.333,443.208 277,442.375 274.5,442C 254.836,441.5 235.169,441.333 215.5,441.5C 216.594,410.5 216.761,379.5 216,348.5C 216.995,347.934 217.828,347.267 218.5,346.5 Z"/></g>
<g><path style="opacity:1" fill="#fdfafd" d="M 289.5,346.5 C 309.836,346.333 330.169,346.5 350.5,347C 351.308,347.308 351.975,347.808 352.5,348.5C 352.206,379.46 352.539,410.46 353.5,441.5C 333.831,441.333 314.164,441.5 294.5,442C 291.766,442.21 289.266,443.044 287,444.5C 286.333,413.167 286.333,381.833 287,350.5C 287.662,349.016 288.496,347.683 289.5,346.5 Z"/></g>
<g><path style="opacity:1" fill="#fdfbfd" d="M 149.5,348.5 C 144.887,353.841 140.72,359.507 137,365.5C 136.333,370.5 136.333,375.5 137,380.5C 139.466,383.128 141.299,386.128 142.5,389.5C 140.561,392.615 138.394,395.615 136,398.5C 135.333,410.833 135.333,423.167 136,435.5C 137.833,437.333 139.667,439.167 141.5,441C 139.667,442.833 137.833,444.667 136,446.5C 135.503,448.81 135.337,451.143 135.5,453.5C 131.5,453.5 127.5,453.5 123.5,453.5C 124.564,447.796 122.564,443.629 117.5,441C 118.5,440 119.5,439 120.5,438C 124.816,437.004 129.149,436.17 133.5,435.5C 132.757,423.515 132.424,411.515 132.5,399.5C 129.102,399.82 125.768,399.487 122.5,398.5C 120.36,395.193 118.026,392.026 115.5,389C 120.634,386.62 125.967,384.62 131.5,383C 132.059,382.275 132.392,381.442 132.5,380.5C 131.96,376.042 130.96,371.709 129.5,367.5C 127.205,366.568 124.871,365.735 122.5,365C 117.884,360.245 113.884,355.078 110.5,349.5C 123.323,348.505 136.323,348.171 149.5,348.5 Z"/></g>
<g><path style="opacity:1" fill="#fefefe" d="M 442.5,350.5 C 445.833,350.5 449.167,350.5 452.5,350.5C 452.5,356.833 452.5,363.167 452.5,369.5C 450.599,370.687 446.599,370.854 440.5,370C 442.434,363.789 443.101,357.289 442.5,350.5 Z"/></g>
<g><path style="opacity:1" fill="#e1bde3" d="M 193.5,351.5 C 193.5,356.833 193.5,362.167 193.5,367.5C 190.5,367.5 187.5,367.5 184.5,367.5C 186.948,366.527 189.615,366.194 192.5,366.5C 192.179,361.305 192.513,356.305 193.5,351.5 Z"/></g>
<g><path style="opacity:1" fill="#ac47b1" d="M 224.5,353.5 C 230.167,353.5 235.833,353.5 241.5,353.5C 241.5,354.5 241.5,355.5 241.5,356.5C 235.833,356.5 230.167,356.5 224.5,356.5C 224.5,355.5 224.5,354.5 224.5,353.5 Z"/></g>
<g><path style="opacity:1" fill="#ac47b1" d="M 250.5,353.5 C 256.167,353.5 261.833,353.5 267.5,353.5C 267.5,354.5 267.5,355.5 267.5,356.5C 261.833,356.5 256.167,356.5 250.5,356.5C 250.5,355.5 250.5,354.5 250.5,353.5 Z"/></g>
<g><path style="opacity:1" fill="#af4db4" d="M 298.5,353.5 C 304.5,353.5 310.5,353.5 316.5,353.5C 316.5,354.5 316.5,355.5 316.5,356.5C 310.132,356.83 303.798,356.496 297.5,355.5C 297.863,354.817 298.196,354.15 298.5,353.5 Z"/></g>
<g><path style="opacity:1" fill="#ac47b1" d="M 325.5,353.5 C 331.167,353.5 336.833,353.5 342.5,353.5C 342.5,354.5 342.5,355.5 342.5,356.5C 336.833,356.5 331.167,356.5 325.5,356.5C 325.5,355.5 325.5,354.5 325.5,353.5 Z"/></g>
<g><path style="opacity:1" fill="#900299" d="M 224.5,358.5 C 230.206,358.171 235.872,358.505 241.5,359.5C 238.667,359.833 235.833,360.167 233,360.5C 229.748,360.481 226.915,359.814 224.5,358.5 Z"/></g>
<g><path style="opacity:1" fill="#900299" d="M 250.5,358.5 C 256.206,358.171 261.872,358.505 267.5,359.5C 264.667,359.833 261.833,360.167 259,360.5C 255.748,360.481 252.915,359.814 250.5,358.5 Z"/></g>
<g><path style="opacity:1" fill="#95159c" d="M 297.5,358.5 C 303.868,358.17 310.202,358.504 316.5,359.5C 313.333,359.833 310.167,360.167 307,360.5C 303.424,360.485 300.258,359.818 297.5,358.5 Z"/></g>
<g><path style="opacity:1" fill="#900299" d="M 325.5,358.5 C 331.206,358.171 336.872,358.505 342.5,359.5C 339.667,359.833 336.833,360.167 334,360.5C 330.748,360.481 327.915,359.814 325.5,358.5 Z"/></g>
<g><path style="opacity:1" fill="#e2bee4" d="M 316.5,362.5 C 310.074,361.88 304.074,362.547 298.5,364.5C 297.596,363.791 297.263,362.791 297.5,361.5C 304.022,361.177 310.355,361.51 316.5,362.5 Z"/></g>
<g><path style="opacity:1" fill="#f8eef8" d="M 202.5,362.5 C 203.93,362.421 205.264,362.754 206.5,363.5C 207.657,366.784 207.824,370.118 207,373.5C 204.295,371.293 202.129,368.626 200.5,365.5C 201.193,364.482 201.859,363.482 202.5,362.5 Z"/></g>
<g><path style="opacity:1" fill="#a22fa8" d="M 224.5,362.5 C 230.206,362.171 235.872,362.505 241.5,363.5C 238.667,363.833 235.833,364.167 233,364.5C 229.748,364.481 226.915,363.814 224.5,362.5 Z"/></g>
<g><path style="opacity:1" fill="#a22fa8" d="M 250.5,362.5 C 256.206,362.171 261.872,362.505 267.5,363.5C 264.667,363.833 261.833,364.167 259,364.5C 255.748,364.481 252.915,363.814 250.5,362.5 Z"/></g>
<g><path style="opacity:1" fill="#a332aa" d="M 316.5,362.5 C 310.926,364.453 304.926,365.12 298.5,364.5C 304.074,362.547 310.074,361.88 316.5,362.5 Z"/></g>
<g><path style="opacity:1" fill="#a22fa8" d="M 325.5,362.5 C 331.206,362.171 336.872,362.505 342.5,363.5C 339.667,363.833 336.833,364.167 334,364.5C 330.748,364.481 327.915,363.814 325.5,362.5 Z"/></g>
<g><path style="opacity:1" fill="#a63dab" d="M 224.5,366.5 C 230.167,366.5 235.833,366.5 241.5,366.5C 241.5,367.5 241.5,368.5 241.5,369.5C 235.833,369.5 230.167,369.5 224.5,369.5C 224.5,368.5 224.5,367.5 224.5,366.5 Z"/></g>
<g><path style="opacity:1" fill="#a63dab" d="M 250.5,366.5 C 256.167,366.5 261.833,366.5 267.5,366.5C 267.5,367.5 267.5,368.5 267.5,369.5C 261.833,369.5 256.167,369.5 250.5,369.5C 250.5,368.5 250.5,367.5 250.5,366.5 Z"/></g>
<g><path style="opacity:1" fill="#9a20a1" d="M 298.5,366.5 C 304.926,365.88 310.926,366.547 316.5,368.5C 310.074,369.12 304.074,368.453 298.5,366.5 Z"/></g>
<g><path style="opacity:1" fill="#a63dab" d="M 325.5,366.5 C 331.167,366.5 336.833,366.5 342.5,366.5C 342.5,367.5 342.5,368.5 342.5,369.5C 336.833,369.5 331.167,369.5 325.5,369.5C 325.5,368.5 325.5,367.5 325.5,366.5 Z"/></g>
<g><path style="opacity:1" fill="#ca87ce" d="M 298.5,366.5 C 304.074,368.453 310.074,369.12 316.5,368.5C 310.355,369.49 304.022,369.823 297.5,369.5C 297.263,368.209 297.596,367.209 298.5,366.5 Z"/></g>
<g><path style="opacity:1" fill="#900299" d="M 224.5,370.5 C 230.206,370.171 235.872,370.505 241.5,371.5C 238.667,371.833 235.833,372.167 233,372.5C 229.748,372.481 226.915,371.814 224.5,370.5 Z"/></g>
<g><path style="opacity:1" fill="#900299" d="M 250.5,370.5 C 256.206,370.171 261.872,370.505 267.5,371.5C 264.667,371.833 261.833,372.167 259,372.5C 255.748,372.481 252.915,371.814 250.5,370.5 Z"/></g>
<g><path style="opacity:1" fill="#95159c" d="M 297.5,370.5 C 303.868,370.17 310.202,370.504 316.5,371.5C 313.333,371.833 310.167,372.167 307,372.5C 303.424,372.485 300.258,371.818 297.5,370.5 Z"/></g>
<g><path style="opacity:1" fill="#900299" d="M 325.5,370.5 C 331.206,370.171 336.872,370.505 342.5,371.5C 339.667,371.833 336.833,372.167 334,372.5C 330.748,372.481 327.915,371.814 325.5,370.5 Z"/></g>
<g><path style="opacity:1" fill="#e3bfe5" d="M 438.5,373.5 C 437.224,372.614 437.224,371.614 438.5,370.5C 439.087,371.233 439.087,372.233 438.5,373.5 Z"/></g>
<g><path style="opacity:1" fill="#e3c1e5" d="M 455.5,375.5 C 450.36,374.512 445.026,374.179 439.5,374.5C 438.833,374.5 438.5,374.167 438.5,373.5C 444.5,373.5 450.5,373.5 456.5,373.5C 457.915,370.881 457.581,371.547 455.5,375.5 Z"/></g>
<g><path style="opacity:1" fill="#f9f1f9" d="M 362.5,374.5 C 366.332,374.489 368.665,376.322 369.5,380C 366.473,388.609 364.306,397.442 363,406.5C 362.5,395.839 362.333,385.172 362.5,374.5 Z"/></g>
<g><path style="opacity:1" fill="#fefdfe" d="M 439.5,374.5 C 445.026,374.179 450.36,374.512 455.5,375.5C 454.883,375.611 454.383,375.944 454,376.5C 453.501,380.152 453.335,383.818 453.5,387.5C 452.5,387.5 451.5,387.5 450.5,387.5C 448.052,386.527 445.385,386.194 442.5,386.5C 442.81,383.287 442.477,380.287 441.5,377.5C 440.833,376.5 440.167,375.5 439.5,374.5 Z"/></g>
<g><path style="opacity:1" fill="#ac47b1" d="M 224.5,374.5 C 230.167,374.5 235.833,374.5 241.5,374.5C 241.5,375.5 241.5,376.5 241.5,377.5C 235.833,377.5 230.167,377.5 224.5,377.5C 224.5,376.5 224.5,375.5 224.5,374.5 Z"/></g>
<g><path style="opacity:1" fill="#ac47b1" d="M 250.5,374.5 C 256.167,374.5 261.833,374.5 267.5,374.5C 267.5,375.5 267.5,376.5 267.5,377.5C 261.833,377.5 256.167,377.5 250.5,377.5C 250.5,376.5 250.5,375.5 250.5,374.5 Z"/></g>
<g><path style="opacity:1" fill="#af4db4" d="M 298.5,374.5 C 304.5,374.5 310.5,374.5 316.5,374.5C 316.5,375.5 316.5,376.5 316.5,377.5C 310.132,377.83 303.798,377.496 297.5,376.5C 297.863,375.817 298.196,375.15 298.5,374.5 Z"/></g>
<g><path style="opacity:1" fill="#ac47b1" d="M 325.5,374.5 C 331.167,374.5 336.833,374.5 342.5,374.5C 342.5,375.5 342.5,376.5 342.5,377.5C 336.833,377.5 331.167,377.5 325.5,377.5C 325.5,376.5 325.5,375.5 325.5,374.5 Z"/></g>
<g><path style="opacity:1" fill="#faf5fb" d="M 208.5,401.5 C 208.737,402.791 208.404,403.791 207.5,404.5C 205.486,398.126 203.486,391.793 201.5,385.5C 201.551,383.9 201.884,382.4 202.5,381C 204.473,380.505 206.473,380.338 208.5,380.5C 208.5,387.5 208.5,394.5 208.5,401.5 Z"/></g>
<g><path style="opacity:1" fill="#cb8fcd" d="M 223.5,379.5 C 229.537,379.171 235.537,379.504 241.5,380.5C 238.5,380.833 235.5,381.167 232.5,381.5C 229.087,381.483 226.087,380.816 223.5,379.5 Z"/></g>
<g><path style="opacity:1" fill="#cb8fcd" d="M 250.5,379.5 C 256.537,379.171 262.537,379.504 268.5,380.5C 265.5,380.833 262.5,381.167 259.5,381.5C 256.087,381.483 253.087,380.816 250.5,379.5 Z"/></g>
<g><path style="opacity:1" fill="#cb8ecd" d="M 297.5,379.5 C 303.868,379.17 310.202,379.504 316.5,380.5C 313.333,380.833 310.167,381.167 307,381.5C 303.424,381.485 300.258,380.818 297.5,379.5 Z"/></g>
<g><path style="opacity:1" fill="#cb8fcd" d="M 324.5,379.5 C 330.537,379.171 336.537,379.504 342.5,380.5C 339.5,380.833 336.5,381.167 333.5,381.5C 330.087,381.483 327.087,380.816 324.5,379.5 Z"/></g>
<g><path style="opacity:1" fill="#e2bee4" d="M 183.5,381.5 C 186.833,381.5 190.167,381.5 193.5,381.5C 193.828,393.678 193.495,405.678 192.5,417.5C 192.5,405.833 192.5,394.167 192.5,382.5C 189.287,382.81 186.287,382.477 183.5,381.5 Z"/></g>
<g><path style="opacity:1" fill="#e1bce3" d="M 316.5,383.5 C 310.074,382.88 304.074,383.547 298.5,385.5C 297.596,384.791 297.263,383.791 297.5,382.5C 304.022,382.177 310.355,382.51 316.5,383.5 Z"/></g>
<g><path style="opacity:1" fill="#900299" d="M 224.5,383.5 C 230.206,383.171 235.872,383.505 241.5,384.5C 238.667,384.833 235.833,385.167 233,385.5C 229.748,385.481 226.915,384.814 224.5,383.5 Z"/></g>
<g><path style="opacity:1" fill="#900299" d="M 250.5,383.5 C 256.206,383.171 261.872,383.505 267.5,384.5C 264.667,384.833 261.833,385.167 259,385.5C 255.748,385.481 252.915,384.814 250.5,383.5 Z"/></g>
<g><path style="opacity:1" fill="#92079a" d="M 316.5,383.5 C 310.926,385.453 304.926,386.12 298.5,385.5C 304.074,383.547 310.074,382.88 316.5,383.5 Z"/></g>
<g><path style="opacity:1" fill="#900299" d="M 325.5,383.5 C 331.206,383.171 336.872,383.505 342.5,384.5C 339.667,384.833 336.833,385.167 334,385.5C 330.748,385.481 327.915,384.814 325.5,383.5 Z"/></g>
<g><path style="opacity:1" fill="#c881cc" d="M 441.5,377.5 C 442.477,380.287 442.81,383.287 442.5,386.5C 445.385,386.194 448.052,386.527 450.5,387.5C 447.5,387.5 444.5,387.5 441.5,387.5C 441.5,384.167 441.5,380.833 441.5,377.5 Z"/></g>
<g><path style="opacity:1" fill="#991ea0" d="M 224.5,387.5 C 230.206,387.171 235.872,387.505 241.5,388.5C 238.667,388.833 235.833,389.167 233,389.5C 229.748,389.481 226.915,388.814 224.5,387.5 Z"/></g>
<g><path style="opacity:1" fill="#9b25a2" d="M 297.5,387.5 C 303.868,387.17 310.202,387.504 316.5,388.5C 313.333,388.833 310.167,389.167 307,389.5C 303.424,389.485 300.258,388.818 297.5,387.5 Z"/></g>
<g><path style="opacity:1" fill="#991ea0" d="M 325.5,387.5 C 331.206,387.171 336.872,387.505 342.5,388.5C 339.667,388.833 336.833,389.167 334,389.5C 330.748,389.481 327.915,388.814 325.5,387.5 Z"/></g>
<g><path style="opacity:1" fill="#fcf8fc" d="M 438.5,418.5 C 439.261,417.609 440.261,416.942 441.5,416.5C 442.498,407.859 442.831,399.192 442.5,390.5C 446.106,390.211 449.606,390.544 453,391.5C 453.333,399.833 453.667,408.167 454,416.5C 456.123,416.966 457.623,418.133 458.5,420C 457.048,421.845 455.215,423.345 453,424.5C 452.505,426.473 452.338,428.473 452.5,430.5C 449.167,430.5 445.833,430.5 442.5,430.5C 443.274,426.225 441.774,423.225 438,421.5C 437.26,420.251 437.427,419.251 438.5,418.5 Z"/></g>
<g><path style="opacity:1" fill="#fefdfe" d="M 437.5,391.5 C 439.465,398.76 440.132,406.427 439.5,414.5C 432.876,418.073 432.876,421.74 439.5,425.5C 440.474,427.743 440.808,430.076 440.5,432.5C 441.873,432.343 443.207,432.51 444.5,433C 440.893,436.616 440.559,440.616 443.5,445C 450.609,447.522 454.109,445.022 454,437.5C 453.365,436.034 452.531,434.7 451.5,433.5C 452.325,432.614 453.325,432.281 454.5,432.5C 454.192,430.076 454.526,427.743 455.5,425.5C 460.714,423.571 461.714,420.404 458.5,416C 457.552,415.517 456.552,415.351 455.5,415.5C 455.334,407.493 455.5,399.493 456,391.5C 472.897,397.649 481.73,409.649 482.5,427.5C 481.466,447.034 471.466,459.201 452.5,464C 430.22,465.704 416.053,455.87 410,434.5C 407.67,412.688 416.837,398.354 437.5,391.5 Z"/></g>
<g><path style="opacity:1" fill="#ac47b1" d="M 224.5,395.5 C 230.167,395.5 235.833,395.5 241.5,395.5C 241.5,396.5 241.5,397.5 241.5,398.5C 235.833,398.5 230.167,398.5 224.5,398.5C 224.5,397.5 224.5,396.5 224.5,395.5 Z"/></g>
<g><path style="opacity:1" fill="#ac47b1" d="M 250.5,395.5 C 256.167,395.5 261.833,395.5 267.5,395.5C 267.5,396.5 267.5,397.5 267.5,398.5C 261.833,398.5 256.167,398.5 250.5,398.5C 250.5,397.5 250.5,396.5 250.5,395.5 Z"/></g>
<g><path style="opacity:1" fill="#af4db4" d="M 298.5,395.5 C 304.5,395.5 310.5,395.5 316.5,395.5C 316.5,396.5 316.5,397.5 316.5,398.5C 310.132,398.83 303.798,398.496 297.5,397.5C 297.863,396.817 298.196,396.15 298.5,395.5 Z"/></g>
<g><path style="opacity:1" fill="#a63dab" d="M 224.5,399.5 C 230.167,399.5 235.833,399.5 241.5,399.5C 241.5,400.5 241.5,401.5 241.5,402.5C 235.833,402.5 230.167,402.5 224.5,402.5C 224.5,401.5 224.5,400.5 224.5,399.5 Z"/></g>
<g><path style="opacity:1" fill="#a63dab" d="M 250.5,399.5 C 256.167,399.5 261.833,399.5 267.5,399.5C 267.5,400.5 267.5,401.5 267.5,402.5C 261.833,402.5 256.167,402.5 250.5,402.5C 250.5,401.5 250.5,400.5 250.5,399.5 Z"/></g>
<g><path style="opacity:1" fill="#9a20a1" d="M 298.5,399.5 C 304.926,398.88 310.926,399.547 316.5,401.5C 310.074,402.12 304.074,401.453 298.5,399.5 Z"/></g>
<g><path style="opacity:1" fill="#c57bc9" d="M 208.5,401.5 C 209.629,403.628 209.796,405.961 209,408.5C 208.59,407.099 208.09,405.766 207.5,404.5C 208.404,403.791 208.737,402.791 208.5,401.5 Z"/></g>
<g><path style="opacity:1" fill="#ca87ce" d="M 298.5,399.5 C 304.074,401.453 310.074,402.12 316.5,401.5C 310.355,402.49 304.022,402.823 297.5,402.5C 297.263,401.209 297.596,400.209 298.5,399.5 Z"/></g>
<g><path style="opacity:1" fill="#d9a9dc" d="M 437.5,391.5 C 438.209,390.596 439.209,390.263 440.5,390.5C 440.826,398.684 440.492,406.684 439.5,414.5C 440.132,406.427 439.465,398.76 437.5,391.5 Z"/></g>
<g><path style="opacity:1" fill="#e1bce3" d="M 316.5,404.5 C 310.074,403.88 304.074,404.547 298.5,406.5C 297.596,405.791 297.263,404.791 297.5,403.5C 304.022,403.177 310.355,403.51 316.5,404.5 Z"/></g>
<g><path style="opacity:1" fill="#900299" d="M 224.5,404.5 C 230.206,404.171 235.872,404.505 241.5,405.5C 238.667,405.833 235.833,406.167 233,406.5C 229.748,406.481 226.915,405.814 224.5,404.5 Z"/></g>
<g><path style="opacity:1" fill="#900299" d="M 250.5,404.5 C 256.206,404.171 261.872,404.505 267.5,405.5C 264.667,405.833 261.833,406.167 259,406.5C 255.748,406.481 252.915,405.814 250.5,404.5 Z"/></g>
<g><path style="opacity:1" fill="#92079a" d="M 316.5,404.5 C 310.926,406.453 304.926,407.12 298.5,406.5C 304.074,404.547 310.074,403.88 316.5,404.5 Z"/></g>
<g><path style="opacity:1" fill="#900299" d="M 325.5,404.5 C 331.206,404.171 336.872,404.505 342.5,405.5C 339.667,405.833 336.833,406.167 334,406.5C 330.748,406.481 327.915,405.814 325.5,404.5 Z"/></g>
<g><path style="opacity:1" fill="#c171c5" d="M 297.5,408.5 C 303.868,408.17 310.202,408.504 316.5,409.5C 313.333,409.833 310.167,410.167 307,410.5C 303.424,410.485 300.258,409.818 297.5,408.5 Z"/></g>
<g><path style="opacity:1" fill="#b556ba" d="M 224.5,408.5 C 230.206,408.171 235.872,408.505 241.5,409.5C 238.667,409.833 235.833,410.167 233,410.5C 229.748,410.481 226.915,409.814 224.5,408.5 Z"/></g>
<g><path style="opacity:1" fill="#b556ba" d="M 250.5,408.5 C 256.206,408.171 261.872,408.505 267.5,409.5C 264.667,409.833 261.833,410.167 259,410.5C 255.748,410.481 252.915,409.814 250.5,408.5 Z"/></g>
<g><path style="opacity:1" fill="#b556ba" d="M 325.5,408.5 C 331.206,408.171 336.872,408.505 342.5,409.5C 339.667,409.833 336.833,410.167 334,410.5C 330.748,410.481 327.915,409.814 325.5,408.5 Z"/></g>
<g><path style="opacity:1" fill="#900299" d="M 224.5,412.5 C 230.206,412.171 235.872,412.505 241.5,413.5C 238.667,413.833 235.833,414.167 233,414.5C 229.748,414.481 226.915,413.814 224.5,412.5 Z"/></g>
<g><path style="opacity:1" fill="#900299" d="M 250.5,412.5 C 256.206,412.171 261.872,412.505 267.5,413.5C 264.667,413.833 261.833,414.167 259,414.5C 255.748,414.481 252.915,413.814 250.5,412.5 Z"/></g>
<g><path style="opacity:1" fill="#92079a" d="M 298.5,412.5 C 304.926,411.88 310.926,412.547 316.5,414.5C 310.074,415.12 304.074,414.453 298.5,412.5 Z"/></g>
<g><path style="opacity:1" fill="#900299" d="M 325.5,412.5 C 331.206,412.171 336.872,412.505 342.5,413.5C 339.667,413.833 336.833,414.167 334,414.5C 330.748,414.481 327.915,413.814 325.5,412.5 Z"/></g>
<g><path style="opacity:1" fill="#e1bce3" d="M 298.5,412.5 C 304.074,414.453 310.074,415.12 316.5,414.5C 310.355,415.49 304.022,415.823 297.5,415.5C 297.263,414.209 297.596,413.209 298.5,412.5 Z"/></g>
<g><path style="opacity:1" fill="#ca8dcc" d="M 297.5,416.5 C 303.868,416.17 310.202,416.504 316.5,417.5C 313.333,417.833 310.167,418.167 307,418.5C 303.424,418.485 300.258,417.818 297.5,416.5 Z"/></g>
<g><path style="opacity:1" fill="#9f33a6" d="M 438.5,418.5 C 444.5,418.5 450.5,418.5 456.5,418.5C 456.5,419.5 456.5,420.5 456.5,421.5C 450.824,421.666 445.157,421.499 439.5,421C 438.748,420.329 438.414,419.496 438.5,418.5 Z"/></g>
<g><path style="opacity:1" fill="#a63dab" d="M 224.5,420.5 C 230.167,420.5 235.833,420.5 241.5,420.5C 241.5,421.5 241.5,422.5 241.5,423.5C 235.833,423.5 230.167,423.5 224.5,423.5C 224.5,422.5 224.5,421.5 224.5,420.5 Z"/></g>
<g><path style="opacity:1" fill="#a63dab" d="M 250.5,420.5 C 256.167,420.5 261.833,420.5 267.5,420.5C 267.5,421.5 267.5,422.5 267.5,423.5C 261.833,423.5 256.167,423.5 250.5,423.5C 250.5,422.5 250.5,421.5 250.5,420.5 Z"/></g>
<g><path style="opacity:1" fill="#9a20a1" d="M 298.5,420.5 C 304.926,419.88 310.926,420.547 316.5,422.5C 310.074,423.12 304.074,422.453 298.5,420.5 Z"/></g>
<g><path style="opacity:1" fill="#a63dab" d="M 325.5,420.5 C 331.167,420.5 336.833,420.5 342.5,420.5C 342.5,421.5 342.5,422.5 342.5,423.5C 336.833,423.5 331.167,423.5 325.5,423.5C 325.5,422.5 325.5,421.5 325.5,420.5 Z"/></g>
<g><path style="opacity:1" fill="#ca87ce" d="M 298.5,420.5 C 304.074,422.453 310.074,423.12 316.5,422.5C 310.355,423.49 304.022,423.823 297.5,423.5C 297.263,422.209 297.596,421.209 298.5,420.5 Z"/></g>
<g><path style="opacity:1" fill="#900299" d="M 224.5,425.5 C 230.206,425.171 235.872,425.505 241.5,426.5C 238.667,426.833 235.833,427.167 233,427.5C 229.748,427.481 226.915,426.814 224.5,425.5 Z"/></g>
<g><path style="opacity:1" fill="#900299" d="M 250.5,425.5 C 256.206,425.171 261.872,425.505 267.5,426.5C 264.667,426.833 261.833,427.167 259,427.5C 255.748,427.481 252.915,426.814 250.5,425.5 Z"/></g>
<g><path style="opacity:1" fill="#95159c" d="M 297.5,425.5 C 303.868,425.17 310.202,425.504 316.5,426.5C 313.333,426.833 310.167,427.167 307,427.5C 303.424,427.485 300.258,426.818 297.5,425.5 Z"/></g>
<g><path style="opacity:1" fill="#900299" d="M 325.5,425.5 C 331.206,425.171 336.872,425.505 342.5,426.5C 339.667,426.833 336.833,427.167 334,427.5C 330.748,427.481 327.915,426.814 325.5,425.5 Z"/></g>
<g><path style="opacity:1" fill="#ac47b1" d="M 224.5,428.5 C 230.167,428.5 235.833,428.5 241.5,428.5C 241.5,429.5 241.5,430.5 241.5,431.5C 235.833,431.5 230.167,431.5 224.5,431.5C 224.5,430.5 224.5,429.5 224.5,428.5 Z"/></g>
<g><path style="opacity:1" fill="#ac47b1" d="M 250.5,428.5 C 256.167,428.5 261.833,428.5 267.5,428.5C 267.5,429.5 267.5,430.5 267.5,431.5C 261.833,431.5 256.167,431.5 250.5,431.5C 250.5,430.5 250.5,429.5 250.5,428.5 Z"/></g>
<g><path style="opacity:1" fill="#af4db4" d="M 298.5,428.5 C 304.5,428.5 310.5,428.5 316.5,428.5C 316.5,429.5 316.5,430.5 316.5,431.5C 310.132,431.83 303.798,431.496 297.5,430.5C 297.863,429.817 298.196,429.15 298.5,428.5 Z"/></g>
<g><path style="opacity:1" fill="#ac47b1" d="M 325.5,428.5 C 331.167,428.5 336.833,428.5 342.5,428.5C 342.5,429.5 342.5,430.5 342.5,431.5C 336.833,431.5 331.167,431.5 325.5,431.5C 325.5,430.5 325.5,429.5 325.5,428.5 Z"/></g>
<g><path style="opacity:1" fill="#e1bce3" d="M 192.5,432.5 C 193.495,443.321 193.828,454.321 193.5,465.5C 196.833,465.5 200.167,465.5 203.5,465.5C 200.038,466.482 196.371,466.815 192.5,466.5C 192.5,455.167 192.5,443.833 192.5,432.5 Z"/></g>
<g><path style="opacity:1" fill="#900299" d="M 224.5,433.5 C 230.206,433.171 235.872,433.505 241.5,434.5C 238.667,434.833 235.833,435.167 233,435.5C 229.748,435.481 226.915,434.814 224.5,433.5 Z"/></g>
<g><path style="opacity:1" fill="#900299" d="M 250.5,433.5 C 256.206,433.171 261.872,433.505 267.5,434.5C 264.667,434.833 261.833,435.167 259,435.5C 255.748,435.481 252.915,434.814 250.5,433.5 Z"/></g>
<g><path style="opacity:1" fill="#92079a" d="M 298.5,433.5 C 304.926,432.88 310.926,433.547 316.5,435.5C 310.074,436.12 304.074,435.453 298.5,433.5 Z"/></g>
<g><path style="opacity:1" fill="#900299" d="M 325.5,433.5 C 331.206,433.171 336.872,433.505 342.5,434.5C 339.667,434.833 336.833,435.167 334,435.5C 330.748,435.481 327.915,434.814 325.5,433.5 Z"/></g>
<g><path style="opacity:1" fill="#e1bce3" d="M 298.5,433.5 C 304.074,435.453 310.074,436.12 316.5,435.5C 310.355,436.49 304.022,436.823 297.5,436.5C 297.263,435.209 297.596,434.209 298.5,433.5 Z"/></g>
<g><path style="opacity:1" fill="#fcf8fc" d="M 266.5,444.5 C 271.687,446.767 276.687,449.6 281.5,453C 277.594,454.434 273.594,454.767 269.5,454C 267.206,451.282 266.206,448.115 266.5,444.5 Z"/></g>
<g><path style="opacity:1" fill="#fcf7fc" d="M 302.5,445.5 C 303.649,445.791 304.316,446.624 304.5,448C 303.713,452.782 300.88,454.948 296,454.5C 293.409,454.435 290.909,453.935 288.5,453C 293.101,450.202 297.768,447.702 302.5,445.5 Z"/></g>
<g><path style="opacity:1" fill="#fefefe" d="M 138.5,461.5 C 138.389,462.117 138.056,462.617 137.5,463C 132.511,463.499 127.511,463.666 122.5,463.5C 122.5,461.5 122.5,459.5 122.5,457.5C 127.833,457.5 133.167,457.5 138.5,457.5C 138.5,458.833 138.5,460.167 138.5,461.5 Z"/></g>
<g><path style="opacity:1" fill="#fdfbfd" d="M 129.5,470.5 C 132.85,470.335 136.183,470.502 139.5,471C 174.991,498.399 215.324,514.066 260.5,518C 315.285,522.635 365.952,510.635 412.5,482C 416.731,478.488 421.064,475.155 425.5,472C 431.438,469.727 437.104,470.227 442.5,473.5C 450.135,483.283 457.135,493.449 463.5,504C 418.738,540.721 367.071,561.055 308.5,565C 234.376,569.559 168.042,549.559 109.5,505C 107.046,503.26 105.546,501.093 105,498.5C 113.061,488.948 121.227,479.615 129.5,470.5 Z"/></g>
<g><path style="opacity:1" fill="#9a23a1" d="M 130.5,476.5 C 132.103,476.312 133.437,476.812 134.5,478C 133.292,480.25 131.959,482.417 130.5,484.5C 130.833,484.833 131.167,485.167 131.5,485.5C 134.083,484.521 136.749,483.854 139.5,483.5C 141.286,483.696 142.619,484.529 143.5,486C 140.28,487.352 136.947,488.186 133.5,488.5C 133.08,493.958 132.08,499.291 130.5,504.5C 128.693,503.605 127.36,502.272 126.5,500.5C 127.795,497.284 128.462,493.951 128.5,490.5C 124.651,490.019 122.651,491.686 122.5,495.5C 120.335,495.884 118.668,495.217 117.5,493.5C 122.085,487.983 126.418,482.317 130.5,476.5 Z"/></g>
<g><path style="opacity:1" fill="#981d9f" d="M 434.5,480.5 C 436.635,480.147 437.968,480.98 438.5,483C 436.452,485.212 434.119,487.212 431.5,489C 432.071,490.205 432.738,491.372 433.5,492.5C 436.167,490.833 438.833,489.167 441.5,487.5C 442.262,488.628 442.929,489.795 443.5,491C 441.53,493.316 439.196,495.149 436.5,496.5C 437.861,498.028 439.028,499.695 440,501.5C 442.274,497.848 445.441,496.015 449.5,496C 450.022,496.561 450.355,497.228 450.5,498C 446.995,501 443.329,503.833 439.5,506.5C 435.688,504.183 433.188,500.85 432,496.5C 428.395,494.069 426.228,490.735 425.5,486.5C 429.565,486.103 432.565,484.103 434.5,480.5 Z"/></g>
<g><path style="opacity:1" fill="#9920a0" d="M 145.5,486.5 C 148.359,486.801 149.693,488.467 149.5,491.5C 148.667,495.486 148.501,499.486 149,503.5C 150.443,499.842 152.609,496.675 155.5,494C 156.965,493.399 157.965,493.899 158.5,495.5C 154.472,502.008 150.306,508.341 146,514.5C 143.472,513.803 142.306,512.136 142.5,509.5C 143.446,505.17 143.946,500.836 144,496.5C 142.699,500.482 140.533,503.982 137.5,507C 135.926,507.699 134.593,507.365 133.5,506C 138.153,499.859 142.153,493.359 145.5,486.5 Z"/></g>
<g><path style="opacity:1" fill="#971c9e" d="M 413.5,505.5 C 413.335,502.15 413.502,498.817 414,495.5C 418.016,490.449 422.183,490.282 426.5,495C 425.667,495.833 424.833,496.667 424,497.5C 422,494.833 420,494.833 418,497.5C 417.236,503.425 419.57,507.758 425,510.5C 425.873,510.265 426.707,509.931 427.5,509.5C 428.167,507.5 428.833,505.5 429.5,503.5C 430.167,503.167 430.833,502.833 431.5,502.5C 434.359,511.805 431.026,515.638 421.5,514C 418.601,511.271 415.934,508.438 413.5,505.5 Z"/></g>
<g><path style="opacity:1" fill="#981f9f" d="M 161.5,498.5 C 168.511,497.983 172.177,501.149 172.5,508C 172.018,515.483 168.185,520.316 161,522.5C 152.787,520.405 150.12,515.405 153,507.5C 155.362,503.973 158.196,500.973 161.5,498.5 Z"/></g>
<g><path style="opacity:1" fill="#9921a0" d="M 413.5,505.5 C 414.561,510.122 416.561,514.289 419.5,518C 418.902,519.301 417.902,520.135 416.5,520.5C 412.653,513.985 408.653,507.485 404.5,501C 405.354,499.978 406.354,499.145 407.5,498.5C 409.271,501.051 411.271,503.384 413.5,505.5 Z"/></g>
<g><path style="opacity:1" fill="#fcf8fc" d="M 162.5,503.5 C 166.338,503.007 168.338,504.674 168.5,508.5C 168.013,513.156 165.513,516.156 161,517.5C 158.273,516.939 156.773,515.273 156.5,512.5C 157.74,508.939 159.74,505.939 162.5,503.5 Z"/></g>
<g><path style="opacity:1" fill="#981d9f" d="M 175.5,504.5 C 176.708,505.234 178.041,505.567 179.5,505.5C 178.123,509.778 177.289,514.112 177,518.5C 179.5,515.333 182,512.167 184.5,509C 186.639,508.736 188.306,509.569 189.5,511.5C 187.695,515.69 186.862,520.023 187,524.5C 189.391,521.667 191.224,518.5 192.5,515C 194.37,513.436 196.37,513.436 198.5,515C 193.368,521.448 188.368,527.948 183.5,534.5C 181.545,533.72 180.545,532.22 180.5,530C 181.75,525.514 182.584,521.014 183,516.5C 181.008,520.995 178.175,524.828 174.5,528C 172.393,528.854 171.059,528.188 170.5,526C 171.73,518.715 173.397,511.548 175.5,504.5 Z"/></g>
<g><path style="opacity:1" fill="#fcf8fc" d="M 98.5,506.5 C 111.229,515.677 124.229,524.843 137.5,534C 136.654,536.18 135.154,537.68 133,538.5C 120.214,530.044 107.714,521.211 95.5,512C 96.1242,509.915 97.1242,508.082 98.5,506.5 Z"/></g>
<g><path style="opacity:1" fill="#9920a0" d="M 402.5,501.5 C 404.067,502.681 404.901,504.347 405,506.5C 406.658,512.446 407.658,518.446 408,524.5C 407,525.167 406,525.833 405,526.5C 401,522.5 397,518.5 393,514.5C 392.508,515.549 392.674,516.549 393.5,517.5C 392.696,518.941 392.029,520.441 391.5,522C 393.85,524.683 396.517,527.016 399.5,529C 398.335,530.084 397.002,530.917 395.5,531.5C 392.572,527.886 388.905,525.553 384.5,524.5C 384.647,527.443 385.313,530.276 386.5,533C 385.991,534.169 385.158,535.002 384,535.5C 380.978,528.622 377.812,521.789 374.5,515C 380.316,512.339 386.149,509.839 392,507.5C 395.645,511.145 399.312,514.812 403,518.5C 402.744,513.624 401.91,508.791 400.5,504C 401.056,502.989 401.722,502.156 402.5,501.5 Z"/></g>
<g><path style="opacity:1" fill="#fcf8fc" d="M 468.5,510.5 C 472.638,513.499 472.971,516.666 469.5,520C 457.646,527.864 445.813,535.697 434,543.5C 433.043,540.978 431.543,538.811 429.5,537C 443.395,529.336 456.395,520.503 468.5,510.5 Z"/></g>
<g><path style="opacity:1" fill="#faf3fa" d="M 384.5,514.5 C 386.635,514.147 387.968,514.98 388.5,517C 385.436,522.597 382.769,522.597 380.5,517C 381.858,516.066 383.192,515.232 384.5,514.5 Z"/></g>
<g><path style="opacity:1" fill="#9a23a1" d="M 199.5,514.5 C 201.132,514.825 202.132,515.825 202.5,517.5C 201.334,523.001 199.668,528.335 197.5,533.5C 199.971,535.071 202.637,536.071 205.5,536.5C 205.884,538.665 205.217,540.332 203.5,541.5C 199.686,539.562 195.686,538.229 191.5,537.5C 194.163,529.845 196.83,522.178 199.5,514.5 Z"/></g>
<g><path style="opacity:1" fill="#981f9f" d="M 372.5,514.5 C 374.3,515.895 374.634,517.561 373.5,519.5C 370.299,520.453 367.299,521.786 364.5,523.5C 364.919,524.672 365.585,525.672 366.5,526.5C 370.171,523.96 373.504,524.127 376.5,527C 373.657,528.783 370.657,530.283 367.5,531.5C 368.04,532.748 368.707,533.915 369.5,535C 372.547,535.092 375.547,534.592 378.5,533.5C 379.72,533.887 380.387,534.72 380.5,536C 376.942,538.609 372.942,540.443 368.5,541.5C 367.558,541.392 366.725,541.059 366,540.5C 364.535,533.604 362.368,526.938 359.5,520.5C 363.774,518.194 368.107,516.194 372.5,514.5 Z"/></g>
<g><path style="opacity:1" fill="#9b26a2" d="M 212.5,519.5 C 217.479,520.984 222.479,522.484 227.5,524C 226.929,525.205 226.262,526.372 225.5,527.5C 222.72,526.805 220.053,525.805 217.5,524.5C 215.429,525.786 215.096,527.453 216.5,529.5C 218.618,530.946 220.951,531.613 223.5,531.5C 223.853,533.635 223.02,534.968 221,535.5C 218.23,534.652 215.397,534.319 212.5,534.5C 212.215,536.288 212.548,537.955 213.5,539.5C 216.096,540.482 218.762,541.149 221.5,541.5C 221.778,543.346 221.111,544.68 219.5,545.5C 216.252,544.355 212.919,543.521 209.5,543C 208.484,542.481 207.818,541.647 207.5,540.5C 208.891,533.42 210.558,526.42 212.5,519.5 Z"/></g>
<g><path style="opacity:1" fill="#9920a0" d="M 349.5,521.5 C 353.91,520.623 357.243,522.123 359.5,526C 358.5,526.5 357.5,527 356.5,527.5C 353.608,524.728 350.941,524.894 348.5,528C 348.905,528.945 349.572,529.612 350.5,530C 357.143,528.985 361.476,531.651 363.5,538C 363.025,539.763 362.358,541.43 361.5,543C 359.129,543.735 356.795,544.568 354.5,545.5C 350.676,544.933 348.01,542.933 346.5,539.5C 347.736,538.643 349.069,537.977 350.5,537.5C 353.218,542.799 355.885,542.799 358.5,537.5C 358.023,536.522 357.357,535.689 356.5,535C 347.531,536.698 344.031,533.198 346,524.5C 347.145,523.364 348.312,522.364 349.5,521.5 Z"/></g>
<g><path style="opacity:1" fill="#9a24a1" d="M 228.5,524.5 C 239.485,523.652 243.985,528.652 242,539.5C 238.581,549.229 232.414,551.229 223.5,545.5C 225.788,538.638 227.455,531.638 228.5,524.5 Z"/></g>
<g><path style="opacity:1" fill="#981f9f" d="M 326.5,526.5 C 335.741,526.463 338.408,530.796 334.5,539.5C 336.452,542.16 338.452,544.826 340.5,547.5C 338.833,548.833 337.167,548.833 335.5,547.5C 333.545,543.87 330.545,541.87 326.5,541.5C 327.051,544.807 327.384,548.14 327.5,551.5C 325.876,551.64 324.71,550.973 324,549.5C 322.66,542.962 321.16,536.462 319.5,530C 321.548,528.168 323.881,527.001 326.5,526.5 Z"/></g>
<g><path style="opacity:1" fill="#9a25a1" d="M 250.5,527.5 C 257.206,526.962 260.873,529.962 261.5,536.5C 258.503,535.859 255.837,534.525 253.5,532.5C 251.813,532.76 250.313,533.427 249,534.5C 248.333,538.5 248.333,542.5 249,546.5C 251.064,547.591 253.231,547.758 255.5,547C 256.337,545.989 256.67,544.822 256.5,543.5C 255.167,543.5 253.833,543.5 252.5,543.5C 252.5,542.167 252.5,540.833 252.5,539.5C 255.545,539.508 258.545,539.841 261.5,540.5C 261.279,552.191 256.113,555.191 246,549.5C 241.558,540.834 243.058,533.5 250.5,527.5 Z"/></g>
<g><path style="opacity:1" fill="#fdfbfd" d="M 231.5,529.5 C 236.085,528.592 238.418,530.425 238.5,535C 239.068,541.732 236.068,544.566 229.5,543.5C 229.526,538.733 230.193,534.066 231.5,529.5 Z"/></g>
<g><path style="opacity:1" fill="#98209f" d="M 306.5,529.5 C 309.518,529.335 312.518,529.502 315.5,530C 322.167,537.667 322.167,545.333 315.5,553C 309.049,555.178 304.882,553.011 303,546.5C 300.331,540.003 301.497,534.337 306.5,529.5 Z"/></g>
<g><path style="opacity:1" fill="#95169d" d="M 265.5,529.5 C 269.452,530.196 273.452,530.696 277.5,531C 278.337,532.011 278.67,533.178 278.5,534.5C 275.167,534.5 271.833,534.5 268.5,534.5C 268.5,536.167 268.5,537.833 268.5,539.5C 271.5,539.5 274.5,539.5 277.5,539.5C 277.5,540.833 277.5,542.167 277.5,543.5C 274.167,543.5 270.833,543.5 267.5,543.5C 267.5,545.5 267.5,547.5 267.5,549.5C 270.833,549.5 274.167,549.5 277.5,549.5C 277.5,550.833 277.5,552.167 277.5,553.5C 272.833,553.5 268.167,553.5 263.5,553.5C 263.627,545.433 264.294,537.433 265.5,529.5 Z"/></g>
<g><path style="opacity:1" fill="#971d9f" d="M 287.5,530.5 C 291.514,530.334 295.514,530.501 299.5,531C 300.337,532.011 300.67,533.178 300.5,534.5C 297.5,534.5 294.5,534.5 291.5,534.5C 291.5,536.167 291.5,537.833 291.5,539.5C 293.857,539.337 296.19,539.503 298.5,540C 299.337,541.011 299.67,542.178 299.5,543.5C 296.833,543.5 294.167,543.5 291.5,543.5C 291.5,546.833 291.5,550.167 291.5,553.5C 290.167,553.5 288.833,553.5 287.5,553.5C 287.5,545.833 287.5,538.167 287.5,530.5 Z"/></g>
<g><path style="opacity:1" fill="#fcf8fc" d="M 326.5,531.5 C 328.977,531.051 330.977,531.717 332.5,533.5C 330.796,535.849 328.463,536.849 325.5,536.5C 325.366,534.708 325.699,533.042 326.5,531.5 Z"/></g>
<g><path style="opacity:1" fill="#fcf9fc" d="M 309.5,533.5 C 312.561,533.444 314.728,534.778 316,537.5C 316.929,541.244 316.429,544.744 314.5,548C 312.231,548.758 310.064,548.591 308,547.5C 306.633,543.3 306.133,538.967 306.5,534.5C 307.791,534.737 308.791,534.404 309.5,533.5 Z"/></g>
</svg>
