<?xml version="1.0" encoding="UTF-8"?>
<!DOCTYPE svg PUBLIC "-//W3C//DTD SVG 1.1//EN" "http://www.w3.org/Graphics/SVG/1.1/DTD/svg11.dtd">
<svg xmlns="http://www.w3.org/2000/svg" version="1.1" width="300px" height="290px" style="shape-rendering:geometricPrecision; text-rendering:geometricPrecision; image-rendering:optimizeQuality; fill-rule:evenodd; clip-rule:evenodd" xmlns:xlink="http://www.w3.org/1999/xlink">
<g><path style="opacity:0.539" fill="#b5aed5" d="M 129.5,-0.5 C 141.833,-0.5 154.167,-0.5 166.5,-0.5C 194.593,3.29173 220.093,13.6251 243,30.5C 243.667,80.1667 243.667,129.833 243,179.5C 228.053,226.309 196.053,251.309 147,254.5C 109.329,252.846 81.6626,235.512 64,202.5C 59.5602,194.282 56.2269,185.616 54,176.5C 53.3333,127.833 53.3333,79.1667 54,30.5C 76.6542,13.919 101.821,3.58564 129.5,-0.5 Z"/></g>
<g><path style="opacity:1" fill="#f0f1f6" d="M 239.5,181.5 C 237.973,181.573 236.973,180.906 236.5,179.5C 237.469,156.866 237.802,134.2 237.5,111.5C 178.5,111.5 119.5,111.5 60.5,111.5C 59.5064,120.652 59.1731,129.985 59.5,139.5C 58.5,139.5 57.5,139.5 56.5,139.5C 56.5,103.5 56.5,67.5 56.5,31.5C 104.463,-2.46656 155.796,-8.2999 210.5,14C 221.401,18.6958 231.567,24.5292 241,31.5C 241.667,80.5 241.667,129.5 241,178.5C 240.768,179.737 240.268,180.737 239.5,181.5 Z"/></g>
<g><path style="opacity:1" fill="#75bfa2" d="M 113.5,9.5 C 113.842,8.66175 114.508,8.32842 115.5,8.5C 115.833,8.5 116.167,8.5 116.5,8.5C 116.5,24.5 116.5,40.5 116.5,56.5C 136.66,57.4972 156.993,57.8305 177.5,57.5C 197.5,57.5 217.5,57.5 237.5,57.5C 178.5,58.8333 119.5,58.8333 60.5,57.5C 61.8333,57.5 63.1667,57.5 64.5,57.5C 68.5,57.5 72.5,57.5 76.5,57.5C 89.5,57.5 102.5,57.5 115.5,57.5C 116.151,41.1317 115.485,25.1317 113.5,9.5 Z"/></g>
<g><path style="opacity:1" fill="#039747" d="M 113.5,9.5 C 115.485,25.1317 116.151,41.1317 115.5,57.5C 102.5,57.5 89.5,57.5 76.5,57.5C 76.8319,47.4778 76.4985,37.4778 75.5,27.5C 71.8713,29.3001 68.3713,31.3001 65,33.5C 64.5003,41.4931 64.3336,49.4931 64.5,57.5C 63.1667,57.5 61.8333,57.5 60.5,57.5C 60.1834,48.9149 60.5168,40.4149 61.5,32C 77.4454,21.2959 94.7787,13.7959 113.5,9.5 Z"/></g>
<g><path style="opacity:1" fill="#60be8c" d="M 76.5,57.5 C 72.5,57.5 68.5,57.5 64.5,57.5C 64.3336,49.4931 64.5003,41.4931 65,33.5C 68.3713,31.3001 71.8713,29.3001 75.5,27.5C 76.4985,37.4778 76.8319,47.4778 76.5,57.5 Z"/></g>
<g><path style="opacity:1" fill="#029747" d="M 237.5,57.5 C 217.5,57.5 197.5,57.5 177.5,57.5C 177.5,41.1667 177.5,24.8333 177.5,8.5C 187.88,10.0941 197.88,12.9274 207.5,17C 217.421,21.6282 227.088,26.7948 236.5,32.5C 237.498,40.8068 237.831,49.1401 237.5,57.5 Z"/></g>
<g><path style="opacity:1" fill="#fbfbfb" d="M 166.5,6.5 C 169.36,7.2439 172.36,7.91057 175.5,8.5C 176.499,24.4861 176.833,40.4861 176.5,56.5C 156.5,56.5 136.5,56.5 116.5,56.5C 116.5,40.5 116.5,24.5 116.5,8.5C 133.066,5.46402 149.733,4.79735 166.5,6.5 Z"/></g>
<g><path style="opacity:1" fill="#82bfb5" d="M 166.5,6.5 C 149.733,4.79735 133.066,5.46402 116.5,8.5C 116.167,8.5 115.833,8.5 115.5,8.5C 120.882,6.57644 126.549,5.40977 132.5,5C 144.549,4.10918 156.549,4.44251 168.5,6C 167.906,6.46434 167.239,6.63101 166.5,6.5 Z"/></g>
<g><path style="opacity:1" fill="#3a3285" d="M 76.5,61.5 C 129.833,61.5 183.167,61.5 236.5,61.5C 236.5,75.8333 236.5,90.1667 236.5,104.5C 227.833,104.5 219.167,104.5 210.5,104.5C 210.665,101.15 210.498,97.8168 210,94.5C 207.04,89.4135 204.206,84.2469 201.5,79C 198.152,79.855 194.652,80.355 191,80.5C 185.11,79.7346 179.277,78.7346 173.5,77.5C 173.167,77.5 172.833,77.5 172.5,77.5C 172.5,77.1667 172.5,76.8333 172.5,76.5C 161.848,63.0052 148.514,59.8386 132.5,67C 128.288,69.7111 124.954,73.2111 122.5,77.5C 117.018,78.6053 111.518,79.6053 106,80.5C 102.647,80.4153 99.4806,79.9153 96.5,79C 92.7481,85.172 88.7481,91.172 84.5,97C 85.435,99.3806 85.7683,101.881 85.5,104.5C 82.5,104.5 79.5,104.5 76.5,104.5C 76.5,90.1667 76.5,75.8333 76.5,61.5 Z"/></g>
<g><path style="opacity:1" fill="#fadb0e" d="M 172.5,76.5 C 164.387,76.1139 156.387,76.7805 148.5,78.5C 147.833,78.5 147.167,78.5 146.5,78.5C 138.705,76.3167 130.705,75.9833 122.5,77.5C 124.954,73.2111 128.288,69.7111 132.5,67C 148.514,59.8386 161.848,63.0052 172.5,76.5 Z"/></g>
<g><path style="opacity:1" fill="#e9e9ea" d="M 146.5,78.5 C 143.028,78.1262 140.028,79.1262 137.5,81.5C 136.41,80.6086 136.41,79.6086 137.5,78.5C 135.955,77.5481 134.288,77.2148 132.5,77.5C 131.492,81.6918 129.992,85.6918 128,89.5C 126.759,91.4206 125.259,91.754 123.5,90.5C 125.096,86.2549 127.096,82.2549 129.5,78.5C 128.224,77.3554 126.891,77.3554 125.5,78.5C 122.495,84.5251 119.495,90.5251 116.5,96.5C 117.723,97.6139 119.056,97.7805 120.5,97C 120.966,94.8767 122.133,93.3767 124,92.5C 125.713,93.1374 125.879,94.1374 124.5,95.5C 125.723,96.6139 127.056,96.7805 128.5,96C 130.004,92.8159 131.504,89.6493 133,86.5C 134.378,84.7866 136.045,83.4533 138,82.5C 136.994,87.3916 135.16,92.0583 132.5,96.5C 133.723,97.6139 135.056,97.7805 136.5,97C 138,94.1667 140.167,92 143,90.5C 143.026,93.7409 141.859,96.5742 139.5,99C 141.909,100.707 144.575,101.54 147.5,101.5C 147.354,93.8044 147.687,86.1377 148.5,78.5C 156.387,76.7805 164.387,76.1139 172.5,76.5C 172.5,76.8333 172.5,77.1667 172.5,77.5C 167.489,77.3341 162.489,77.5007 157.5,78C 159.615,78.4244 160.448,79.5911 160,81.5C 157.975,79.3069 155.475,78.3069 152.5,78.5C 153.981,85.1576 156.647,91.3243 160.5,97C 161.944,97.7805 163.277,97.6139 164.5,96.5C 164.266,92.6968 165.599,92.5301 168.5,96C 172.517,96.6706 176.517,97.0039 180.5,97C 176.806,90.7363 174.473,84.2363 173.5,77.5C 179.277,78.7346 185.11,79.7346 191,80.5C 194.652,80.355 198.152,79.855 201.5,79C 204.206,84.2469 207.04,89.4135 210,94.5C 210.498,97.8168 210.665,101.15 210.5,104.5C 168.856,105.827 127.19,105.827 85.5,104.5C 85.7683,101.881 85.435,99.3806 84.5,97C 88.7481,91.172 92.7481,85.172 96.5,79C 99.4806,79.9153 102.647,80.4153 106,80.5C 111.518,79.6053 117.018,78.6053 122.5,77.5C 130.705,75.9833 138.705,76.3167 146.5,78.5 Z"/></g>
<g><path style="opacity:1" fill="#f9f9f9" d="M 146.5,78.5 C 147.167,78.5 147.833,78.5 148.5,78.5C 147.687,86.1377 147.354,93.8044 147.5,101.5C 144.575,101.54 141.909,100.707 139.5,99C 141.859,96.5742 143.026,93.7409 143,90.5C 140.167,92 138,94.1667 136.5,97C 135.056,97.7805 133.723,97.6139 132.5,96.5C 135.16,92.0583 136.994,87.3916 138,82.5C 136.045,83.4533 134.378,84.7866 133,86.5C 131.504,89.6493 130.004,92.8159 128.5,96C 127.056,96.7805 125.723,96.6139 124.5,95.5C 125.879,94.1374 125.713,93.1374 124,92.5C 122.133,93.3767 120.966,94.8767 120.5,97C 119.056,97.7805 117.723,97.6139 116.5,96.5C 119.495,90.5251 122.495,84.5251 125.5,78.5C 126.891,77.3554 128.224,77.3554 129.5,78.5C 127.096,82.2549 125.096,86.2549 123.5,90.5C 125.259,91.754 126.759,91.4206 128,89.5C 129.992,85.6918 131.492,81.6918 132.5,77.5C 134.288,77.2148 135.955,77.5481 137.5,78.5C 136.41,79.6086 136.41,80.6086 137.5,81.5C 140.028,79.1262 143.028,78.1262 146.5,78.5 Z"/></g>
<g><path style="opacity:1" fill="#f5f5f5" d="M 172.5,77.5 C 172.833,77.5 173.167,77.5 173.5,77.5C 174.473,84.2363 176.806,90.7363 180.5,97C 176.517,97.0039 172.517,96.6706 168.5,96C 165.599,92.5301 164.266,92.6968 164.5,96.5C 163.277,97.6139 161.944,97.7805 160.5,97C 156.647,91.3243 153.981,85.1576 152.5,78.5C 155.475,78.3069 157.975,79.3069 160,81.5C 160.448,79.5911 159.615,78.4244 157.5,78C 162.489,77.5007 167.489,77.3341 172.5,77.5 Z"/></g>
<g><path style="opacity:1" fill="#716ca8" d="M 61.5,61.5 C 61.5,75.8333 61.5,90.1667 61.5,104.5C 62.5,104.5 63.5,104.5 64.5,104.5C 64.5,90.1667 64.5,75.8333 64.5,61.5C 68.5,61.5 72.5,61.5 76.5,61.5C 76.5,75.8333 76.5,90.1667 76.5,104.5C 79.5,104.5 82.5,104.5 85.5,104.5C 77.3501,105.493 69.0168,105.826 60.5,105.5C 60.1707,90.6572 60.504,75.9905 61.5,61.5 Z"/></g>
<g><path style="opacity:1" fill="#393185" d="M 61.5,61.5 C 62.5,61.5 63.5,61.5 64.5,61.5C 64.5,75.8333 64.5,90.1667 64.5,104.5C 63.5,104.5 62.5,104.5 61.5,104.5C 61.5,90.1667 61.5,75.8333 61.5,61.5 Z"/></g>
<g><path style="opacity:1" fill="#c6c4e1" d="M 60.5,111.5 C 119.5,111.5 178.5,111.5 237.5,111.5C 237.802,134.2 237.469,156.866 236.5,179.5C 236.167,179.5 235.833,179.5 235.5,179.5C 235.5,178.167 235.5,176.833 235.5,175.5C 236.497,155.007 236.831,134.34 236.5,113.5C 178.336,112.501 120.002,112.168 61.5,112.5C 61.5,129.5 61.5,146.5 61.5,163.5C 61.5,167.833 61.5,172.167 61.5,176.5C 60.5027,155.006 60.1693,133.34 60.5,111.5 Z"/></g>
<g><path style="opacity:1" fill="#56bfec" d="M 236.5,113.5 C 232.833,113.5 229.167,113.5 225.5,113.5C 194.832,113.333 164.165,113.5 133.5,114C 114.954,123.106 96.2877,131.94 77.5,140.5C 76.8333,150.5 76.1667,160.5 75.5,170.5C 73.1195,171.794 70.6195,172.794 68,173.5C 67.0546,173.095 66.3879,172.428 66,171.5C 65.3554,168.441 64.522,165.441 63.5,162.5C 62.8165,162.863 62.1499,163.196 61.5,163.5C 61.5,146.5 61.5,129.5 61.5,112.5C 120.002,112.168 178.336,112.501 236.5,113.5 Z"/></g>
<g><path style="opacity:1" fill="#21abe6" d="M 225.5,113.5 C 229.167,113.5 232.833,113.5 236.5,113.5C 236.831,134.34 236.497,155.007 235.5,175.5C 235.666,166.494 235.5,157.494 235,148.5C 222.309,159.265 208.143,167.598 192.5,173.5C 192.666,167.824 192.499,162.157 192,156.5C 186.618,149.958 181.452,143.291 176.5,136.5C 193.284,129.606 209.618,121.939 225.5,113.5 Z"/></g>
<g><path style="opacity:1" fill="#36b4e9" d="M 225.5,113.5 C 209.618,121.939 193.284,129.606 176.5,136.5C 174.157,133.793 171.823,131.126 169.5,128.5C 169.315,126.804 168.481,125.471 167,124.5C 164.934,131.532 162.767,138.532 160.5,145.5C 134.491,157.838 108.491,170.171 82.5,182.5C 81.548,183.533 81.548,184.7 82.5,186C 82.1639,187.03 81.4972,187.53 80.5,187.5C 74.2337,185.365 68.2337,182.699 62.5,179.5C 62.7373,178.209 62.404,177.209 61.5,176.5C 61.5,172.167 61.5,167.833 61.5,163.5C 62.1499,163.196 62.8165,162.863 63.5,162.5C 64.522,165.441 65.3554,168.441 66,171.5C 66.3879,172.428 67.0546,173.095 68,173.5C 70.6195,172.794 73.1195,171.794 75.5,170.5C 76.1667,160.5 76.8333,150.5 77.5,140.5C 96.2877,131.94 114.954,123.106 133.5,114C 164.165,113.5 194.832,113.333 225.5,113.5 Z"/></g>
<g><path style="opacity:1" fill="#f7f7f9" d="M 169.5,128.5 C 176.605,138.781 183.938,148.947 191.5,159C 183.713,167.419 176.047,175.919 168.5,184.5C 167.34,166.241 167.174,147.241 168,127.5C 168.383,128.056 168.883,128.389 169.5,128.5 Z"/></g>
<g><path style="opacity:1" fill="#24ade7" d="M 160.5,145.5 C 155.5,160.167 150.5,174.833 145.5,189.5C 127.91,192.701 110.243,193.201 92.5,191C 88.2915,190.119 84.2915,188.953 80.5,187.5C 81.4972,187.53 82.1639,187.03 82.5,186C 81.548,184.7 81.548,183.533 82.5,182.5C 108.491,170.171 134.491,157.838 160.5,145.5 Z"/></g>
<g><path style="opacity:1" fill="#079fe2" d="M 235.5,175.5 C 235.5,176.833 235.5,178.167 235.5,179.5C 228.674,197.843 218.007,213.677 203.5,227C 198.112,231.023 192.446,234.523 186.5,237.5C 185.193,236.847 183.86,236.18 182.5,235.5C 179.916,236.393 177.249,236.726 174.5,236.5C 178.426,233.193 182.76,230.36 187.5,228C 189.833,225 192.167,222 194.5,219C 192.177,219.306 189.844,219.972 187.5,221C 180.833,221.667 174.167,221.667 167.5,221C 175.167,214.5 182.833,208 190.5,201.5C 191.82,193.343 191.82,185.343 190.5,177.5C 190.194,174.615 190.527,171.948 191.5,169.5C 191.146,171.767 191.479,173.101 192.5,173.5C 208.143,167.598 222.309,159.265 235,148.5C 235.5,157.494 235.666,166.494 235.5,175.5 Z"/></g>
<g><path style="opacity:0.913" fill="#393185" d="M 26.5,187.5 C 19.7466,190.869 13.7466,195.202 8.5,200.5C 6.92267,196.758 5.756,192.758 5,188.5C 3.64294,185.102 1.80961,182.102 -0.5,179.5C -0.5,178.5 -0.5,177.5 -0.5,176.5C 4.10032,178.591 8.60032,180.924 13,183.5C 16.817,181.665 17.4837,178.998 15,175.5C 13.6487,173.981 12.1487,172.648 10.5,171.5C 24.0761,168.409 29.4095,173.743 26.5,187.5 Z"/></g>
<g><path style="opacity:0.918" fill="#383184" d="M 299.5,180.5 C 299.5,181.167 299.5,181.833 299.5,182.5C 296.599,183.536 294.099,185.203 292,187.5C 290.424,192.614 288.924,197.614 287.5,202.5C 281.142,198.991 274.476,195.991 267.5,193.5C 268.289,192.085 268.956,190.585 269.5,189C 265.535,178.939 269.035,173.439 280,172.5C 281.167,172.833 282.333,173.167 283.5,173.5C 280.812,175.546 279.145,178.213 278.5,181.5C 278.09,184.255 279.256,185.588 282,185.5C 285.514,184.324 288.681,182.491 291.5,180C 294.221,179.398 296.887,179.565 299.5,180.5 Z"/></g>
<g><path style="opacity:1" fill="#4e4b95" d="M 169.5,128.5 C 171.823,131.126 174.157,133.793 176.5,136.5C 181.452,143.291 186.618,149.958 192,156.5C 192.499,162.157 192.666,167.824 192.5,173.5C 191.479,173.101 191.146,171.767 191.5,169.5C 191.663,167.143 191.497,164.81 191,162.5C 184.156,179.562 176.656,196.228 168.5,212.5C 168.565,212.062 168.399,211.728 168,211.5C 167.066,212.858 166.232,214.192 165.5,215.5C 165.826,207.316 165.492,199.316 164.5,191.5C 165.167,190.167 166.167,189.167 167.5,188.5C 167.334,195.841 167.5,203.174 168,210.5C 174.948,195.955 181.281,181.288 187,166.5C 181.301,173.03 175.467,179.363 169.5,185.5C 169.5,184.833 169.167,184.5 168.5,184.5C 176.047,175.919 183.713,167.419 191.5,159C 183.938,148.947 176.605,138.781 169.5,128.5 Z"/></g>
<g><path style="opacity:1" fill="#e4e2ed" d="M 167.5,188.5 C 168.167,187.5 168.833,186.5 169.5,185.5C 175.467,179.363 181.301,173.03 187,166.5C 181.281,181.288 174.948,195.955 168,210.5C 167.5,203.174 167.334,195.841 167.5,188.5 Z"/></g>
<g><path style="opacity:1" fill="#e4e2ed" d="M 191.5,169.5 C 190.527,171.948 190.194,174.615 190.5,177.5C 189.959,185.158 189.459,192.825 189,200.5C 182.411,205.211 175.911,210.045 169.5,215C 168.833,215.667 168.167,215.667 167.5,215C 168.252,214.329 168.586,213.496 168.5,212.5C 176.656,196.228 184.156,179.562 191,162.5C 191.497,164.81 191.663,167.143 191.5,169.5 Z"/></g>
<g><path style="opacity:1" fill="#4958a1" d="M 26.5,187.5 C 28.5248,189.196 30.5248,190.863 32.5,192.5C 25.1881,195.824 18.5215,200.157 12.5,205.5C 10.4131,204.415 9.07978,202.749 8.5,200.5C 13.7466,195.202 19.7466,190.869 26.5,187.5 Z"/></g>
<g><path style="opacity:0.978" fill="#3a3386" d="M 38.5,196.5 C 40.7488,197.08 42.4154,198.413 43.5,200.5C 37.5118,203.787 31.1785,206.621 24.5,209C 25.2524,209.671 25.5858,210.504 25.5,211.5C 22.6224,212.783 21.9557,211.95 23.5,209C 23.3613,207.699 22.6946,206.866 21.5,206.5C 26.6649,202.414 32.3315,199.08 38.5,196.5 Z"/></g>
<g><path style="opacity:1" fill="#38388a" d="M 169.5,128.5 C 168.883,128.389 168.383,128.056 168,127.5C 167.174,147.241 167.34,166.241 168.5,184.5C 169.167,184.5 169.5,184.833 169.5,185.5C 168.833,186.5 168.167,187.5 167.5,188.5C 166.167,189.167 165.167,190.167 164.5,191.5C 155.706,201.463 146.706,211.296 137.5,221C 146.186,221.832 154.853,221.665 163.5,220.5C 164.456,218.925 165.123,217.258 165.5,215.5C 166.232,214.192 167.066,212.858 168,211.5C 168.399,211.728 168.565,212.062 168.5,212.5C 168.586,213.496 168.252,214.329 167.5,215C 168.167,215.667 168.833,215.667 169.5,215C 175.911,210.045 182.411,205.211 189,200.5C 189.459,192.825 189.959,185.158 190.5,177.5C 191.82,185.343 191.82,193.343 190.5,201.5C 182.833,208 175.167,214.5 167.5,221C 174.167,221.667 180.833,221.667 187.5,221C 189.844,219.972 192.177,219.306 194.5,219C 192.167,222 189.833,225 187.5,228C 182.76,230.36 178.426,233.193 174.5,236.5C 162.796,236.77 151.129,236.436 139.5,235.5C 133.491,235.666 127.491,235.499 121.5,235C 119.167,233.167 116.833,231.333 114.5,229.5C 113.081,231.336 111.914,233.336 111,235.5C 110.748,233.069 111.248,230.735 112.5,228.5C 109.979,225.146 106.979,222.312 103.5,220C 104.953,213.26 107.12,206.76 110,200.5C 111.728,196.824 114.061,196.491 117,199.5C 117.667,200.833 117.667,202.167 117,203.5C 115.764,204.399 114.93,205.566 114.5,207C 116.634,208.673 118.134,210.84 119,213.5C 121.588,209.326 123.921,204.993 126,200.5C 126.654,199.304 127.154,199.304 127.5,200.5C 125,205.5 122.5,210.5 120,215.5C 119.251,216.635 119.417,217.635 120.5,218.5C 124.992,221.224 129.992,222.224 135.5,221.5C 138.631,210.773 141.964,200.106 145.5,189.5C 150.5,174.833 155.5,160.167 160.5,145.5C 162.767,138.532 164.934,131.532 167,124.5C 168.481,125.471 169.315,126.804 169.5,128.5 Z"/></g>
<g><path style="opacity:1" fill="#19a3e2" d="M 165.5,134.5 C 166.662,151.995 166.829,169.662 166,187.5C 157.333,196.833 148.667,206.167 140,215.5C 148.173,188.478 156.673,161.478 165.5,134.5 Z"/></g>
<g><path style="opacity:1" fill="#434b98" d="M 267.5,193.5 C 274.476,195.991 281.142,198.991 287.5,202.5C 287.167,204.833 285.833,206.167 283.5,206.5C 281.801,206.66 280.134,206.494 278.5,206C 273.448,202.814 268.448,199.647 263.5,196.5C 264.795,195.512 266.128,194.512 267.5,193.5 Z"/></g>
<g><path style="opacity:1" fill="#587ebd" d="M 32.5,192.5 C 35.267,192.87 37.267,194.204 38.5,196.5C 32.3315,199.08 26.6649,202.414 21.5,206.5C 18.4552,206.492 15.4552,206.159 12.5,205.5C 18.5215,200.157 25.1881,195.824 32.5,192.5 Z"/></g>
<g><path style="opacity:0.967" fill="#393286" d="M 255.5,200.5 C 262.567,202.739 269.234,205.739 275.5,209.5C 274.29,209.932 273.29,210.599 272.5,211.5C 265.406,210.643 258.406,209.31 251.5,207.5C 251.571,204.348 252.905,202.014 255.5,200.5 Z"/></g>
<g><path style="opacity:0.473" fill="#5980bf" d="M 263.5,196.5 C 268.448,199.647 273.448,202.814 278.5,206C 280.134,206.494 281.801,206.66 283.5,206.5C 281.302,208.397 278.636,209.397 275.5,209.5C 269.234,205.739 262.567,202.739 255.5,200.5C 254.711,200.217 254.044,199.717 253.5,199C 256.852,198.162 260.185,197.329 263.5,196.5 Z"/></g>
<g><path style="opacity:1" fill="#5871b1" d="M 43.5,200.5 C 46.142,200.488 47.4754,201.821 47.5,204.5C 47.5299,205.497 47.0299,206.164 46,206.5C 39.7267,208.945 33.56,211.612 27.5,214.5C 26.5987,213.71 25.9321,212.71 25.5,211.5C 25.5858,210.504 25.2524,209.671 24.5,209C 31.1785,206.621 37.5118,203.787 43.5,200.5 Z"/></g>
<g><path style="opacity:0.867" fill="#35408f" d="M 251.5,207.5 C 258.406,209.31 265.406,210.643 272.5,211.5C 274.085,212.002 274.585,213.002 274,214.5C 255.37,243.206 230.537,264.539 199.5,278.5C 198.761,278.631 198.094,278.464 197.5,278C 198.823,277.184 199.489,276.017 199.5,274.5C 199.833,274.5 200.167,274.5 200.5,274.5C 201.778,274.218 202.778,273.551 203.5,272.5C 206.538,271.958 208.038,270.291 208,267.5C 207,268.167 206,268.833 205,269.5C 203.354,267.391 202.188,265.057 201.5,262.5C 201.179,260.952 200.179,260.285 198.5,260.5C 199.291,258.309 199.291,256.309 198.5,254.5C 219.537,242.805 237.204,227.139 251.5,207.5 Z"/></g>
<g><path style="opacity:1" fill="#dddcea" d="M 245.5,223.5 C 248.888,224.619 251.721,226.619 254,229.5C 254.749,230.635 254.583,231.635 253.5,232.5C 246.89,229.447 246.223,230.113 251.5,234.5C 251,234.833 250.5,235.167 250,235.5C 247.032,233.369 244.199,231.036 241.5,228.5C 241.833,227.5 242.5,226.833 243.5,226.5C 245.078,227.64 246.744,228.14 248.5,228C 246.859,226.871 245.859,225.371 245.5,223.5 Z"/></g>
<g><path style="opacity:1" fill="#ecebf3" d="M 254.5,217.5 C 253.665,218.943 252.332,219.943 250.5,220.5C 252.042,223.796 254.376,225.129 257.5,224.5C 255.942,222.595 256.275,221.761 258.5,222C 260.323,226.846 258.656,228.512 253.5,227C 252,225.5 250.5,224 249,222.5C 248.658,218.68 250.491,217.014 254.5,217.5 Z"/></g>
<g><path style="opacity:1" fill="#e3e2ee" d="M 254.5,217.5 C 252.581,214.884 253.247,212.55 256.5,210.5C 256.669,212.117 257.003,213.784 257.5,215.5C 258.478,215.023 259.311,214.357 260,213.5C 258.933,218.263 260.433,219.263 264.5,216.5C 265.047,218.712 264.047,220.379 261.5,221.5C 259.132,220.111 256.799,218.778 254.5,217.5 Z"/></g>
<g><path style="opacity:0.923" fill="#363d8e" d="M 47.5,204.5 C 56.2959,219.965 67.6293,233.298 81.5,244.5C 79.993,246.633 78.6597,248.967 77.5,251.5C 75.9748,254.563 73.9748,257.23 71.5,259.5C 72.0527,261.552 73.0527,261.885 74.5,260.5C 75.1667,260.5 75.5,260.833 75.5,261.5C 75.33,262.822 75.6634,263.989 76.5,265C 78.4025,265.199 79.9025,266.033 81,267.5C 81.7172,266.956 82.2172,266.289 82.5,265.5C 83.1667,265.5 83.5,265.833 83.5,266.5C 83.5,267.5 83.5,268.5 83.5,269.5C 84.4408,271.05 85.1075,272.716 85.5,274.5C 59.6909,260.692 40.3575,240.692 27.5,214.5C 33.56,211.612 39.7267,208.945 46,206.5C 47.0299,206.164 47.5299,205.497 47.5,204.5 Z"/></g>
<g><path style="opacity:1" fill="#e3e3ee" d="M 51.5,226.5 C 55.2049,227.378 56.7049,229.711 56,233.5C 53.2553,234.952 50.9219,236.952 49,239.5C 47.0155,237.765 47.3488,236.432 50,235.5C 50.7494,234.365 50.5827,233.365 49.5,232.5C 47.8306,233.89 46.1639,234.223 44.5,233.5C 47.0602,231.388 49.3936,229.055 51.5,226.5 Z"/></g>
<g><path style="opacity:1" fill="#4a4893" d="M 51.5,229.5 C 54.9571,229.667 55.2904,230.667 52.5,232.5C 51.6143,231.675 51.281,230.675 51.5,229.5 Z"/></g>
<g><path style="opacity:1" fill="#e3e2ee" d="M 46.5,219.5 C 50.1646,219.817 51.6646,221.817 51,225.5C 48.7198,229.059 45.5531,230.559 41.5,230C 39.6751,228.534 39.1751,226.701 40,224.5C 42.3256,222.934 44.4922,221.268 46.5,219.5 Z"/></g>
<g><path style="opacity:1" fill="#4c4490" d="M 45.5,222.5 C 46.9778,222.238 48.3112,222.571 49.5,223.5C 47.9095,225.633 45.9095,227.299 43.5,228.5C 42.6919,228.192 42.0253,227.692 41.5,227C 43.0414,225.629 44.3747,224.129 45.5,222.5 Z"/></g>
<g><path style="opacity:1" fill="#e4e2ee" d="M 42.5,213.5 C 46.054,213.658 47.3873,215.325 46.5,218.5C 45.2011,217.91 44.3678,216.91 44,215.5C 42.8595,217.078 42.3595,218.744 42.5,220.5C 41.5,219.833 40.5,219.167 39.5,218.5C 37.9065,220.66 36.2399,220.827 34.5,219C 37.4068,217.391 40.0734,215.558 42.5,213.5 Z"/></g>
<g><path style="opacity:1" fill="#eeeff5" d="M 233.5,236.5 C 236.899,238.388 239.899,240.888 242.5,244C 242,244.5 241.5,245 241,245.5C 237.888,242.899 235.388,239.899 233.5,236.5 Z"/></g>
<g><path style="opacity:1" fill="#e5e5ef" d="M 238.5,231.5 C 242.432,232.468 245.766,234.468 248.5,237.5C 247.609,238.59 246.609,238.59 245.5,237.5C 244.833,239.167 244.167,240.833 243.5,242.5C 241.252,239.672 239.252,236.672 237.5,233.5C 237.863,232.817 238.196,232.15 238.5,231.5 Z"/></g>
<g><path style="opacity:1" fill="#e5e5f0" d="M 59.5,236.5 C 62.0842,236.569 64.0842,237.735 65.5,240C 65,240.5 64.5,241 64,241.5C 62.7592,239.579 61.2592,239.246 59.5,240.5C 59.9767,241.478 60.6433,242.311 61.5,243C 59.8925,242.981 58.2259,242.815 56.5,242.5C 56.2965,244.39 56.9632,245.89 58.5,247C 58,247.5 57.5,248 57,248.5C 55.437,247.275 54.2703,245.775 53.5,244C 55.3198,241.348 57.3198,238.848 59.5,236.5 Z"/></g>
<g><path style="opacity:1" fill="#dcdaed" d="M 56.5,31.5 C 56.5,67.5 56.5,103.5 56.5,139.5C 57.5,139.5 58.5,139.5 59.5,139.5C 59.1731,129.985 59.5064,120.652 60.5,111.5C 60.1693,133.34 60.5027,155.006 61.5,176.5C 62.404,177.209 62.7373,178.209 62.5,179.5C 69.4757,203.292 83.1424,222.125 103.5,236C 110.506,240.005 117.839,243.171 125.5,245.5C 139.838,249.526 154.171,249.359 168.5,245C 167.304,244.346 167.304,243.846 168.5,243.5C 169.167,243.833 169.833,244.167 170.5,244.5C 175.514,243.06 180.181,241.06 184.5,238.5C 185.492,238.672 186.158,238.338 186.5,237.5C 192.446,234.523 198.112,231.023 203.5,227C 218.007,213.677 228.674,197.843 235.5,179.5C 235.833,179.5 236.167,179.5 236.5,179.5C 236.973,180.906 237.973,181.573 239.5,181.5C 226.305,222.521 198.305,246.021 155.5,252C 118.304,254.32 89.8041,239.82 70,208.5C 63.9839,198.789 59.3172,188.455 56,177.5C 55.1684,128.665 55.335,79.9983 56.5,31.5 Z"/></g>
<g><path style="opacity:1" fill="#54b5e9" d="M 132.5,238.5 C 150.114,239.588 167.448,239.588 184.5,238.5C 180.181,241.06 175.514,243.06 170.5,244.5C 169.833,244.167 169.167,243.833 168.5,243.5C 167.304,243.846 167.304,244.346 168.5,245C 154.171,249.359 139.838,249.526 125.5,245.5C 124.284,243.549 122.618,242.049 120.5,241C 121.549,240.508 122.549,240.674 123.5,241.5C 125.167,240.5 126.5,239.167 127.5,237.5C 129.071,238.309 130.738,238.643 132.5,238.5 Z"/></g>
<g><path style="opacity:1" fill="#89d0f2" d="M 139.5,235.5 C 151.129,236.436 162.796,236.77 174.5,236.5C 177.249,236.726 179.916,236.393 182.5,235.5C 183.86,236.18 185.193,236.847 186.5,237.5C 186.158,238.338 185.492,238.672 184.5,238.5C 167.448,239.588 150.114,239.588 132.5,238.5C 134.691,237.131 137.025,236.131 139.5,235.5 Z"/></g>
<g><path style="opacity:1" fill="#019ee1" d="M 164.5,191.5 C 165.492,199.316 165.826,207.316 165.5,215.5C 165.123,217.258 164.456,218.925 163.5,220.5C 154.853,221.665 146.186,221.832 137.5,221C 146.706,211.296 155.706,201.463 164.5,191.5 Z"/></g>
<g><path style="opacity:1" fill="#089fe2" d="M 62.5,179.5 C 68.2337,182.699 74.2337,185.365 80.5,187.5C 84.2915,188.953 88.2915,190.119 92.5,191C 110.243,193.201 127.91,192.701 145.5,189.5C 141.964,200.106 138.631,210.773 135.5,221.5C 129.992,222.224 124.992,221.224 120.5,218.5C 119.417,217.635 119.251,216.635 120,215.5C 122.5,210.5 125,205.5 127.5,200.5C 127.154,199.304 126.654,199.304 126,200.5C 123.921,204.993 121.588,209.326 119,213.5C 118.134,210.84 116.634,208.673 114.5,207C 114.93,205.566 115.764,204.399 117,203.5C 117.667,202.167 117.667,200.833 117,199.5C 114.061,196.491 111.728,196.824 110,200.5C 107.12,206.76 104.953,213.26 103.5,220C 106.979,222.312 109.979,225.146 112.5,228.5C 111.248,230.735 110.748,233.069 111,235.5C 111.914,233.336 113.081,231.336 114.5,229.5C 116.833,231.333 119.167,233.167 121.5,235C 127.491,235.499 133.491,235.666 139.5,235.5C 137.025,236.131 134.691,237.131 132.5,238.5C 130.738,238.643 129.071,238.309 127.5,237.5C 126.5,239.167 125.167,240.5 123.5,241.5C 122.549,240.674 121.549,240.508 120.5,241C 122.618,242.049 124.284,243.549 125.5,245.5C 117.839,243.171 110.506,240.005 103.5,236C 83.1424,222.125 69.4757,203.292 62.5,179.5 Z"/></g>
<g><path style="opacity:1" fill="#e0e1ed" d="M 65.5,241.5 C 66.4972,241.47 67.1639,241.97 67.5,243C 65.8779,248.174 66.7112,248.674 70,244.5C 70.5,245 71,245.5 71.5,246C 69.3547,249.312 66.688,252.146 63.5,254.5C 63.1667,253.833 62.8333,253.167 62.5,252.5C 65.7,246.337 65.0334,245.504 60.5,250C 59.6683,250.688 59.0016,250.521 58.5,249.5C 60.8558,246.814 63.1891,244.147 65.5,241.5 Z"/></g>
<g><path style="opacity:1" fill="#e6e7f0" d="M 227.5,242.5 C 228.251,241.427 229.251,241.26 230.5,242C 232.293,243.78 233.96,245.613 235.5,247.5C 236.5,246.833 237.5,246.167 238.5,245.5C 239.047,247.712 238.047,249.379 235.5,250.5C 232.452,248.118 229.785,245.452 227.5,242.5 Z"/></g>
<g><path style="opacity:1" fill="#e3e5f0" d="M 225.5,243.5 C 226.376,243.369 227.043,243.702 227.5,244.5C 226.833,245.5 226.167,246.5 225.5,247.5C 225.833,247.833 226.167,248.167 226.5,248.5C 227.768,247.572 229.101,247.405 230.5,248C 228.963,249.11 228.297,250.61 228.5,252.5C 230.39,252.703 231.89,252.037 233,250.5C 233.749,251.635 233.583,252.635 232.5,253.5C 231.38,254.833 230.047,255.333 228.5,255C 226.251,252.495 224.251,249.828 222.5,247C 223.544,245.826 224.544,244.659 225.5,243.5 Z"/></g>
<g><path style="opacity:1" fill="#dee0ed" d="M 217.5,249.5 C 219.288,249.215 220.955,249.548 222.5,250.5C 224.167,252.667 225.833,254.833 227.5,257C 226.01,258.634 224.676,258.301 223.5,256C 222.365,255.251 221.365,255.417 220.5,256.5C 221.313,257.814 222.313,258.981 223.5,260C 223,260.5 222.5,261 222,261.5C 219.5,258.5 217,255.5 214.5,252.5C 215.77,251.712 216.77,250.712 217.5,249.5 Z"/></g>
<g><path style="opacity:1" fill="#3b4e99" d="M 217.5,251.5 C 218.5,251.5 219.5,251.5 220.5,251.5C 219.754,255.31 218.754,255.31 217.5,251.5 Z"/></g>
<g><path style="opacity:1" fill="#dee0ec" d="M 71.5,259.5 C 68.7277,259.405 66.7277,258.071 65.5,255.5C 67.8854,252.618 70.3854,249.951 73,247.5C 74.2575,247.85 74.5908,248.517 74,249.5C 71.9824,251.35 70.1491,253.35 68.5,255.5C 69.8262,256.642 70.8262,257.976 71.5,259.5 Z"/></g>
<g><path style="opacity:1" fill="#e2e5f0" d="M 77.5,251.5 C 78.4972,251.47 79.1639,251.97 79.5,253C 77.7051,255.426 76.0384,257.926 74.5,260.5C 73.0527,261.885 72.0527,261.552 71.5,259.5C 73.9748,257.23 75.9748,254.563 77.5,251.5 Z"/></g>
<g><path style="opacity:1" fill="#dee2ee" d="M 215.5,258.5 C 218.012,259.216 218.012,260.216 215.5,261.5C 214.438,260.575 214.438,259.575 215.5,258.5 Z"/></g>
<g><path style="opacity:1" fill="#e1e5f0" d="M 208.5,255.5 C 209.376,255.369 210.043,255.702 210.5,256.5C 207.496,260.766 207.996,261.766 212,259.5C 212.333,261.047 211.833,262.38 210.5,263.5C 211.04,264.748 211.707,265.915 212.5,267C 211.975,267.692 211.308,268.192 210.5,268.5C 208.625,265.249 206.625,262.082 204.5,259C 205.731,257.595 207.064,256.429 208.5,255.5 Z"/></g>
<g><path style="opacity:1" fill="#e4e7f1" d="M 82.5,265.5 C 82.2172,266.289 81.7172,266.956 81,267.5C 79.9025,266.033 78.4025,265.199 76.5,265C 75.6634,263.989 75.33,262.822 75.5,261.5C 77.2676,259.492 78.9343,257.326 80.5,255C 83.3069,254.403 85.3069,255.403 86.5,258C 86.3699,259.059 85.8699,259.892 85,260.5C 83.3059,255.311 81.3059,255.311 79,260.5C 78.2195,261.944 78.3861,263.277 79.5,264.5C 80.3081,264.192 80.9747,263.692 81.5,263C 80.2888,262.107 80.2888,261.274 81.5,260.5C 83.7043,261.782 84.0376,263.449 82.5,265.5 Z"/></g>
<g><path style="opacity:1" fill="#e5e8f2" d="M 83.5,269.5 C 83.5,268.5 83.5,267.5 83.5,266.5C 85.1417,263.898 86.8084,261.231 88.5,258.5C 88.92,260.353 89.2533,262.187 89.5,264C 91.0554,263.575 92.5554,262.742 94,261.5C 96.7224,262.444 99.2224,263.777 101.5,265.5C 100.5,266.167 99.5,266.833 98.5,267.5C 97.4196,269.996 96.0862,272.33 94.5,274.5C 93.8584,271.374 94.525,268.374 96.5,265.5C 95.635,264.417 94.635,264.251 93.5,265C 92.3597,267.458 90.8597,269.625 89,271.5C 88.5,271.167 88,270.833 87.5,270.5C 88.9501,269.15 89.6168,267.484 89.5,265.5C 87.1147,266.292 85.1147,267.626 83.5,269.5 Z"/></g>
<g><path style="opacity:1" fill="#dfe4ef" d="M 201.5,262.5 C 202.188,265.057 203.354,267.391 205,269.5C 206,268.833 207,268.167 208,267.5C 208.038,270.291 206.538,271.958 203.5,272.5C 201.847,269.193 200.18,265.86 198.5,262.5C 199.425,261.438 200.425,261.438 201.5,262.5 Z"/></g>
<g><path style="opacity:0.924" fill="#234d9a" d="M 81.5,244.5 C 118.481,270.68 157.481,274.013 198.5,254.5C 199.291,256.309 199.291,258.309 198.5,260.5C 200.179,260.285 201.179,260.952 201.5,262.5C 200.425,261.438 199.425,261.438 198.5,262.5C 200.18,265.86 201.847,269.193 203.5,272.5C 202.778,273.551 201.778,274.218 200.5,274.5C 201.869,271.869 201.202,271.202 198.5,272.5C 197.5,272.167 196.833,271.5 196.5,270.5C 197.5,269.667 198.5,268.833 199.5,268C 195.25,267.768 194.583,266.268 197.5,263.5C 195.198,262.649 193.531,263.482 192.5,266C 193.662,269.147 194.662,272.314 195.5,275.5C 196.959,275.567 198.292,275.234 199.5,274.5C 199.489,276.017 198.823,277.184 197.5,278C 198.094,278.464 198.761,278.631 199.5,278.5C 187.947,283.72 175.947,287.387 163.5,289.5C 151.833,289.5 140.167,289.5 128.5,289.5C 113.398,286.805 99.0642,281.805 85.5,274.5C 85.1075,272.716 84.4408,271.05 83.5,269.5C 85.1147,267.626 87.1147,266.292 89.5,265.5C 89.6168,267.484 88.9501,269.15 87.5,270.5C 88,270.833 88.5,271.167 89,271.5C 90.8597,269.625 92.3597,267.458 93.5,265C 94.635,264.251 95.635,264.417 96.5,265.5C 94.525,268.374 93.8584,271.374 94.5,274.5C 96.0862,272.33 97.4196,269.996 98.5,267.5C 99.5,266.833 100.5,266.167 101.5,265.5C 99.2224,263.777 96.7224,262.444 94,261.5C 92.5554,262.742 91.0554,263.575 89.5,264C 89.2533,262.187 88.92,260.353 88.5,258.5C 86.8084,261.231 85.1417,263.898 83.5,266.5C 83.5,265.833 83.1667,265.5 82.5,265.5C 84.0376,263.449 83.7043,261.782 81.5,260.5C 80.2888,261.274 80.2888,262.107 81.5,263C 80.9747,263.692 80.3081,264.192 79.5,264.5C 78.3861,263.277 78.2195,261.944 79,260.5C 81.3059,255.311 83.3059,255.311 85,260.5C 85.8699,259.892 86.3699,259.059 86.5,258C 85.3069,255.403 83.3069,254.403 80.5,255C 78.9343,257.326 77.2676,259.492 75.5,261.5C 75.5,260.833 75.1667,260.5 74.5,260.5C 76.0384,257.926 77.7051,255.426 79.5,253C 79.1639,251.97 78.4972,251.47 77.5,251.5C 78.6597,248.967 79.993,246.633 81.5,244.5 Z"/></g>
<g><path style="opacity:1" fill="#e4e9f2" d="M 172.5,270.5 C 180.053,269.531 182.887,272.864 181,280.5C 178.993,281.669 176.827,282.335 174.5,282.5C 174.152,278.443 173.486,274.443 172.5,270.5 Z"/></g>
<g><path style="opacity:1" fill="#dee4f0" d="M 157.5,273.5 C 158.822,273.33 159.989,273.663 161,274.5C 161.975,277.76 163.142,280.927 164.5,284C 162.481,283.848 160.481,283.348 158.5,282.5C 158.719,283.675 158.386,284.675 157.5,285.5C 156.235,281.454 156.235,277.454 157.5,273.5 Z"/></g>
<g><path style="opacity:1" fill="#e4e9f2" d="M 163.5,272.5 C 164.675,272.281 165.675,272.614 166.5,273.5C 168.623,278.845 169.957,278.511 170.5,272.5C 172.436,276.045 172.769,279.711 171.5,283.5C 169.768,281.717 168.268,279.717 167,277.5C 167.351,279.886 167.185,282.219 166.5,284.5C 164.895,280.632 163.895,276.632 163.5,272.5 Z"/></g>
<g><path style="opacity:1" fill="#e9edf4" d="M 109.5,268.5 C 110.5,268.5 111.5,268.5 112.5,268.5C 112.336,271.187 112.503,273.854 113,276.5C 113.833,274.5 114.667,272.5 115.5,270.5C 115.833,271 116.167,271.5 116.5,272C 115.434,275.094 114.768,278.26 114.5,281.5C 113.5,281.5 112.5,281.5 111.5,281.5C 111.664,278.813 111.497,276.146 111,273.5C 109.883,274.949 109.216,276.616 109,278.5C 108.107,279.711 107.274,279.711 106.5,278.5C 107.909,275.273 108.909,271.94 109.5,268.5 Z"/></g>
<g><path style="opacity:1" fill="#e8edf4" d="M 129.5,273.5 C 131.604,273.201 133.604,273.534 135.5,274.5C 134.311,275.429 132.978,275.762 131.5,275.5C 131.5,276.5 131.5,277.5 131.5,278.5C 132.675,278.281 133.675,278.614 134.5,279.5C 133.311,280.429 131.978,280.762 130.5,280.5C 130.5,281.5 130.5,282.5 130.5,283.5C 131.675,283.281 132.675,283.614 133.5,284.5C 133.167,284.833 132.833,285.167 132.5,285.5C 131.264,284.754 129.93,284.421 128.5,284.5C 128.552,280.802 128.886,277.135 129.5,273.5 Z"/></g>
<g><path style="opacity:1" fill="#3259a1" d="M 175.5,272.5 C 178.754,273.673 179.92,276.006 179,279.5C 178.586,279.957 178.086,280.291 177.5,280.5C 176.205,277.988 175.539,275.321 175.5,272.5 Z"/></g>
<g><path style="opacity:1" fill="#e2e7f1" d="M 185.5,266.5 C 187.167,266.5 188.833,266.5 190.5,266.5C 190.719,267.675 190.386,268.675 189.5,269.5C 188.391,268.41 187.391,268.41 186.5,269.5C 188.632,270.598 190.798,271.598 193,272.5C 193.271,278.585 191.104,279.751 186.5,276C 187.819,274.372 189.152,274.539 190.5,276.5C 190.833,276.167 191.167,275.833 191.5,275.5C 189.434,274.094 187.268,272.76 185,271.5C 184.36,269.735 184.527,268.068 185.5,266.5 Z"/></g>
<g><path style="opacity:1" fill="#d9e0ed" d="M 118.5,271.5 C 119.5,271.5 120.5,271.5 121.5,271.5C 120.911,279.16 121.911,279.826 124.5,273.5C 125.325,272.614 126.325,272.281 127.5,272.5C 127.219,276.188 126.719,279.855 126,283.5C 124.844,284.993 124.01,284.826 123.5,283C 124.33,281.535 124.496,280.035 124,278.5C 121.704,284.855 120.038,284.855 119,278.5C 118.51,279.793 118.343,281.127 118.5,282.5C 117.325,282.719 116.325,282.386 115.5,281.5C 116.755,278.208 117.755,274.875 118.5,271.5 Z"/></g>
<g><path style="opacity:1" fill="#e3e8f1" d="M 200.5,274.5 C 200.167,274.5 199.833,274.5 199.5,274.5C 198.292,275.234 196.959,275.567 195.5,275.5C 194.662,272.314 193.662,269.147 192.5,266C 193.531,263.482 195.198,262.649 197.5,263.5C 194.583,266.268 195.25,267.768 199.5,268C 198.5,268.833 197.5,269.667 196.5,270.5C 196.833,271.5 197.5,272.167 198.5,272.5C 201.202,271.202 201.869,271.869 200.5,274.5 Z"/></g>
<g><path style="opacity:1" fill="#e1e6f0" d="M 102.5,266.5 C 104.827,266.247 106.827,266.914 108.5,268.5C 107.349,269.731 106.183,269.731 105,268.5C 104.46,270.135 104.96,271.468 106.5,272.5C 105.311,273.429 103.978,273.762 102.5,273.5C 102.5,274.5 102.5,275.5 102.5,276.5C 103.675,276.281 104.675,276.614 105.5,277.5C 102.779,278.987 100.779,278.32 99.5,275.5C 100.704,272.556 101.704,269.556 102.5,266.5 Z"/></g>
<g><path style="opacity:1" fill="#ced8e9" d="M 136.5,274.5 C 137.5,274.5 138.5,274.5 139.5,274.5C 140.492,282.475 141.492,282.475 142.5,274.5C 143.491,278.445 143.824,282.445 143.5,286.5C 142.5,286.5 141.5,286.5 140.5,286.5C 139.491,279.605 138.824,279.272 138.5,285.5C 137.5,285.5 136.5,285.5 135.5,285.5C 135.724,281.821 136.058,278.154 136.5,274.5 Z"/></g>
<g><path style="opacity:1" fill="#bccae1" d="M 144.5,274.5 C 146.924,274.192 149.257,274.526 151.5,275.5C 149.688,278.899 149.021,282.566 149.5,286.5C 148.5,286.5 147.5,286.5 146.5,286.5C 146.849,282.258 146.183,278.258 144.5,274.5 Z"/></g>
</svg>
