<?xml version="1.0" encoding="UTF-8"?>
<!DOCTYPE svg PUBLIC "-//W3C//DTD SVG 1.1//EN" "http://www.w3.org/Graphics/SVG/1.1/DTD/svg11.dtd">
<svg xmlns="http://www.w3.org/2000/svg" version="1.1" width="640px" height="390px" style="shape-rendering:geometricPrecision; text-rendering:geometricPrecision; image-rendering:optimizeQuality; fill-rule:evenodd; clip-rule:evenodd" xmlns:xlink="http://www.w3.org/1999/xlink">
<g><path style="opacity:1" fill="#146d17" d="M 203.5,29.5 C 278.833,29.5 354.167,29.5 429.5,29.5C 429.5,60.5 429.5,91.5 429.5,122.5C 410.167,122.5 390.833,122.5 371.5,122.5C 371.334,113.161 371.5,103.827 372,94.5C 374.144,89.742 374.977,84.742 374.5,79.5C 376.602,77.8073 378.268,75.6406 379.5,73C 381.701,72.1751 383.534,72.6751 385,74.5C 386.72,80.1377 386.886,85.8044 385.5,91.5C 384.965,98.3614 385.798,105.028 388,111.5C 391.007,115.252 394.84,117.252 399.5,117.5C 397.291,106.907 396.957,96.2404 398.5,85.5C 403.277,76.428 401.611,68.5947 393.5,62C 389.973,61.1925 386.64,61.3592 383.5,62.5C 376.803,64.1995 371.469,67.8662 367.5,73.5C 366.5,73.5 365.5,73.5 364.5,73.5C 364.5,75.5 364.5,77.5 364.5,79.5C 362.876,79.6399 361.71,78.9733 361,77.5C 360.667,73.8333 360.333,70.1667 360,66.5C 359.617,65.944 359.117,65.6107 358.5,65.5C 356.692,64.0821 356.025,62.0821 356.5,59.5C 353.756,59.7997 352.089,58.633 351.5,56C 351.684,54.6244 352.351,53.7911 353.5,53.5C 354.468,51.3926 354.802,49.0593 354.5,46.5C 348.207,45.8372 342.54,47.3372 337.5,51C 329.5,51.3333 321.5,51.6667 313.5,52C 312.584,52.2784 311.918,52.7784 311.5,53.5C 308.075,55.0888 305.408,57.5888 303.5,61C 297.79,60.926 292.457,62.0926 287.5,64.5C 285.741,69.6293 286.407,74.4627 289.5,79C 289.167,79.5 288.833,80 288.5,80.5C 282.536,79.1724 281.87,80.6724 286.5,85C 283.842,86.5466 281.175,86.3799 278.5,84.5C 279.325,83.6143 280.325,83.281 281.5,83.5C 279.494,78.0095 277.994,78.3428 277,84.5C 275.812,83.4366 275.312,82.1033 275.5,80.5C 274.5,80.5 273.5,80.5 272.5,80.5C 269.39,73.9689 265.056,68.3022 259.5,63.5C 259.389,62.8826 259.056,62.3826 258.5,62C 252.843,61.5006 247.176,61.3339 241.5,61.5C 240.624,61.3691 239.957,61.7025 239.5,62.5C 240.374,65.4731 239.04,66.8064 235.5,66.5C 234.599,70.2407 235.932,72.2407 239.5,72.5C 239.5,74.5 239.5,76.5 239.5,78.5C 236.829,80.3473 235.829,83.014 236.5,86.5C 239.564,86.0725 242.564,85.4058 245.5,84.5C 245.296,87.5176 244.963,90.5176 244.5,93.5C 246.167,93.5 247.833,93.5 249.5,93.5C 252.176,92.9919 254.843,92.8253 257.5,93C 258.435,95.3806 258.768,97.8806 258.5,100.5C 259.5,100.5 260.5,100.5 261.5,100.5C 261.433,103.766 263.099,105.266 266.5,105C 268.185,106.946 270.185,108.446 272.5,109.5C 273.5,109.5 274.5,109.5 275.5,109.5C 275.649,110.552 275.483,111.552 275,112.5C 269.263,115.475 269.263,118.142 275,120.5C 275.483,121.448 275.649,122.448 275.5,123.5C 275.167,123.5 274.833,123.5 274.5,123.5C 251.006,122.502 227.339,122.169 203.5,122.5C 203.5,91.5 203.5,60.5 203.5,29.5 Z"/></g>
<g><path style="opacity:0.825" fill="#3b723d" d="M 203.5,29.5 C 203.5,29.1667 203.5,28.8333 203.5,28.5C 279.167,28.5 354.833,28.5 430.5,28.5C 430.5,60.1667 430.5,91.8333 430.5,123.5C 410.167,123.5 389.833,123.5 369.5,123.5C 369.155,110.755 369.988,98.0882 372,85.5C 372.845,83.3885 373.678,81.3885 374.5,79.5C 374.977,84.742 374.144,89.742 372,94.5C 371.5,103.827 371.334,113.161 371.5,122.5C 390.833,122.5 410.167,122.5 429.5,122.5C 429.5,91.5 429.5,60.5 429.5,29.5C 354.167,29.5 278.833,29.5 203.5,29.5 Z"/></g>
<g><path style="opacity:1" fill="#1c5b1d" d="M 353.5,53.5 C 354.062,49.901 352.562,47.901 349,47.5C 345.901,48.4664 343.068,49.7997 340.5,51.5C 332.03,53.3719 323.363,54.0386 314.5,53.5C 313.5,53.5 312.5,53.5 311.5,53.5C 311.918,52.7784 312.584,52.2784 313.5,52C 321.5,51.6667 329.5,51.3333 337.5,51C 342.54,47.3372 348.207,45.8372 354.5,46.5C 354.802,49.0593 354.468,51.3926 353.5,53.5 Z"/></g>
<g><path style="opacity:1" fill="#131416" d="M 340.5,51.5 C 348.964,49.8813 351.798,52.8813 349,60.5C 350.707,61.1383 352.54,61.1383 354.5,60.5C 354.338,62.5273 354.505,64.5273 355,66.5C 358.685,70.2399 358.185,72.0732 353.5,72C 351.622,73.9928 351.288,76.1595 352.5,78.5C 353.192,77.9747 353.692,77.3081 354,76.5C 354.49,77.7932 354.657,79.1266 354.5,80.5C 355.5,80.5 356.5,80.5 357.5,80.5C 357.5,82.8333 357.5,85.1667 357.5,87.5C 356.5,87.5 355.5,87.5 354.5,87.5C 354.649,86.448 354.483,85.448 354,84.5C 351.381,87.446 350.881,90.7794 352.5,94.5C 350.804,94.6854 349.471,95.5187 348.5,97C 342.686,97.9885 337.353,99.4885 332.5,101.5C 327.354,100.264 322.187,100.264 317,101.5C 313.557,100.431 310.057,99.5976 306.5,99C 303.197,97.9406 300.197,96.4406 297.5,94.5C 299.718,93.9841 301.718,92.9841 303.5,91.5C 301.149,89.7711 298.482,89.1044 295.5,89.5C 295.5,87.8333 295.5,86.1667 295.5,84.5C 299.723,84.6606 303.723,83.994 307.5,82.5C 307.5,81.5 307.5,80.5 307.5,79.5C 306.167,79.5 304.833,79.5 303.5,79.5C 302.325,79.719 301.325,79.3857 300.5,78.5C 303.977,77.8328 307.311,77.1661 310.5,76.5C 310.5,76.1667 310.5,75.8333 310.5,75.5C 312.549,75.2942 312.883,74.4609 311.5,73C 305.717,72.2076 300.05,72.7076 294.5,74.5C 289.922,73.1747 288.422,70.1747 290,65.5C 291.756,64.4519 293.59,64.4519 295.5,65.5C 298.727,63.1031 302.394,61.9365 306.5,62C 308.089,58.0621 310.756,55.2288 314.5,53.5C 323.363,54.0386 332.03,53.3719 340.5,51.5 Z"/></g>
<g><path style="opacity:1" fill="#0b210c" d="M 311.5,53.5 C 312.5,53.5 313.5,53.5 314.5,53.5C 310.756,55.2288 308.089,58.0621 306.5,62C 302.394,61.9365 298.727,63.1031 295.5,65.5C 293.59,64.4519 291.756,64.4519 290,65.5C 288.422,70.1747 289.922,73.1747 294.5,74.5C 300.05,72.7076 305.717,72.2076 311.5,73C 312.883,74.4609 312.549,75.2942 310.5,75.5C 309.486,74.2353 307.986,73.5687 306,73.5C 304.5,73.6667 303,73.8333 301.5,74C 300.244,74.4169 299.577,75.2502 299.5,76.5C 296.167,76.5 292.833,76.5 289.5,76.5C 288.239,72.6265 287.572,68.6265 287.5,64.5C 292.457,62.0926 297.79,60.926 303.5,61C 305.408,57.5888 308.075,55.0888 311.5,53.5 Z"/></g>
<g><path style="opacity:1" fill="#eff0ef" d="M 311.5,59.5 C 313.527,59.3379 315.527,59.5045 317.5,60C 318.554,61.3876 318.72,62.8876 318,64.5C 312.128,67.002 309.961,65.3353 311.5,59.5 Z"/></g>
<g><path style="opacity:1" fill="#1f5722" d="M 241.5,61.5 C 243.479,65.3935 242.312,67.7269 238,68.5C 237.517,69.448 237.351,70.448 237.5,71.5C 238.5,71.5 239.5,71.5 240.5,71.5C 240.227,73.451 240.893,74.951 242.5,76C 241.627,77.045 240.627,77.8783 239.5,78.5C 239.5,76.5 239.5,74.5 239.5,72.5C 235.932,72.2407 234.599,70.2407 235.5,66.5C 239.04,66.8064 240.374,65.4731 239.5,62.5C 239.957,61.7025 240.624,61.3691 241.5,61.5 Z"/></g>
<g><path style="opacity:1" fill="#0c200d" d="M 241.5,61.5 C 247.176,61.3339 252.843,61.5006 258.5,62C 259.056,62.3826 259.389,62.8826 259.5,63.5C 254.537,62.746 249.537,62.4126 244.5,62.5C 244.854,65.4206 243.854,67.7539 241.5,69.5C 242.794,71.8805 243.794,74.3805 244.5,77C 243.048,78.5648 241.381,79.8982 239.5,81C 247.033,81.5554 249.366,85.3887 246.5,92.5C 247.5,92.5 248.5,92.5 249.5,92.5C 249.5,92.8333 249.5,93.1667 249.5,93.5C 247.833,93.5 246.167,93.5 244.5,93.5C 244.963,90.5176 245.296,87.5176 245.5,84.5C 242.564,85.4058 239.564,86.0725 236.5,86.5C 235.829,83.014 236.829,80.3473 239.5,78.5C 240.627,77.8783 241.627,77.045 242.5,76C 240.893,74.951 240.227,73.451 240.5,71.5C 239.5,71.5 238.5,71.5 237.5,71.5C 237.351,70.448 237.517,69.448 238,68.5C 242.312,67.7269 243.479,65.3935 241.5,61.5 Z"/></g>
<g><path style="opacity:1" fill="#0b1d0c" d="M 383.5,62.5 C 386.64,61.3592 389.973,61.1925 393.5,62C 401.611,68.5947 403.277,76.428 398.5,85.5C 398.788,79.7711 398.454,74.1045 397.5,68.5C 394.047,63.7757 389.38,61.7757 383.5,62.5 Z"/></g>
<g><path style="opacity:1" fill="#111613" d="M 383.5,62.5 C 389.38,61.7757 394.047,63.7757 397.5,68.5C 398.454,74.1045 398.788,79.7711 398.5,85.5C 396.957,96.2404 397.291,106.907 399.5,117.5C 394.84,117.252 391.007,115.252 388,111.5C 385.798,105.028 384.965,98.3614 385.5,91.5C 389.257,85.8194 389.423,79.8194 386,73.5C 384.01,70.2781 381.51,69.7781 378.5,72C 376.505,74.1572 375.172,76.6572 374.5,79.5C 373.678,81.3885 372.845,83.3885 372,85.5C 369.988,98.0882 369.155,110.755 369.5,123.5C 368.414,123.38 367.747,122.713 367.5,121.5C 368.331,119.527 368.498,117.527 368,115.5C 366.018,118.16 365.185,117.66 365.5,114C 366.369,111.562 366.369,109.229 365.5,107C 368.316,103.72 369.149,99.8862 368,95.5C 367.86,98.0432 367.194,100.377 366,102.5C 365.667,101.833 365.333,101.167 365,100.5C 364.833,103.667 364.667,106.833 364.5,110C 365.017,114.912 365.017,119.745 364.5,124.5C 365.687,125.519 366.687,126.686 367.5,128C 366.551,128.617 365.718,128.451 365,127.5C 364.517,128.448 364.351,129.448 364.5,130.5C 363.532,128.393 363.198,126.059 363.5,123.5C 362.278,110.549 362.445,97.5491 364,84.5C 365.017,80.7561 366.184,77.0895 367.5,73.5C 371.469,67.8662 376.803,64.1995 383.5,62.5 Z"/></g>
<g><path style="opacity:1" fill="#1d5522" d="M 385.5,91.5 C 386.886,85.8044 386.72,80.1377 385,74.5C 383.534,72.6751 381.701,72.1751 379.5,73C 378.268,75.6406 376.602,77.8073 374.5,79.5C 375.172,76.6572 376.505,74.1572 378.5,72C 381.51,69.7781 384.01,70.2781 386,73.5C 389.423,79.8194 389.257,85.8194 385.5,91.5 Z"/></g>
<g><path style="opacity:1" fill="#255c27" d="M 310.5,75.5 C 310.5,75.8333 310.5,76.1667 310.5,76.5C 306.833,76.5 303.167,76.5 299.5,76.5C 299.577,75.2502 300.244,74.4169 301.5,74C 303,73.8333 304.5,73.6667 306,73.5C 307.986,73.5687 309.486,74.2353 310.5,75.5 Z"/></g>
<g><path style="opacity:1" fill="#071f09" d="M 299.5,76.5 C 303.167,76.5 306.833,76.5 310.5,76.5C 307.311,77.1661 303.977,77.8328 300.5,78.5C 301.325,79.3857 302.325,79.719 303.5,79.5C 299.5,81.1667 295.5,82.8333 291.5,84.5C 289.335,84.8841 287.668,84.2174 286.5,82.5C 290.346,80.8293 294.346,79.6626 298.5,79C 299.252,78.3292 299.586,77.4959 299.5,76.5 Z"/></g>
<g><path style="opacity:1" fill="#215523" d="M 303.5,79.5 C 304.833,79.5 306.167,79.5 307.5,79.5C 307.5,80.5 307.5,81.5 307.5,82.5C 303.723,83.994 299.723,84.6606 295.5,84.5C 295.5,86.1667 295.5,87.8333 295.5,89.5C 294.549,88.0813 294.216,86.4147 294.5,84.5C 293.5,84.5 292.5,84.5 291.5,84.5C 295.5,82.8333 299.5,81.1667 303.5,79.5 Z"/></g>
<g><path style="opacity:1" fill="#0e1910" d="M 353.5,53.5 C 352.351,53.7911 351.684,54.6244 351.5,56C 352.089,58.633 353.756,59.7997 356.5,59.5C 356.025,62.0821 356.692,64.0821 358.5,65.5C 358.5,69.5 358.5,73.5 358.5,77.5C 355.203,77.3287 354.869,77.9954 357.5,79.5C 358.833,83.5 358.833,87.5 357.5,91.5C 356.833,91.1667 356.167,90.8333 355.5,90.5C 354.83,92.2914 354.163,93.9581 353.5,95.5C 352.833,95.5 352.5,95.1667 352.5,94.5C 350.881,90.7794 351.381,87.446 354,84.5C 354.483,85.448 354.649,86.448 354.5,87.5C 355.5,87.5 356.5,87.5 357.5,87.5C 357.5,85.1667 357.5,82.8333 357.5,80.5C 356.5,80.5 355.5,80.5 354.5,80.5C 354.657,79.1266 354.49,77.7932 354,76.5C 353.692,77.3081 353.192,77.9747 352.5,78.5C 351.288,76.1595 351.622,73.9928 353.5,72C 358.185,72.0732 358.685,70.2399 355,66.5C 354.505,64.5273 354.338,62.5273 354.5,60.5C 352.54,61.1383 350.707,61.1383 349,60.5C 351.798,52.8813 348.964,49.8813 340.5,51.5C 343.068,49.7997 345.901,48.4664 349,47.5C 352.562,47.901 354.062,49.901 353.5,53.5 Z"/></g>
<g><path style="opacity:1" fill="#1a681d" d="M 287.5,64.5 C 287.572,68.6265 288.239,72.6265 289.5,76.5C 292.833,76.5 296.167,76.5 299.5,76.5C 299.586,77.4959 299.252,78.3292 298.5,79C 294.346,79.6626 290.346,80.8293 286.5,82.5C 287.668,84.2174 289.335,84.8841 291.5,84.5C 292.5,84.5 293.5,84.5 294.5,84.5C 294.216,86.4147 294.549,88.0813 295.5,89.5C 298.482,89.1044 301.149,89.7711 303.5,91.5C 301.718,92.9841 299.718,93.9841 297.5,94.5C 294.223,92.9217 291.223,93.255 288.5,95.5C 284.416,91.9446 280.082,88.6113 275.5,85.5C 274.048,84.0603 273.048,82.3936 272.5,80.5C 273.5,80.5 274.5,80.5 275.5,80.5C 275.312,82.1033 275.812,83.4366 277,84.5C 277.994,78.3428 279.494,78.0095 281.5,83.5C 280.325,83.281 279.325,83.6143 278.5,84.5C 281.175,86.3799 283.842,86.5466 286.5,85C 281.87,80.6724 282.536,79.1724 288.5,80.5C 288.833,80 289.167,79.5 289.5,79C 286.407,74.4627 285.741,69.6293 287.5,64.5 Z"/></g>
<g><path style="opacity:1" fill="#1d5f21" d="M 272.5,109.5 C 270.185,108.446 268.185,106.946 266.5,105C 263.099,105.266 261.433,103.766 261.5,100.5C 260.5,100.5 259.5,100.5 258.5,100.5C 258.768,97.8806 258.435,95.3806 257.5,93C 254.843,92.8253 252.176,92.9919 249.5,93.5C 249.5,93.1667 249.5,92.8333 249.5,92.5C 252.779,91.5078 256.112,91.3412 259.5,92C 260.593,94.4433 261.593,96.9433 262.5,99.5C 263.325,100.386 264.325,100.719 265.5,100.5C 266.545,103.385 268.545,105.552 271.5,107C 272.252,107.671 272.586,108.504 272.5,109.5 Z"/></g>
<g><path style="opacity:1" fill="#dadcdb" d="M 297.5,94.5 C 300.197,96.4406 303.197,97.9406 306.5,99C 310.057,99.5976 313.557,100.431 317,101.5C 322.187,100.264 327.354,100.264 332.5,101.5C 337.353,99.4885 342.686,97.9885 348.5,97C 349.471,95.5187 350.804,94.6854 352.5,94.5C 352.5,95.1667 352.833,95.5 353.5,95.5C 354.6,96.6049 355.267,97.9382 355.5,99.5C 355.834,102.188 355.168,104.521 353.5,106.5C 352.504,106.586 351.671,106.252 351,105.5C 345.221,108.868 338.888,110.868 332,111.5C 326.554,110.393 321.054,110.393 315.5,111.5C 306.276,109.715 297.609,106.548 289.5,102C 288.577,99.9592 288.244,97.7925 288.5,95.5C 291.223,93.255 294.223,92.9217 297.5,94.5 Z"/></g>
<g><path style="opacity:1" fill="#202621" d="M 291.5,94.5 C 293.346,94.2222 294.68,94.8888 295.5,96.5C 294.248,98.0009 293.248,99.6675 292.5,101.5C 289.131,99.5075 288.798,97.1742 291.5,94.5 Z"/></g>
<g><path style="opacity:1" fill="#131516" d="M 259.5,63.5 C 265.056,68.3022 269.39,73.9689 272.5,80.5C 273.048,82.3936 274.048,84.0603 275.5,85.5C 280.082,88.6113 284.416,91.9446 288.5,95.5C 288.244,97.7925 288.577,99.9592 289.5,102C 297.609,106.548 306.276,109.715 315.5,111.5C 321.054,110.393 326.554,110.393 332,111.5C 338.888,110.868 345.221,108.868 351,105.5C 351.671,106.252 352.504,106.586 353.5,106.5C 352.881,109.248 352.548,112.081 352.5,115C 352.525,117.929 353.191,120.429 354.5,122.5C 354.5,122.833 354.5,123.167 354.5,123.5C 353.5,123.5 352.5,123.5 351.5,123.5C 351.5,124.5 351.5,125.5 351.5,126.5C 349.631,128.635 348.964,131.302 349.5,134.5C 348.325,134.281 347.325,134.614 346.5,135.5C 347.022,136.607 347.355,137.774 347.5,139C 346.508,140.923 345.341,142.756 344,144.5C 343.319,142.105 342.485,139.772 341.5,137.5C 338.108,139.619 336.941,142.619 338,146.5C 339.419,148.336 340.586,150.336 341.5,152.5C 351.344,160.014 359.011,169.347 364.5,180.5C 366.833,182.002 368.499,181.502 369.5,179C 367.859,162.833 366.192,146.666 364.5,130.5C 364.351,129.448 364.517,128.448 365,127.5C 365.718,128.451 366.551,128.617 367.5,128C 366.687,126.686 365.687,125.519 364.5,124.5C 365.017,119.745 365.017,114.912 364.5,110C 364.667,106.833 364.833,103.667 365,100.5C 365.333,101.167 365.667,101.833 366,102.5C 367.194,100.377 367.86,98.0432 368,95.5C 369.149,99.8862 368.316,103.72 365.5,107C 366.369,109.229 366.369,111.562 365.5,114C 365.185,117.66 366.018,118.16 368,115.5C 368.498,117.527 368.331,119.527 367.5,121.5C 367.747,122.713 368.414,123.38 369.5,123.5C 371.145,139.592 373.645,155.592 377,171.5C 377.667,175.5 377.667,179.5 377,183.5C 372.612,187.581 367.445,190.247 361.5,191.5C 358.577,196.591 355.077,201.258 351,205.5C 350.506,207.134 350.34,208.801 350.5,210.5C 350.517,213.523 351.517,216.19 353.5,218.5C 357.723,219.778 361.39,221.778 364.5,224.5C 364.5,226.5 364.5,228.5 364.5,230.5C 363.5,230.5 362.5,230.5 361.5,230.5C 361.736,233.226 360.903,235.559 359,237.5C 358.081,233.759 357.081,230.092 356,226.5C 355.827,230.541 355.327,234.541 354.5,238.5C 353.833,237.5 353.167,236.5 352.5,235.5C 352.167,236.333 351.833,237.167 351.5,238C 352.519,240.549 352.519,243.049 351.5,245.5C 350.77,244.066 349.77,242.9 348.5,242C 345.487,241.498 342.487,240.998 339.5,240.5C 340.112,236.837 340.279,233.17 340,229.5C 339.29,228.027 338.124,227.36 336.5,227.5C 335.828,224.356 334.828,221.356 333.5,218.5C 331.712,218.785 330.045,218.452 328.5,217.5C 329.246,216.264 329.579,214.93 329.5,213.5C 331.635,213.853 332.968,213.02 333.5,211C 332.054,205.259 330.054,205.092 327.5,210.5C 325.681,208.872 324.347,206.872 323.5,204.5C 323.432,205.754 322.766,207.087 321.5,208.5C 320.834,203.651 320.167,198.651 319.5,193.5C 317.359,194.808 315.359,196.308 313.5,198C 306.951,197.381 304.785,200.214 307,206.5C 308.371,208.041 309.871,209.375 311.5,210.5C 311.703,212.044 312.37,213.378 313.5,214.5C 309.526,215.093 307.359,217.427 307,221.5C 305.271,221.974 304.105,222.974 303.5,224.5C 301.738,224.643 300.071,224.309 298.5,223.5C 297.813,221.726 296.98,220.059 296,218.5C 295.02,219.981 293.853,221.315 292.5,222.5C 293.167,223.167 293.833,223.833 294.5,224.5C 293.846,226.115 293.346,227.782 293,229.5C 291.989,228.663 290.822,228.33 289.5,228.5C 289.335,225.482 289.502,222.482 290,219.5C 293.448,215.895 293.282,212.562 289.5,209.5C 289.5,208.833 289.167,208.5 288.5,208.5C 280.435,202.808 277.602,195.141 280,185.5C 281.5,184 283,182.5 284.5,181C 291.89,179.213 299.223,177.213 306.5,175C 312.399,169.569 311.399,165.902 303.5,164C 300.102,158.704 295.436,156.871 289.5,158.5C 288.522,158.023 287.689,157.357 287,156.5C 285.678,151.183 285.178,145.85 285.5,140.5C 283.844,141.992 282.344,143.658 281,145.5C 280.667,144.833 280.333,144.167 280,143.5C 275.677,146.744 270.843,149.077 265.5,150.5C 264.833,149.5 264.167,148.5 263.5,147.5C 263.167,147.667 262.833,147.833 262.5,148C 261.736,150.069 261.236,152.236 261,154.5C 256.884,155.616 254.551,158.282 254,162.5C 252.48,159.618 251.147,156.618 250,153.5C 249.261,152.426 248.261,151.759 247,151.5C 241.608,152.601 236.941,154.934 233,158.5C 232.333,154.833 232.333,151.167 233,147.5C 235.277,144.301 236.11,140.635 235.5,136.5C 237.827,136.753 239.827,136.086 241.5,134.5C 239.042,132.545 236.709,130.378 234.5,128C 234.833,127.667 235.167,127.333 235.5,127C 241.5,126.333 247.5,126.333 253.5,127C 257.103,133.646 262.103,134.979 268.5,131C 271.011,128.656 273.344,126.156 275.5,123.5C 275.649,122.448 275.483,121.448 275,120.5C 269.263,118.142 269.263,115.475 275,112.5C 275.483,111.552 275.649,110.552 275.5,109.5C 274.5,109.5 273.5,109.5 272.5,109.5C 272.586,108.504 272.252,107.671 271.5,107C 268.545,105.552 266.545,103.385 265.5,100.5C 264.325,100.719 263.325,100.386 262.5,99.5C 261.593,96.9433 260.593,94.4433 259.5,92C 256.112,91.3412 252.779,91.5078 249.5,92.5C 248.5,92.5 247.5,92.5 246.5,92.5C 249.366,85.3887 247.033,81.5554 239.5,81C 241.381,79.8982 243.048,78.5648 244.5,77C 243.794,74.3805 242.794,71.8805 241.5,69.5C 243.854,67.7539 244.854,65.4206 244.5,62.5C 249.537,62.4126 254.537,62.746 259.5,63.5 Z"/></g>
<g><path style="opacity:1" fill="#4f504f" d="M 313.5,103.5 C 313.56,102.957 313.893,102.624 314.5,102.5C 315.292,104.465 315.959,106.465 316.5,108.5C 315.5,109.833 314.5,109.833 313.5,108.5C 314.735,106.684 314.735,105.017 313.5,103.5 Z"/></g>
<g><path style="opacity:1" fill="#444645" d="M 308.5,105.5 C 309.267,106.172 309.934,107.005 310.5,108C 308.939,108.188 308.272,107.355 308.5,105.5 Z"/></g>
<g><path style="opacity:1" fill="#161616" d="M 325.5,103.5 C 327.423,105.201 327.757,107.201 326.5,109.5C 325.534,107.604 325.201,105.604 325.5,103.5 Z"/></g>
<g><path style="opacity:1" fill="#1b1d1c" d="M 340.5,100.5 C 341.496,100.414 342.329,100.748 343,101.5C 343.813,103.436 344.313,105.436 344.5,107.5C 343.5,107.5 342.5,107.5 341.5,107.5C 341.007,105.194 340.674,102.861 340.5,100.5 Z"/></g>
<g><path style="opacity:1" fill="#1d1f1e" d="M 334.5,101.5 C 335.5,101.5 336.5,101.5 337.5,101.5C 337.318,103.591 337.652,105.591 338.5,107.5C 337.675,108.386 336.675,108.719 335.5,108.5C 335.552,106.097 335.219,103.764 334.5,101.5 Z"/></g>
<g><path style="opacity:1" fill="#222222" d="M 318.5,102.5 C 319.756,102.461 320.756,102.961 321.5,104C 321.253,105.813 320.92,107.647 320.5,109.5C 319.579,107.223 318.913,104.89 318.5,102.5 Z"/></g>
<g><path style="opacity:1" fill="#434544" d="M 310.5,103.5 C 312.344,104.204 312.844,105.537 312,107.5C 310.812,106.437 310.312,105.103 310.5,103.5 Z"/></g>
<g><path style="opacity:1" fill="#262727" d="M 329.5,102.5 C 330.496,102.414 331.329,102.748 332,103.5C 332.346,105.218 332.846,106.885 333.5,108.5C 332.675,109.386 331.675,109.719 330.5,109.5C 330.552,107.097 330.219,104.764 329.5,102.5 Z"/></g>
<g><path style="opacity:1" fill="#242325" d="M 350.5,97.5 C 353.944,98.045 355.111,100.045 354,103.5C 353,104.833 352,104.833 351,103.5C 350.505,101.527 350.338,99.5273 350.5,97.5 Z"/></g>
<g><path style="opacity:1" fill="#1a1c1b" d="M 345.5,99.5 C 347.178,100.747 348.511,102.414 349.5,104.5C 349.167,105.5 348.5,106.167 347.5,106.5C 345.829,104.49 345.162,102.157 345.5,99.5 Z"/></g>
<g><path style="opacity:1" fill="#181919" d="M 301.5,100.5 C 302.782,101.708 302.782,103.042 301.5,104.5C 300.374,103.192 300.374,101.858 301.5,100.5 Z"/></g>
<g><path style="opacity:1" fill="#2a2a29" d="M 295.5,98.5 C 297.465,98.9483 297.798,99.9483 296.5,101.5C 295.614,100.675 295.281,99.675 295.5,98.5 Z"/></g>
<g><path style="opacity:1" fill="#1a681d" d="M 358.5,65.5 C 359.117,65.6107 359.617,65.944 360,66.5C 360.333,70.1667 360.667,73.8333 361,77.5C 361.71,78.9733 362.876,79.6399 364.5,79.5C 364.5,77.5 364.5,75.5 364.5,73.5C 365.5,73.5 366.5,73.5 367.5,73.5C 366.184,77.0895 365.017,80.7561 364,84.5C 362.445,97.5491 362.278,110.549 363.5,123.5C 360.5,123.5 357.5,123.5 354.5,123.5C 354.5,123.167 354.5,122.833 354.5,122.5C 353.705,117.851 353.539,113.184 354,108.5C 355.182,106.656 356.349,104.823 357.5,103C 357.192,101.541 356.525,100.374 355.5,99.5C 355.267,97.9382 354.6,96.6049 353.5,95.5C 354.163,93.9581 354.83,92.2914 355.5,90.5C 356.167,90.8333 356.833,91.1667 357.5,91.5C 358.833,87.5 358.833,83.5 357.5,79.5C 354.869,77.9954 355.203,77.3287 358.5,77.5C 358.5,73.5 358.5,69.5 358.5,65.5 Z"/></g>
<g><path style="opacity:1" fill="#0d220f" d="M 355.5,99.5 C 356.525,100.374 357.192,101.541 357.5,103C 356.349,104.823 355.182,106.656 354,108.5C 353.539,113.184 353.705,117.851 354.5,122.5C 353.191,120.429 352.525,117.929 352.5,115C 352.548,112.081 352.881,109.248 353.5,106.5C 355.168,104.521 355.834,102.188 355.5,99.5 Z"/></g>
<g><path style="opacity:1" fill="#538b55" d="M 203.5,28.5 C 203.5,28.8333 203.5,29.1667 203.5,29.5C 203.5,60.5 203.5,91.5 203.5,122.5C 227.339,122.169 251.006,122.502 274.5,123.5C 250.5,123.5 226.5,123.5 202.5,123.5C 202.168,91.6623 202.502,59.9956 203.5,28.5 Z"/></g>
<g><path style="opacity:0.992" fill="#fcfcfc" d="M 202.5,123.5 C 226.5,123.5 250.5,123.5 274.5,123.5C 274.833,123.5 275.167,123.5 275.5,123.5C 273.344,126.156 271.011,128.656 268.5,131C 262.103,134.979 257.103,133.646 253.5,127C 247.5,126.333 241.5,126.333 235.5,127C 235.167,127.333 234.833,127.667 234.5,128C 236.709,130.378 239.042,132.545 241.5,134.5C 239.827,136.086 237.827,136.753 235.5,136.5C 236.11,140.635 235.277,144.301 233,147.5C 232.333,151.167 232.333,154.833 233,158.5C 236.941,154.934 241.608,152.601 247,151.5C 248.261,151.759 249.261,152.426 250,153.5C 251.147,156.618 252.48,159.618 254,162.5C 254.551,158.282 256.884,155.616 261,154.5C 261.236,152.236 261.736,150.069 262.5,148C 262.833,147.833 263.167,147.667 263.5,147.5C 264.167,148.5 264.833,149.5 265.5,150.5C 270.843,149.077 275.677,146.744 280,143.5C 280.333,144.167 280.667,144.833 281,145.5C 282.344,143.658 283.844,141.992 285.5,140.5C 285.178,145.85 285.678,151.183 287,156.5C 287.689,157.357 288.522,158.023 289.5,158.5C 295.436,156.871 300.102,158.704 303.5,164C 311.399,165.902 312.399,169.569 306.5,175C 299.223,177.213 291.89,179.213 284.5,181C 283,182.5 281.5,184 280,185.5C 277.602,195.141 280.435,202.808 288.5,208.5C 282.926,210.453 276.926,211.12 270.5,210.5C 269.833,210.5 269.167,210.5 268.5,210.5C 265.373,208.11 261.707,206.444 257.5,205.5C 253.618,206.535 253.618,207.535 257.5,208.5C 239.674,209.497 221.674,209.83 203.5,209.5C 201.868,180.769 201.535,152.103 202.5,123.5 Z"/></g>
<g><path style="opacity:1" fill="#f7f8f8" d="M 354.5,123.5 C 357.5,123.5 360.5,123.5 363.5,123.5C 363.198,126.059 363.532,128.393 364.5,130.5C 366.192,146.666 367.859,162.833 369.5,179C 368.499,181.502 366.833,182.002 364.5,180.5C 359.011,169.347 351.344,160.014 341.5,152.5C 340.586,150.336 339.419,148.336 338,146.5C 336.941,142.619 338.108,139.619 341.5,137.5C 342.485,139.772 343.319,142.105 344,144.5C 345.341,142.756 346.508,140.923 347.5,139C 347.355,137.774 347.022,136.607 346.5,135.5C 347.325,134.614 348.325,134.281 349.5,134.5C 350.255,131.947 350.922,129.28 351.5,126.5C 351.5,125.5 351.5,124.5 351.5,123.5C 352.5,123.5 353.5,123.5 354.5,123.5 Z"/></g>
<g><path style="opacity:0.993" fill="#fcfdfc" d="M 369.5,123.5 C 389.833,123.5 410.167,123.5 430.5,123.5C 430.5,152.5 430.5,181.5 430.5,210.5C 404.167,210.5 377.833,210.5 351.5,210.5C 351.167,210.5 350.833,210.5 350.5,210.5C 350.34,208.801 350.506,207.134 351,205.5C 355.077,201.258 358.577,196.591 361.5,191.5C 367.445,190.247 372.612,187.581 377,183.5C 377.667,179.5 377.667,175.5 377,171.5C 373.645,155.592 371.145,139.592 369.5,123.5 Z"/></g>
<g><path style="opacity:1" fill="#767877" d="M 351.5,126.5 C 350.922,129.28 350.255,131.947 349.5,134.5C 348.964,131.302 349.631,128.635 351.5,126.5 Z"/></g>
<g><path style="opacity:1" fill="#f0f4f0" d="M 321.5,208.5 C 321.5,209.167 321.5,209.833 321.5,210.5C 318.167,210.5 314.833,210.5 311.5,210.5C 309.871,209.375 308.371,208.041 307,206.5C 304.785,200.214 306.951,197.381 313.5,198C 315.359,196.308 317.359,194.808 319.5,193.5C 320.167,198.651 320.834,203.651 321.5,208.5 Z"/></g>
<g><path style="opacity:1" fill="#a5d1a9" d="M 257.5,208.5 C 258.167,208.5 258.5,208.833 258.5,209.5C 258.5,209.833 258.5,210.167 258.5,210.5C 240.167,210.5 221.833,210.5 203.5,210.5C 203.5,210.167 203.5,209.833 203.5,209.5C 221.674,209.83 239.674,209.497 257.5,208.5 Z"/></g>
<g><path style="opacity:1" fill="#19591f" d="M 203.5,210.5 C 221.833,210.5 240.167,210.5 258.5,210.5C 259.794,211.29 260.961,212.29 262,213.5C 262.808,217.027 262.641,220.36 261.5,223.5C 261.817,220.428 261.484,217.428 260.5,214.5C 259.646,213.478 258.646,212.645 257.5,212C 239.426,211.181 221.426,211.348 203.5,212.5C 203.5,211.833 203.5,211.167 203.5,210.5 Z"/></g>
<g><path style="opacity:1" fill="#1a6420" d="M 288.5,208.5 C 289.167,208.5 289.5,208.833 289.5,209.5C 289.649,212.607 289.149,215.607 288,218.5C 284.927,219.617 281.76,219.784 278.5,219C 276.093,216.715 273.593,214.549 271,212.5C 270.536,211.906 270.369,211.239 270.5,210.5C 276.926,211.12 282.926,210.453 288.5,208.5 Z"/></g>
<g><path style="opacity:1" fill="#156d18" d="M 351.5,210.5 C 377.833,210.5 404.167,210.5 430.5,210.5C 428.868,233.57 421.034,254.237 407,272.5C 402.261,277.744 397.095,282.41 391.5,286.5C 388.404,287.093 386.071,286.093 384.5,283.5C 383.636,285.197 382.303,286.363 380.5,287C 384.735,289.753 384.401,291.42 379.5,292C 378.874,292.75 378.374,293.584 378,294.5C 377.692,293.692 377.192,293.025 376.5,292.5C 374.139,294.455 371.472,295.288 368.5,295C 369.451,294.282 369.617,293.449 369,292.5C 366.929,293.525 364.762,294.358 362.5,295C 369.704,295.857 370.038,297.357 363.5,299.5C 362.914,299.291 362.414,298.957 362,298.5C 360.949,300.627 359.449,302.293 357.5,303.5C 352.555,305.222 347.555,306.722 342.5,308C 334.021,309.072 325.521,309.572 317,309.5C 315.016,309.259 313.183,308.592 311.5,307.5C 311.315,304.707 309.481,303.04 306,302.5C 304.338,302.388 303.171,303.054 302.5,304.5C 309.188,307.178 308.855,308.844 301.5,309.5C 293.197,308.269 292.863,306.602 300.5,304.5C 300.062,303.494 299.396,303.494 298.5,304.5C 297.522,304.023 296.689,303.357 296,302.5C 293.712,302.737 291.212,302.737 288.5,302.5C 288.5,303.5 288.5,304.5 288.5,305.5C 287.127,305.657 285.793,305.49 284.5,305C 281.603,303.622 278.936,301.956 276.5,300C 273.173,299.39 269.839,298.89 266.5,298.5C 256.664,293.326 247.664,286.993 239.5,279.5C 239.785,277.712 239.452,276.045 238.5,274.5C 236.833,272.833 235.167,271.167 233.5,269.5C 235.423,268.692 237.423,268.192 239.5,268C 238.283,266.352 237.45,264.519 237,262.5C 235.497,262.835 234.164,262.835 233,262.5C 232.506,264.134 232.34,265.801 232.5,267.5C 228.849,267.838 227.183,266.172 227.5,262.5C 226.5,262.5 225.5,262.5 224.5,262.5C 223.866,259.358 222.533,256.524 220.5,254C 221.657,251.893 220.824,250.726 218,250.5C 217.235,250.57 216.735,250.903 216.5,251.5C 208.025,239.956 203.692,226.956 203.5,212.5C 221.426,211.348 239.426,211.181 257.5,212C 258.646,212.645 259.646,213.478 260.5,214.5C 261.484,217.428 261.817,220.428 261.5,223.5C 259.128,224.723 256.628,225.723 254,226.5C 253.163,228.844 251.829,230.844 250,232.5C 249.505,234.473 249.338,236.473 249.5,238.5C 254.392,238.226 259.059,238.893 263.5,240.5C 263.176,237.306 264.342,236.306 267,237.5C 268.031,243.483 268.864,249.483 269.5,255.5C 270.833,255.5 272.167,255.5 273.5,255.5C 273.5,252.833 273.5,250.167 273.5,247.5C 276.104,247.402 278.104,246.235 279.5,244C 281.684,238.942 283.684,233.775 285.5,228.5C 287.329,231.419 289.329,234.086 291.5,236.5C 294.287,234.48 297.287,232.646 300.5,231C 301.337,229.989 301.67,228.822 301.5,227.5C 304.568,227.453 307.568,226.953 310.5,226C 309.557,223.2 309.724,220.366 311,217.5C 312.011,216.663 313.178,216.33 314.5,216.5C 314.5,214.833 314.5,213.167 314.5,211.5C 318.112,210.924 321.112,211.924 323.5,214.5C 326.472,218.304 329.972,221.637 334,224.5C 335.009,226.025 335.509,227.692 335.5,229.5C 337.635,229.147 338.968,229.98 339.5,232C 336.712,240.605 331.379,246.772 323.5,250.5C 322.298,247.944 320.631,245.611 318.5,243.5C 316.171,242.434 313.671,242.434 311,243.5C 309.289,243.561 307.956,242.894 307,241.5C 305.279,245.466 303.612,245.466 302,241.5C 300.89,243.037 299.39,243.703 297.5,243.5C 297.337,245.857 297.503,248.19 298,250.5C 300.022,251.786 302.189,252.786 304.5,253.5C 305.429,254.689 305.762,256.022 305.5,257.5C 304.5,257.5 303.5,257.5 302.5,257.5C 302.385,259.947 301.385,261.947 299.5,263.5C 298.279,264.028 297.113,264.695 296,265.5C 295.219,268.834 294.886,272.167 295,275.5C 295.725,276.059 296.558,276.392 297.5,276.5C 300.789,273.853 304.122,273.853 307.5,276.5C 309.901,274.466 312.568,274.299 315.5,276C 316.282,278.74 316.782,281.574 317,284.5C 317.86,287.633 319.36,290.3 321.5,292.5C 322.255,294.466 323.421,294.8 325,293.5C 326.127,290.623 326.794,287.623 327,284.5C 331.668,282.343 333.835,278.676 333.5,273.5C 334.989,270.522 336.489,267.522 338,264.5C 339.302,263.915 340.469,263.249 341.5,262.5C 344.714,259.689 347.381,256.356 349.5,252.5C 350.031,250.456 351.198,248.789 353,247.5C 353.822,245.212 354.489,242.878 355,240.5C 355.615,242.116 356.615,243.449 358,244.5C 359.296,241.049 360.796,237.715 362.5,234.5C 363.325,233.614 364.325,233.281 365.5,233.5C 365.665,230.15 365.498,226.817 365,223.5C 360.667,220.167 356.333,216.833 352,213.5C 351.517,212.552 351.351,211.552 351.5,210.5 Z"/></g>
<g><path style="opacity:1" fill="#1b5e1f" d="M 311.5,210.5 C 314.833,210.5 318.167,210.5 321.5,210.5C 322.6,211.605 323.267,212.938 323.5,214.5C 321.112,211.924 318.112,210.924 314.5,211.5C 314.5,213.167 314.5,214.833 314.5,216.5C 313.178,216.33 312.011,216.663 311,217.5C 309.724,220.366 309.557,223.2 310.5,226C 307.568,226.953 304.568,227.453 301.5,227.5C 301.67,228.822 301.337,229.989 300.5,231C 297.287,232.646 294.287,234.48 291.5,236.5C 295.826,232.84 299.826,228.84 303.5,224.5C 304.105,222.974 305.271,221.974 307,221.5C 307.359,217.427 309.526,215.093 313.5,214.5C 312.37,213.378 311.703,212.044 311.5,210.5 Z"/></g>
<g><path style="opacity:1" fill="#141417" d="M 268.5,210.5 C 270.431,213.453 272.431,216.453 274.5,219.5C 273.751,221.036 272.751,222.369 271.5,223.5C 271.144,225.994 271.644,228.327 273,230.5C 270.771,227.844 268.938,228.177 267.5,231.5C 269.045,232.452 270.712,232.785 272.5,232.5C 272.34,234.199 272.506,235.866 273,237.5C 273.483,236.552 273.649,235.552 273.5,234.5C 274.833,234.5 276.167,234.5 277.5,234.5C 276.982,237.887 276.149,241.221 275,244.5C 273.745,243.789 272.579,242.956 271.5,242C 271.833,241.667 272.167,241.333 272.5,241C 270.241,239.065 269.241,236.565 269.5,233.5C 267.833,233.5 266.167,233.5 264.5,233.5C 264.5,232.167 264.5,230.833 264.5,229.5C 259.291,228.396 256.291,230.396 255.5,235.5C 254.325,235.719 253.325,235.386 252.5,234.5C 253.881,232.365 254.881,230.032 255.5,227.5C 259.806,226.408 264.139,225.408 268.5,224.5C 269.97,221.681 269.804,219.014 268,216.5C 266.495,218.298 266.328,220.132 267.5,222C 266.437,223.188 265.103,223.688 263.5,223.5C 263.666,219.486 263.499,215.486 263,211.5C 261.67,210.418 260.17,209.751 258.5,209.5C 258.5,208.833 258.167,208.5 257.5,208.5C 253.618,207.535 253.618,206.535 257.5,205.5C 261.707,206.444 265.373,208.11 268.5,210.5 Z"/></g>
<g><path style="opacity:1" fill="#0f1712" d="M 258.5,210.5 C 258.5,210.167 258.5,209.833 258.5,209.5C 260.17,209.751 261.67,210.418 263,211.5C 263.499,215.486 263.666,219.486 263.5,223.5C 265.103,223.688 266.437,223.188 267.5,222C 266.328,220.132 266.495,218.298 268,216.5C 269.804,219.014 269.97,221.681 268.5,224.5C 264.139,225.408 259.806,226.408 255.5,227.5C 254.881,230.032 253.881,232.365 252.5,234.5C 253.325,235.386 254.325,235.719 255.5,235.5C 256.291,230.396 259.291,228.396 264.5,229.5C 264.5,230.833 264.5,232.167 264.5,233.5C 266.167,233.5 267.833,233.5 269.5,233.5C 269.241,236.565 270.241,239.065 272.5,241C 272.167,241.333 271.833,241.667 271.5,242C 272.579,242.956 273.745,243.789 275,244.5C 276.149,241.221 276.982,237.887 277.5,234.5C 276.167,234.5 274.833,234.5 273.5,234.5C 273.649,235.552 273.483,236.552 273,237.5C 272.506,235.866 272.34,234.199 272.5,232.5C 270.712,232.785 269.045,232.452 267.5,231.5C 268.938,228.177 270.771,227.844 273,230.5C 271.644,228.327 271.144,225.994 271.5,223.5C 272.751,222.369 273.751,221.036 274.5,219.5C 272.431,216.453 270.431,213.453 268.5,210.5C 269.167,210.5 269.833,210.5 270.5,210.5C 270.369,211.239 270.536,211.906 271,212.5C 273.593,214.549 276.093,216.715 278.5,219C 281.76,219.784 284.927,219.617 288,218.5C 289.149,215.607 289.649,212.607 289.5,209.5C 293.282,212.562 293.448,215.895 290,219.5C 289.502,222.482 289.335,225.482 289.5,228.5C 290.822,228.33 291.989,228.663 293,229.5C 293.346,227.782 293.846,226.115 294.5,224.5C 293.833,223.833 293.167,223.167 292.5,222.5C 293.853,221.315 295.02,219.981 296,218.5C 296.98,220.059 297.813,221.726 298.5,223.5C 300.071,224.309 301.738,224.643 303.5,224.5C 299.826,228.84 295.826,232.84 291.5,236.5C 289.329,234.086 287.329,231.419 285.5,228.5C 283.684,233.775 281.684,238.942 279.5,244C 278.104,246.235 276.104,247.402 273.5,247.5C 273.5,250.167 273.5,252.833 273.5,255.5C 272.167,255.5 270.833,255.5 269.5,255.5C 268.864,249.483 268.031,243.483 267,237.5C 264.342,236.306 263.176,237.306 263.5,240.5C 259.059,238.893 254.392,238.226 249.5,238.5C 249.338,236.473 249.505,234.473 250,232.5C 251.829,230.844 253.163,228.844 254,226.5C 256.628,225.723 259.128,224.723 261.5,223.5C 262.641,220.36 262.808,217.027 262,213.5C 260.961,212.29 259.794,211.29 258.5,210.5 Z"/></g>
<g><path style="opacity:1" fill="#19631d" d="M 318.5,243.5 C 313.787,245.56 308.787,246.893 303.5,247.5C 303.291,248.086 302.957,248.586 302.5,249C 306.253,250.674 307.753,253.507 307,257.5C 304.894,260.118 302.394,262.118 299.5,263.5C 301.385,261.947 302.385,259.947 302.5,257.5C 303.5,257.5 304.5,257.5 305.5,257.5C 305.762,256.022 305.429,254.689 304.5,253.5C 302.189,252.786 300.022,251.786 298,250.5C 297.503,248.19 297.337,245.857 297.5,243.5C 299.39,243.703 300.89,243.037 302,241.5C 303.612,245.466 305.279,245.466 307,241.5C 307.956,242.894 309.289,243.561 311,243.5C 313.671,242.434 316.171,242.434 318.5,243.5 Z"/></g>
<g><path style="opacity:1" fill="#111614" d="M 350.5,210.5 C 350.833,210.5 351.167,210.5 351.5,210.5C 351.351,211.552 351.517,212.552 352,213.5C 356.333,216.833 360.667,220.167 365,223.5C 365.498,226.817 365.665,230.15 365.5,233.5C 364.325,233.281 363.325,233.614 362.5,234.5C 360.796,237.715 359.296,241.049 358,244.5C 356.615,243.449 355.615,242.116 355,240.5C 354.489,242.878 353.822,245.212 353,247.5C 351.198,248.789 350.031,250.456 349.5,252.5C 346.905,253.426 344.905,255.093 343.5,257.5C 342.438,259.022 341.771,260.688 341.5,262.5C 340.469,263.249 339.302,263.915 338,264.5C 336.489,267.522 334.989,270.522 333.5,273.5C 332.073,275.148 331.24,277.148 331,279.5C 325.676,282.147 323.51,286.48 324.5,292.5C 323.5,292.5 322.5,292.5 321.5,292.5C 319.11,285.723 317.777,278.723 317.5,271.5C 311.824,271.334 306.157,271.501 300.5,272C 299.354,272.645 298.354,273.478 297.5,274.5C 295.946,270.361 296.613,266.694 299.5,263.5C 302.394,262.118 304.894,260.118 307,257.5C 307.753,253.507 306.253,250.674 302.5,249C 302.957,248.586 303.291,248.086 303.5,247.5C 308.787,246.893 313.787,245.56 318.5,243.5C 320.631,245.611 322.298,247.944 323.5,250.5C 331.379,246.772 336.712,240.605 339.5,232C 338.968,229.98 337.635,229.147 335.5,229.5C 335.509,227.692 335.009,226.025 334,224.5C 329.972,221.637 326.472,218.304 323.5,214.5C 323.267,212.938 322.6,211.605 321.5,210.5C 321.5,209.833 321.5,209.167 321.5,208.5C 322.766,207.087 323.432,205.754 323.5,204.5C 324.347,206.872 325.681,208.872 327.5,210.5C 330.054,205.092 332.054,205.259 333.5,211C 332.968,213.02 331.635,213.853 329.5,213.5C 329.579,214.93 329.246,216.264 328.5,217.5C 330.045,218.452 331.712,218.785 333.5,218.5C 334.828,221.356 335.828,224.356 336.5,227.5C 338.124,227.36 339.29,228.027 340,229.5C 340.279,233.17 340.112,236.837 339.5,240.5C 342.487,240.998 345.487,241.498 348.5,242C 349.77,242.9 350.77,244.066 351.5,245.5C 352.519,243.049 352.519,240.549 351.5,238C 351.833,237.167 352.167,236.333 352.5,235.5C 353.167,236.5 353.833,237.5 354.5,238.5C 355.327,234.541 355.827,230.541 356,226.5C 357.081,230.092 358.081,233.759 359,237.5C 360.903,235.559 361.736,233.226 361.5,230.5C 362.5,230.5 363.5,230.5 364.5,230.5C 364.5,228.5 364.5,226.5 364.5,224.5C 361.39,221.778 357.723,219.778 353.5,218.5C 351.517,216.19 350.517,213.523 350.5,210.5 Z"/></g>
<g><path style="opacity:0.062" fill="#f9f9f9" d="M 202.5,263.5 C 201.417,263.461 200.417,263.127 199.5,262.5C 198.614,263.325 198.281,264.325 198.5,265.5C 197.566,264.432 197.232,263.099 197.5,261.5C 199.698,261.12 201.365,261.787 202.5,263.5 Z"/></g>
<g><path style="opacity:1" fill="#2e722e" d="M 239.5,279.5 C 230.328,271.335 222.662,262.002 216.5,251.5C 216.735,250.903 217.235,250.57 218,250.5C 220.824,250.726 221.657,251.893 220.5,254C 222.533,256.524 223.866,259.358 224.5,262.5C 225.5,262.5 226.5,262.5 227.5,262.5C 227.183,266.172 228.849,267.838 232.5,267.5C 232.34,265.801 232.506,264.134 233,262.5C 234.164,262.835 235.497,262.835 237,262.5C 237.45,264.519 238.283,266.352 239.5,268C 237.423,268.192 235.423,268.692 233.5,269.5C 235.167,271.167 236.833,272.833 238.5,274.5C 239.452,276.045 239.785,277.712 239.5,279.5 Z"/></g>
<g><path style="opacity:1" fill="#113f15" d="M 349.5,252.5 C 347.381,256.356 344.714,259.689 341.5,262.5C 341.771,260.688 342.438,259.022 343.5,257.5C 344.905,255.093 346.905,253.426 349.5,252.5 Z"/></g>
<g><path style="opacity:0.4" fill="#b8b7b7" d="M 437.5,302.5 C 437.203,295.08 437.536,287.746 438.5,280.5C 440.791,277.111 441.124,273.444 439.5,269.5C 439.5,267.167 439.5,264.833 439.5,262.5C 433.631,261.751 429.964,264.084 428.5,269.5C 428.167,269.5 427.833,269.5 427.5,269.5C 427.5,268.833 427.167,268.5 426.5,268.5C 425.475,268.103 425.308,267.437 426,266.5C 430.109,261.863 435.275,259.53 441.5,259.5C 442.372,265.758 442.705,271.925 442.5,278C 440.513,279.319 439.346,281.152 439,283.5C 438.828,290.013 438.328,296.347 437.5,302.5 Z"/></g>
<g><path style="opacity:0.934" fill="#696968" d="M 426.5,268.5 C 427.167,268.5 427.5,268.833 427.5,269.5C 427.5,273.167 427.5,276.833 427.5,280.5C 428.833,280.5 430.167,280.5 431.5,280.5C 429.735,281.461 427.735,281.795 425.5,281.5C 426.301,279.958 426.634,278.292 426.5,276.5C 426.5,273.833 426.5,271.167 426.5,268.5 Z"/></g>
<g><path style="opacity:0.997" fill="#1a1a1a" d="M 427.5,269.5 C 427.833,269.5 428.167,269.5 428.5,269.5C 431.331,270.079 433.664,271.412 435.5,273.5C 435.833,274.167 436.167,274.833 436.5,275.5C 436.635,277.554 435.968,279.221 434.5,280.5C 433.798,281.116 432.798,281.116 431.5,280.5C 430.167,280.5 428.833,280.5 427.5,280.5C 427.5,276.833 427.5,273.167 427.5,269.5 Z"/></g>
<g><path style="opacity:1" fill="#1b641f" d="M 299.5,263.5 C 296.613,266.694 295.946,270.361 297.5,274.5C 298.354,273.478 299.354,272.645 300.5,272C 306.157,271.501 311.824,271.334 317.5,271.5C 317.777,278.723 319.11,285.723 321.5,292.5C 319.36,290.3 317.86,287.633 317,284.5C 316.782,281.574 316.282,278.74 315.5,276C 312.568,274.299 309.901,274.466 307.5,276.5C 304.122,273.853 300.789,273.853 297.5,276.5C 296.558,276.392 295.725,276.059 295,275.5C 294.886,272.167 295.219,268.834 296,265.5C 297.113,264.695 298.279,264.028 299.5,263.5 Z"/></g>
<g><path style="opacity:0.164" fill="#efefef" d="M 439.5,269.5 C 441.124,273.444 440.791,277.111 438.5,280.5C 437.833,278.833 437.167,277.167 436.5,275.5C 436.167,274.833 435.833,274.167 435.5,273.5C 437,272.375 438.333,271.041 439.5,269.5 Z"/></g>
<g><path style="opacity:1" fill="#195421" d="M 333.5,273.5 C 333.835,278.676 331.668,282.343 327,284.5C 326.794,287.623 326.127,290.623 325,293.5C 323.421,294.8 322.255,294.466 321.5,292.5C 322.5,292.5 323.5,292.5 324.5,292.5C 323.51,286.48 325.676,282.147 331,279.5C 331.24,277.148 332.073,275.148 333.5,273.5 Z"/></g>
<g><path style="opacity:0.62" fill="#c6c6c6" d="M 426.5,276.5 C 426.634,278.292 426.301,279.958 425.5,281.5C 423.046,282.621 420.379,283.454 417.5,284C 415.081,285.509 414.081,287.675 414.5,290.5C 412.273,289.599 411.273,287.933 411.5,285.5C 416.696,283.073 421.696,280.073 426.5,276.5 Z"/></g>
<g><path style="opacity:1" fill="#9d9d9d" d="M 202.5,263.5 C 211.743,265.785 215.743,271.785 214.5,281.5C 218.603,283.925 222.769,286.259 227,288.5C 227.499,292.152 227.665,295.818 227.5,299.5C 227.655,302.853 226.988,303.186 225.5,300.5C 226.833,297.5 226.833,294.5 225.5,291.5C 225.719,290.325 225.386,289.325 224.5,288.5C 221.009,286.868 217.342,285.868 213.5,285.5C 211.597,285.204 209.93,284.537 208.5,283.5C 209.833,283.5 211.167,283.5 212.5,283.5C 212.515,279.44 212.015,275.44 211,271.5C 210.184,272.823 209.017,273.489 207.5,273.5C 209.1,272.318 209.433,270.985 208.5,269.5C 206.317,266.315 203.317,264.982 199.5,265.5C 199.5,267.5 199.5,269.5 199.5,271.5C 198.447,274.852 198.447,278.185 199.5,281.5C 200.944,282.981 201.611,282.648 201.5,280.5C 202.74,281.659 204.074,282.659 205.5,283.5C 203.214,284.34 202.881,285.84 204.5,288C 202.922,290.968 202.255,294.135 202.5,297.5C 202.187,301.042 202.521,304.375 203.5,307.5C 204.705,308.686 206.039,308.686 207.5,307.5C 211.167,312.833 214.833,318.167 218.5,323.5C 213.439,317.437 207.773,312.103 201.5,307.5C 201.666,299.826 201.5,292.159 201,284.5C 200.617,283.944 200.117,283.611 199.5,283.5C 198.373,282.878 197.373,282.045 196.5,281C 197.303,275.887 197.969,270.72 198.5,265.5C 198.281,264.325 198.614,263.325 199.5,262.5C 200.417,263.127 201.417,263.461 202.5,263.5 Z M 205.5,283.5 C 206.5,283.5 207.5,283.5 208.5,283.5C 209.93,284.537 211.597,285.204 213.5,285.5C 215.355,286.69 217.188,288.023 219,289.5C 219.667,290.167 219.667,290.833 219,291.5C 216.489,293.679 214.322,296.179 212.5,299C 210.884,299.615 209.551,300.615 208.5,302C 207.207,302.49 205.873,302.657 204.5,302.5C 204.88,300.302 204.213,298.635 202.5,297.5C 202.255,294.135 202.922,290.968 204.5,288C 202.881,285.84 203.214,284.34 205.5,283.5 Z M 207.5,273.5 C 205.326,273.75 203.659,274.75 202.5,276.5C 200.972,275.198 199.972,273.531 199.5,271.5C 199.5,269.5 199.5,267.5 199.5,265.5C 203.317,264.982 206.317,266.315 208.5,269.5C 209.433,270.985 209.1,272.318 207.5,273.5 Z"/></g>
<g><path style="opacity:1" fill="#222528" d="M 208.5,283.5 C 207.5,283.5 206.5,283.5 205.5,283.5C 204.074,282.659 202.74,281.659 201.5,280.5C 201.833,279.167 202.167,277.833 202.5,276.5C 203.659,274.75 205.326,273.75 207.5,273.5C 209.017,273.489 210.184,272.823 211,271.5C 212.015,275.44 212.515,279.44 212.5,283.5C 211.167,283.5 209.833,283.5 208.5,283.5 Z"/></g>
<g><path style="opacity:0.078" fill="#eaeae9" d="M 199.5,271.5 C 199.972,273.531 200.972,275.198 202.5,276.5C 202.167,277.833 201.833,279.167 201.5,280.5C 201.611,282.648 200.944,282.981 199.5,281.5C 198.447,278.185 198.447,274.852 199.5,271.5 Z"/></g>
<g><path style="opacity:0.992" fill="#808080" d="M 436.5,275.5 C 437.167,277.167 437.833,278.833 438.5,280.5C 437.536,287.746 437.203,295.08 437.5,302.5C 435.925,304.8 433.925,305.633 431.5,305C 430.167,307.191 428.5,309.024 426.5,310.5C 426.5,310.167 426.5,309.833 426.5,309.5C 426.328,308.508 426.662,307.842 427.5,307.5C 428.674,306.486 429.34,305.153 429.5,303.5C 429.833,303.5 430.167,303.5 430.5,303.5C 432.467,303.739 434.301,303.406 436,302.5C 436.499,297.845 436.666,293.179 436.5,288.5C 435.922,285.72 435.255,283.053 434.5,280.5C 435.968,279.221 436.635,277.554 436.5,275.5 Z"/></g>
<g><path style="opacity:0.641" fill="#f2f2f2" d="M 213.5,285.5 C 217.342,285.868 221.009,286.868 224.5,288.5C 225.386,289.325 225.719,290.325 225.5,291.5C 224.167,292.833 222.833,294.167 221.5,295.5C 221.103,294.475 220.437,294.308 219.5,295C 216.333,298.167 213.167,301.333 210,304.5C 208.951,303.483 207.784,303.316 206.5,304C 206.957,304.414 207.291,304.914 207.5,305.5C 206.051,306.172 204.718,306.839 203.5,307.5C 202.521,304.375 202.187,301.042 202.5,297.5C 204.213,298.635 204.88,300.302 204.5,302.5C 205.873,302.657 207.207,302.49 208.5,302C 209.551,300.615 210.884,299.615 212.5,299C 214.322,296.179 216.489,293.679 219,291.5C 219.667,290.833 219.667,290.167 219,289.5C 217.188,288.023 215.355,286.69 213.5,285.5 Z"/></g>
<g><path style="opacity:0.684" fill="#f6f6f6" d="M 416.5,292.5 C 420.54,296.542 424.873,300.209 429.5,303.5C 429.34,305.153 428.674,306.486 427.5,307.5C 427.657,306.127 427.49,304.793 427,303.5C 426.722,304.416 426.222,305.082 425.5,305.5C 425.167,305.5 424.833,305.5 424.5,305.5C 422.421,303.127 419.754,301.794 416.5,301.5C 417.335,302.943 418.668,303.943 420.5,304.5C 418.234,305.314 415.9,305.814 413.5,306C 413.043,306.414 412.709,306.914 412.5,307.5C 413.962,307.308 415.628,307.641 417.5,308.5C 419.138,309.705 419.471,311.038 418.5,312.5C 415.53,311.835 412.53,311.169 409.5,310.5C 409.167,310.833 408.833,311.167 408.5,311.5C 410.076,313.979 411.076,316.646 411.5,319.5C 408.737,319.256 406.571,317.923 405,315.5C 404.5,316 404,316.5 403.5,317C 404.38,318.356 404.714,319.856 404.5,321.5C 401.744,320.746 399.078,320.746 396.5,321.5C 397.476,320.185 398.476,318.852 399.5,317.5C 399,317.167 398.5,316.833 398,316.5C 395.503,317.249 393.003,317.916 390.5,318.5C 390.833,317.833 391.167,317.167 391.5,316.5C 399.347,312.328 406.013,306.661 411.5,299.5C 413.412,297.343 415.079,295.009 416.5,292.5 Z M 416.5,301.5 C 415.142,302.626 413.808,302.626 412.5,301.5C 413.833,299.833 415.167,298.167 416.5,296.5C 417.052,298.003 417.052,299.669 416.5,301.5 Z"/></g>
<g><path style="opacity:0.894" fill="#262626" d="M 411.5,285.5 C 411.273,287.933 412.273,289.599 414.5,290.5C 415.167,290.5 415.5,290.833 415.5,291.5C 415.5,292.167 415.833,292.5 416.5,292.5C 415.079,295.009 413.412,297.343 411.5,299.5C 411.167,299.5 410.833,299.5 410.5,299.5C 410.181,294.637 410.514,289.97 411.5,285.5 Z"/></g>
<g><path style="opacity:1" fill="#191919" d="M 225.5,291.5 C 226.833,294.5 226.833,297.5 225.5,300.5C 224.167,298.833 222.833,297.167 221.5,295.5C 222.833,294.167 224.167,292.833 225.5,291.5 Z"/></g>
<g><path style="opacity:1" fill="#adadad" d="M 427.5,299.5 C 428.5,300.833 429.5,302.167 430.5,303.5C 430.167,303.5 429.833,303.5 429.5,303.5C 424.873,300.209 420.54,296.542 416.5,292.5C 415.833,292.5 415.5,292.167 415.5,291.5C 416.789,290.499 418.122,290.666 419.5,292C 422.033,295.394 424.699,297.894 427.5,299.5 Z"/></g>
<g><path style="opacity:0.845" fill="#f3f3f3" d="M 221.5,295.5 C 222.833,297.167 224.167,298.833 225.5,300.5C 226.988,303.186 227.655,302.853 227.5,299.5C 228.89,300.899 229.89,302.566 230.5,304.5C 230.062,304.435 229.728,304.601 229.5,305C 249.907,324.535 274.241,335.368 302.5,337.5C 322.05,340.192 341.384,338.525 360.5,332.5C 357.369,334.904 354.036,337.071 350.5,339C 352.937,340.375 355.603,340.875 358.5,340.5C 358.804,343.522 359.304,346.522 360,349.5C 361.205,348.929 362.372,348.262 363.5,347.5C 361.8,345.932 360.466,344.099 359.5,342C 361.044,341.71 362.377,341.044 363.5,340C 362.906,339.536 362.239,339.369 361.5,339.5C 362.209,338.596 363.209,338.263 364.5,338.5C 364.629,340.216 364.962,341.883 365.5,343.5C 362.833,344.5 362.833,345.5 365.5,346.5C 367.103,346.688 368.437,346.188 369.5,345C 368.128,343.758 367.128,342.258 366.5,340.5C 369.325,337.143 372.325,337.31 375.5,341C 374.748,341.671 374.414,342.504 374.5,343.5C 372.088,343.694 371.088,345.027 371.5,347.5C 375.741,348.25 379.074,346.917 381.5,343.5C 380.675,342.614 379.675,342.281 378.5,342.5C 379.658,341.05 379.158,340.05 377,339.5C 376.79,338.197 376.957,336.864 377.5,335.5C 377.253,334.287 376.586,333.62 375.5,333.5C 377.425,333.11 379.425,332.777 381.5,332.5C 382.044,337.191 384.377,338.524 388.5,336.5C 390.335,335.878 391.502,334.544 392,332.5C 394.438,333.866 394.938,333.366 393.5,331C 394.022,330.05 394.689,329.216 395.5,328.5C 393.883,328.331 392.216,327.997 390.5,327.5C 391.09,326.201 392.09,325.368 393.5,325C 392.906,324.536 392.239,324.369 391.5,324.5C 393.22,323.692 394.887,322.692 396.5,321.5C 398.22,322.308 399.887,323.308 401.5,324.5C 403.362,323.608 405.362,323.441 407.5,324C 406.29,318.331 406.79,318.165 409,323.5C 410.704,321.627 412.537,319.96 414.5,318.5C 415.29,319.401 416.29,320.068 417.5,320.5C 417.5,320.833 417.5,321.167 417.5,321.5C 414.827,326.173 411.161,329.839 406.5,332.5C 392.562,342.553 377.229,350.053 360.5,355C 344.169,358.238 327.836,360.404 311.5,361.5C 309.901,361.768 308.568,361.434 307.5,360.5C 294.644,358.728 280.644,356.061 265.5,352.5C 258.227,349.117 250.893,345.617 243.5,342C 234.751,336.303 226.418,330.136 218.5,323.5C 214.833,318.167 211.167,312.833 207.5,307.5C 212.461,303.874 217.128,299.874 221.5,295.5 Z M 214.5,304.5 C 217.047,306.29 216.714,307.956 213.5,309.5C 212.348,307.603 212.681,305.936 214.5,304.5 Z M 222.5,322.5 C 223.077,321.227 223.743,321.227 224.5,322.5C 224.03,323.463 223.363,323.463 222.5,322.5 Z M 403.5,328.5 C 404.773,329.077 404.773,329.743 403.5,330.5C 402.537,330.03 402.537,329.363 403.5,328.5 Z M 378.5,342.5 C 379.675,342.281 380.675,342.614 381.5,343.5C 379.074,346.917 375.741,348.25 371.5,347.5C 371.088,345.027 372.088,343.694 374.5,343.5C 376.099,343.768 377.432,343.434 378.5,342.5 Z M 365.5,343.5 C 365.5,344.5 365.5,345.5 365.5,346.5C 362.833,345.5 362.833,344.5 365.5,343.5 Z"/></g>
<g><path style="opacity:0.655" fill="#ebebeb" d="M 199.5,283.5 C 200.117,283.611 200.617,283.944 201,284.5C 201.5,292.159 201.666,299.826 201.5,307.5C 200.114,304.785 199.447,301.785 199.5,298.5C 200.593,293.461 200.593,288.461 199.5,283.5 Z"/></g>
<g><path style="opacity:0.163" fill="#f4f4f4" d="M 436.5,288.5 C 436.666,293.179 436.499,297.845 436,302.5C 434.301,303.406 432.467,303.739 430.5,303.5C 429.5,302.167 428.5,300.833 427.5,299.5C 429.258,299.877 430.925,300.544 432.5,301.5C 432.833,301.167 433.167,300.833 433.5,300.5C 434.93,296.496 435.93,292.496 436.5,288.5 Z"/></g>
<g><path style="opacity:0.333" fill="#c0c0c0" d="M 221.5,295.5 C 217.128,299.874 212.461,303.874 207.5,307.5C 206.039,308.686 204.705,308.686 203.5,307.5C 204.718,306.839 206.051,306.172 207.5,305.5C 207.291,304.914 206.957,304.414 206.5,304C 207.784,303.316 208.951,303.483 210,304.5C 213.167,301.333 216.333,298.167 219.5,295C 220.437,294.308 221.103,294.475 221.5,295.5 Z"/></g>
<g><path style="opacity:1" fill="#9f9f9f" d="M 410.5,299.5 C 410.833,299.5 411.167,299.5 411.5,299.5C 406.013,306.661 399.347,312.328 391.5,316.5C 398.106,311.233 404.439,305.566 410.5,299.5 Z"/></g>
<g><path style="opacity:1" fill="#313131" d="M 416.5,301.5 C 419.754,301.794 422.421,303.127 424.5,305.5C 421.688,305.767 419.355,306.767 417.5,308.5C 415.628,307.641 413.962,307.308 412.5,307.5C 412.709,306.914 413.043,306.414 413.5,306C 415.9,305.814 418.234,305.314 420.5,304.5C 418.668,303.943 417.335,302.943 416.5,301.5 Z"/></g>
<g><path style="opacity:1" fill="#414141" d="M 231.5,313.5 C 228.529,312.473 226.196,313.473 224.5,316.5C 224.863,317.183 225.196,317.85 225.5,318.5C 224.351,318.209 223.684,317.376 223.5,316C 224.285,314.049 225.285,312.215 226.5,310.5C 226.192,309.692 225.692,309.025 225,308.5C 222.73,309.727 220.897,311.394 219.5,313.5C 218.713,312.758 218.047,311.925 217.5,311C 219.828,309.676 222.161,308.343 224.5,307C 223.529,305.796 222.529,305.296 221.5,305.5C 222.365,304.417 223.365,304.251 224.5,305C 225.833,306.667 227.167,308.333 228.5,310C 228.167,310.333 227.833,310.667 227.5,311C 229.32,311.2 230.653,312.034 231.5,313.5 Z"/></g>
<g><path style="opacity:1" fill="#246f25" d="M 391.5,286.5 C 380.016,295.912 367.016,302.745 352.5,307C 343.833,309 335.167,311 326.5,313C 323.274,314.198 320.441,316.031 318,318.5C 316.062,315.894 313.562,314.061 310.5,313C 294.681,311.227 280.015,306.393 266.5,298.5C 269.839,298.89 273.173,299.39 276.5,300C 278.936,301.956 281.603,303.622 284.5,305C 285.793,305.49 287.127,305.657 288.5,305.5C 288.5,304.5 288.5,303.5 288.5,302.5C 291.212,302.737 293.712,302.737 296,302.5C 296.689,303.357 297.522,304.023 298.5,304.5C 299.396,303.494 300.062,303.494 300.5,304.5C 292.863,306.602 293.197,308.269 301.5,309.5C 308.855,308.844 309.188,307.178 302.5,304.5C 303.171,303.054 304.338,302.388 306,302.5C 309.481,303.04 311.315,304.707 311.5,307.5C 313.183,308.592 315.016,309.259 317,309.5C 325.521,309.572 334.021,309.072 342.5,308C 347.555,306.722 352.555,305.222 357.5,303.5C 359.449,302.293 360.949,300.627 362,298.5C 362.414,298.957 362.914,299.291 363.5,299.5C 370.038,297.357 369.704,295.857 362.5,295C 364.762,294.358 366.929,293.525 369,292.5C 369.617,293.449 369.451,294.282 368.5,295C 371.472,295.288 374.139,294.455 376.5,292.5C 377.192,293.025 377.692,293.692 378,294.5C 378.374,293.584 378.874,292.75 379.5,292C 384.401,291.42 384.735,289.753 380.5,287C 382.303,286.363 383.636,285.197 384.5,283.5C 386.071,286.093 388.404,287.093 391.5,286.5 Z"/></g>
<g><path style="opacity:0.197" fill="#efefef" d="M 423.5,307.5 C 423.973,308.906 424.973,309.573 426.5,309.5C 426.5,309.833 426.5,310.167 426.5,310.5C 424.5,312.5 422.5,314.5 420.5,316.5C 420.5,315.167 419.833,314.5 418.5,314.5C 418.833,313.833 419.167,313.167 419.5,312.5C 420.478,312.189 421.145,311.522 421.5,310.5C 417.614,307.907 418.281,306.907 423.5,307.5 Z"/></g>
<g><path style="opacity:0.953" fill="#808080" d="M 424.5,305.5 C 424.833,305.5 425.167,305.5 425.5,305.5C 425.167,306.5 424.5,307.167 423.5,307.5C 418.281,306.907 417.614,307.907 421.5,310.5C 421.145,311.522 420.478,312.189 419.5,312.5C 419.167,312.5 418.833,312.5 418.5,312.5C 419.471,311.038 419.138,309.705 417.5,308.5C 419.355,306.767 421.688,305.767 424.5,305.5 Z"/></g>
<g><path style="opacity:1" fill="#eaeaea" d="M 231.5,313.5 C 231.56,317.485 229.56,319.152 225.5,318.5C 225.196,317.85 224.863,317.183 224.5,316.5C 226.196,313.473 228.529,312.473 231.5,313.5 Z"/></g>
<g><path style="opacity:0.041" fill="#ebebeb" d="M 416.5,315.5 C 415.833,316.5 415.167,317.5 414.5,318.5C 413.261,317.788 412.761,316.788 413,315.5C 414.292,314.209 415.458,314.209 416.5,315.5 Z"/></g>
<g><path style="opacity:1" fill="#1e1e1e" d="M 231.5,313.5 C 233.436,317.208 232.27,319.541 228,320.5C 226.699,320.361 225.866,319.695 225.5,318.5C 229.56,319.152 231.56,317.485 231.5,313.5 Z"/></g>
<g><path style="opacity:0.922" fill="#393939" d="M 418.5,312.5 C 418.833,312.5 419.167,312.5 419.5,312.5C 419.167,313.167 418.833,313.833 418.5,314.5C 418.158,315.338 417.492,315.672 416.5,315.5C 415.458,314.209 414.292,314.209 413,315.5C 412.761,316.788 413.261,317.788 414.5,318.5C 412.537,319.96 410.704,321.627 409,323.5C 406.79,318.165 406.29,318.331 407.5,324C 405.362,323.441 403.362,323.608 401.5,324.5C 399.887,323.308 398.22,322.308 396.5,321.5C 399.078,320.746 401.744,320.746 404.5,321.5C 404.714,319.856 404.38,318.356 403.5,317C 404,316.5 404.5,316 405,315.5C 406.571,317.923 408.737,319.256 411.5,319.5C 411.076,316.646 410.076,313.979 408.5,311.5C 408.833,311.167 409.167,310.833 409.5,310.5C 412.53,311.169 415.53,311.835 418.5,312.5 Z"/></g>
<g><path style="opacity:0.647" fill="#9c9c9c" d="M 426.5,310.5 C 424.628,315.043 421.628,318.71 417.5,321.5C 417.5,321.167 417.5,320.833 417.5,320.5C 418.5,319.167 419.5,317.833 420.5,316.5C 422.5,314.5 424.5,312.5 426.5,310.5 Z"/></g>
<g><path style="opacity:1" fill="#242424" d="M 236.5,318.5 C 239.018,319.511 239.018,320.844 236.5,322.5C 238.044,323.622 239.377,323.289 240.5,321.5C 241.386,322.325 241.719,323.325 241.5,324.5C 240.167,324.5 238.833,324.5 237.5,324.5C 237.807,326.446 237.807,328.113 237.5,329.5C 235.869,327.941 235.036,325.941 235,323.5C 234.085,324.328 233.419,325.328 233,326.5C 229.668,324.557 229.834,323.39 233.5,323C 235.141,321.871 236.141,320.371 236.5,318.5 Z"/></g>
<g><path style="opacity:1" fill="#505050" d="M 401.5,324.5 C 405.449,324.809 406.116,326.142 403.5,328.5C 402.761,328.631 402.094,328.464 401.5,328C 402.171,327.014 402.171,325.847 401.5,324.5 Z"/></g>
<g><path style="opacity:1" fill="#272727" d="M 391.5,324.5 C 392.239,324.369 392.906,324.536 393.5,325C 392.09,325.368 391.09,326.201 390.5,327.5C 392.216,327.997 393.883,328.331 395.5,328.5C 394.689,329.216 394.022,330.05 393.5,331C 394.938,333.366 394.438,333.866 392,332.5C 391.502,334.544 390.335,335.878 388.5,336.5C 390.191,333.26 389.191,331.26 385.5,330.5C 386.609,329.71 387.942,329.21 389.5,329C 388.584,328.722 387.918,328.222 387.5,327.5C 388.795,326.512 390.128,325.512 391.5,324.5 Z"/></g>
<g><path style="opacity:1" fill="#404040" d="M 244.5,324.5 C 247.674,324.952 248.007,325.952 245.5,327.5C 247.845,330.984 247.345,331.65 244,329.5C 242.392,329.974 242.226,330.641 243.5,331.5C 244.748,332.04 245.915,332.707 247,333.5C 247.333,333.167 247.667,332.833 248,332.5C 248.249,333.624 248.749,334.624 249.5,335.5C 250.231,333.599 250.231,331.599 249.5,329.5C 251.199,329.34 252.866,329.506 254.5,330C 253.376,330.249 252.376,330.749 251.5,331.5C 254.29,333.927 254.124,335.927 251,337.5C 246.933,335.55 243.1,333.217 239.5,330.5C 241.62,328.728 243.287,326.728 244.5,324.5 Z"/></g>
<g><path style="opacity:1" fill="#797979" d="M 387.5,327.5 C 387.918,328.222 388.584,328.722 389.5,329C 387.942,329.21 386.609,329.71 385.5,330.5C 384.5,331.167 383.5,331.833 382.5,332.5C 382.5,331.833 382.167,331.5 381.5,331.5C 383.06,329.571 385.06,328.238 387.5,327.5 Z"/></g>
<g><path style="opacity:0.765" fill="#989898" d="M 230.5,304.5 C 240.637,313.74 251.97,321.24 264.5,327C 277.041,331.466 289.708,334.966 302.5,337.5C 274.241,335.368 249.907,324.535 229.5,305C 229.728,304.601 230.062,304.435 230.5,304.5 Z"/></g>
<g><path style="opacity:0.978" fill="#efefef" d="M 385.5,330.5 C 389.191,331.26 390.191,333.26 388.5,336.5C 385.478,336.658 383.478,335.325 382.5,332.5C 383.5,331.833 384.5,331.167 385.5,330.5 Z"/></g>
<g><path style="opacity:0.941" fill="#424242" d="M 259.5,333.5 C 256.664,333.798 256.164,333.131 258,331.5C 258.717,332.044 259.217,332.711 259.5,333.5 Z"/></g>
<g><path style="opacity:1" fill="#212121" d="M 381.5,331.5 C 382.167,331.5 382.5,331.833 382.5,332.5C 383.478,335.325 385.478,336.658 388.5,336.5C 384.377,338.524 382.044,337.191 381.5,332.5C 381.5,332.167 381.5,331.833 381.5,331.5 Z"/></g>
<g><path style="opacity:0.652" fill="#f2f2f2" d="M 375.5,333.5 C 375.702,337.845 374.369,338.512 371.5,335.5C 372.671,334.655 374.005,333.989 375.5,333.5 Z"/></g>
<g><path style="opacity:1" fill="#303030" d="M 259.5,333.5 C 263.172,335.288 266.838,336.955 270.5,338.5C 270.657,339.873 270.49,341.207 270,342.5C 269.023,343.774 268.189,343.774 267.5,342.5C 270.253,340.581 270.086,338.915 267,337.5C 264.363,338.101 263.196,339.767 263.5,342.5C 263.167,342.5 262.833,342.5 262.5,342.5C 263.557,334.259 261.557,333.592 256.5,340.5C 255.692,340.192 255.025,339.692 254.5,339C 257.056,337.945 258.723,336.112 259.5,333.5 Z"/></g>
<g><path style="opacity:0.882" fill="#f1f1f1" d="M 267.5,342.5 C 266.167,342.5 264.833,342.5 263.5,342.5C 263.196,339.767 264.363,338.101 267,337.5C 270.086,338.915 270.253,340.581 267.5,342.5 Z"/></g>
<g><path style="opacity:0.639" fill="#959595" d="M 391.5,316.5 C 391.167,317.167 390.833,317.833 390.5,318.5C 381.278,324.777 371.278,329.444 360.5,332.5C 341.384,338.525 322.05,340.192 302.5,337.5C 334.547,340.001 364.213,333.001 391.5,316.5 Z"/></g>
<g><path style="opacity:1" fill="#434343" d="M 375.5,333.5 C 376.586,333.62 377.253,334.287 377.5,335.5C 376.957,336.864 376.79,338.197 377,339.5C 379.158,340.05 379.658,341.05 378.5,342.5C 377.432,343.434 376.099,343.768 374.5,343.5C 374.414,342.504 374.748,341.671 375.5,341C 372.325,337.31 369.325,337.143 366.5,340.5C 367.128,342.258 368.128,343.758 369.5,345C 368.437,346.188 367.103,346.688 365.5,346.5C 365.5,345.5 365.5,344.5 365.5,343.5C 364.962,341.883 364.629,340.216 364.5,338.5C 366.843,337.656 369.176,336.656 371.5,335.5C 374.369,338.512 375.702,337.845 375.5,333.5 Z"/></g>
<g><path style="opacity:1" fill="#2e2e2e" d="M 276.5,340.5 C 279.159,342.162 278.825,343.496 275.5,344.5C 276.833,345.62 277.333,346.953 277,348.5C 275.233,347.183 273.899,345.516 273,343.5C 272.517,344.448 272.351,345.448 272.5,346.5C 270.517,346.843 269.183,346.176 268.5,344.5C 270.71,344.106 272.043,342.773 272.5,340.5C 273.665,337.978 274.998,337.978 276.5,340.5 Z"/></g>
<g><path style="opacity:1" fill="#d4d4d4" d="M 276.5,340.5 C 275.86,342.332 274.86,342.665 273.5,341.5C 274.325,340.614 275.325,340.281 276.5,340.5 Z"/></g>
<g><path style="opacity:0.855" fill="#999999" d="M 270.5,338.5 C 271.167,339.167 271.833,339.833 272.5,340.5C 272.043,342.773 270.71,344.106 268.5,344.5C 266.102,344.741 264.102,344.074 262.5,342.5C 262.833,342.5 263.167,342.5 263.5,342.5C 264.833,342.5 266.167,342.5 267.5,342.5C 268.189,343.774 269.023,343.774 270,342.5C 270.49,341.207 270.657,339.873 270.5,338.5 Z"/></g>
<g><path style="opacity:0.965" fill="#797979" d="M 298.5,344.5 C 297.1,345.1 296.1,346.1 295.5,347.5C 295.649,346.448 295.483,345.448 295,344.5C 294.282,345.451 293.449,345.617 292.5,345C 294.483,343.293 296.483,343.126 298.5,344.5 Z"/></g>
<g><path style="opacity:0.8" fill="#959595" d="M 218.5,323.5 C 226.418,330.136 234.751,336.303 243.5,342C 250.893,345.617 258.227,349.117 265.5,352.5C 247.105,347.142 231.439,337.475 218.5,323.5 Z"/></g>
<g><path style="opacity:0.997" fill="#969696" d="M 319.5,346.5 C 317.5,346.5 315.5,346.5 313.5,346.5C 313.192,348.924 313.526,351.257 314.5,353.5C 315.107,353.376 315.44,353.043 315.5,352.5C 317.144,352.714 318.644,352.38 320,351.5C 320.483,352.448 320.649,353.448 320.5,354.5C 317.428,354.817 314.428,354.484 311.5,353.5C 312.393,350.916 312.726,348.249 312.5,345.5C 315.059,345.198 317.393,345.532 319.5,346.5 Z"/></g>
<g><path style="opacity:0.817" fill="#f0f0f0" d="M 340.5,350.5 C 339.699,348.958 339.366,347.292 339.5,345.5C 342.347,345.218 345.013,345.218 347.5,345.5C 346.092,346.243 344.759,347.077 343.5,348C 343.957,348.414 344.291,348.914 344.5,349.5C 343.311,350.429 341.978,350.762 340.5,350.5 Z"/></g>
<g><path style="opacity:0.997" fill="#252525" d="M 319.5,346.5 C 314.465,347.835 314.465,349.001 319.5,350C 317.563,350.122 316.23,350.955 315.5,352.5C 315.44,353.043 315.107,353.376 314.5,353.5C 313.526,351.257 313.192,348.924 313.5,346.5C 315.5,346.5 317.5,346.5 319.5,346.5 Z"/></g>
<g><path style="opacity:1" fill="#3e3e3e" d="M 340.5,351.5 C 340.5,351.167 340.5,350.833 340.5,350.5C 341.978,350.762 343.311,350.429 344.5,349.5C 344.291,348.914 343.957,348.414 343.5,348C 344.759,347.077 346.092,346.243 347.5,345.5C 345.013,345.218 342.347,345.218 339.5,345.5C 339.611,344.883 339.944,344.383 340.5,344C 344.996,343.148 349.33,343.648 353.5,345.5C 354.594,344.132 354.26,342.965 352.5,342C 353.448,341.517 354.448,341.351 355.5,341.5C 355.466,344.199 356.133,346.699 357.5,349C 355.138,348.911 352.972,348.078 351,346.5C 350.5,346.667 350,346.833 349.5,347C 352.345,349.786 352.011,351.12 348.5,351C 349.336,349.757 349.003,348.59 347.5,347.5C 347.563,348.66 347.23,349.994 346.5,351.5C 344.364,352.793 342.364,352.793 340.5,351.5 Z"/></g>
<g><path style="opacity:1" fill="#282828" d="M 361.5,339.5 C 362.239,339.369 362.906,339.536 363.5,340C 362.377,341.044 361.044,341.71 359.5,342C 360.466,344.099 361.8,345.932 363.5,347.5C 362.372,348.262 361.205,348.929 360,349.5C 359.304,346.522 358.804,343.522 358.5,340.5C 359.391,339.89 360.391,339.557 361.5,339.5 Z"/></g>
<g><path style="opacity:1" fill="#1f1f1f" d="M 307.5,346.5 C 308.601,345.402 309.934,345.235 311.5,346C 310.932,348.684 309.932,351.184 308.5,353.5C 307.289,352.726 307.289,351.893 308.5,351C 307.833,350.667 307.167,350.333 306.5,350C 308.311,348.959 308.645,347.793 307.5,346.5 Z"/></g>
<g><path style="opacity:0.98" fill="#484848" d="M 281.5,340.5 C 284.244,340.928 286.577,342.095 288.5,344C 288.333,344.5 288.167,345 288,345.5C 286.777,343.015 285.277,342.848 283.5,345C 284.624,345.249 285.624,345.749 286.5,346.5C 286.333,346.833 286.167,347.167 286,347.5C 284.817,346.269 283.651,346.269 282.5,347.5C 283.242,348.287 284.075,348.953 285,349.5C 286.84,348.167 287.34,348.334 286.5,350C 283.962,350.867 281.962,350.201 280.5,348C 281.322,345.566 281.656,343.066 281.5,340.5 Z"/></g>
<g><path style="opacity:1" fill="#1e1e1e" d="M 339.5,345.5 C 339.366,347.292 339.699,348.958 340.5,350.5C 340.5,350.833 340.5,351.167 340.5,351.5C 339.504,351.586 338.671,351.252 338,350.5C 337.626,351.416 337.126,352.25 336.5,353C 335.041,352.645 333.707,352.811 332.5,353.5C 331.209,353.737 330.209,353.404 329.5,352.5C 332.389,352.001 333.056,350.501 331.5,348C 330.552,347.517 329.552,347.351 328.5,347.5C 327.691,349.292 327.191,351.292 327,353.5C 326.809,351.292 326.309,349.292 325.5,347.5C 327.632,346.187 330.465,346.187 334,347.5C 334.483,346.552 334.649,345.552 334.5,344.5C 335.552,344.351 336.552,344.517 337.5,345C 336.549,345.718 336.383,346.551 337,347.5C 337.708,346.619 338.542,345.953 339.5,345.5 Z"/></g>
<g><path style="opacity:0.998" fill="#f6f6f6" d="M 328.5,347.5 C 329.552,347.351 330.552,347.517 331.5,348C 333.056,350.501 332.389,352.001 329.5,352.5C 328.549,351.081 328.216,349.415 328.5,347.5 Z"/></g>
<g><path style="opacity:1" fill="#212121" d="M 298.5,344.5 C 301.073,344.148 303.406,344.648 305.5,346C 303.352,348.075 303.018,350.408 304.5,353C 303.167,353.667 301.833,353.667 300.5,353C 302.282,350.757 302.782,348.257 302,345.5C 301,346.833 300,346.833 299,345.5C 297.956,347.715 297.29,350.048 297,352.5C 296.25,351.874 295.416,351.374 294.5,351C 295.337,349.989 295.67,348.822 295.5,347.5C 296.1,346.1 297.1,345.1 298.5,344.5 Z"/></g>
<g><path style="opacity:0.663" fill="#898989" d="M 265.5,352.5 C 280.644,356.061 294.644,358.728 307.5,360.5C 292.849,360.502 278.849,357.835 265.5,352.5 Z"/></g>
<g><path style="opacity:1" fill="#909090" d="M 325.5,347.5 C 326.309,349.292 326.809,351.292 327,353.5C 327.191,351.292 327.691,349.292 328.5,347.5C 328.216,349.415 328.549,351.081 329.5,352.5C 330.209,353.404 331.209,353.737 332.5,353.5C 329.976,354.8 327.309,354.8 324.5,353.5C 325.348,351.591 325.682,349.591 325.5,347.5 Z"/></g>
<g><path style="opacity:0.382" fill="#939393" d="M 406.5,332.5 C 394.695,343.076 381.028,350.576 365.5,355C 347.837,359.917 329.837,362.083 311.5,361.5C 327.836,360.404 344.169,358.238 360.5,355C 377.229,350.053 392.562,342.553 406.5,332.5 Z"/></g>
</svg>
